<svg xmlns:dc="http://purl.org/dc/elements/1.1/" xmlns:cc="http://creativecommons.org/ns#" xmlns:rdf="http://www.w3.org/1999/02/22-rdf-syntax-ns#" xmlns:svg="http://www.w3.org/2000/svg" xmlns="http://www.w3.org/2000/svg" xmlns:sodipodi="http://sodipodi.sourceforge.net/DTD/sodipodi-0.dtd" xmlns:inkscape="http://www.inkscape.org/namespaces/inkscape" viewBox="0 0 32 32.000001" version="1.1" x="0px" y="0px"><g transform="translate(0,-1020.3622)"><path style="color:#000000;font-style:normal;font-variant:normal;font-weight:normal;font-stretch:normal;font-size:medium;line-height:normal;font-family:sans-serif;text-indent:0;text-align:start;text-decoration:none;text-decoration-line:none;text-decoration-style:solid;text-decoration-color:#000000;letter-spacing:normal;word-spacing:normal;text-transform:none;direction:ltr;block-progression:tb;writing-mode:lr-tb;baseline-shift:baseline;text-anchor:start;white-space:normal;clip-rule:nonzero;display:inline;overflow:visible;visibility:visible;opacity:1;isolation:auto;mix-blend-mode:normal;color-interpolation:sRGB;color-interpolation-filters:linearRGB;solid-color:#000000;solid-opacity:1;fill:#000000;fill-opacity:1;fill-rule:evenodd;stroke:none;stroke-width:1px;stroke-linecap:round;stroke-linejoin:round;stroke-miterlimit:4;stroke-dasharray:none;stroke-dashoffset:0;stroke-opacity:1;color-rendering:auto;image-rendering:auto;shape-rendering:auto;text-rendering:auto;enable-background:accumulate" d="m 16.275391,1022.1895 c -0.718939,0.013 -1.302735,0.07 -1.302735,0.07 a 0.50005,0.50005 0 0 0 -0.449218,0.4453 c 0,0 -0.04798,0.4604 -0.16211,1.0117 -0.114131,0.5513 -0.325082,1.1981 -0.496094,1.4355 a 0.50005,0.50005 0 0 0 0,0 c -0.388909,0.5401 -1.155215,0.8892 -1.941406,1.2812 -0.571743,0.2852 -2.095703,0.7149 -2.095703,0.7149 l 0.00586,0 a 0.50005,0.50005 0 0 0 -0.375,0.4785 0.50005,0.50005 0 0 0 0,0 c 0,0 0.016906,3.502 0,5.2422 -0.031205,3.1989 -0.1875,9.6191 -0.1875,9.6191 a 0.50005,0.50005 0 0 0 0.5019531,0.5117 l 12.3750005,-0.062 a 0.50005,0.50005 0 0 0 0.498046,-0.4902 c 0,0 0.186368,-9.8519 0,-14.1563 -0.05467,-1.2624 -0.295241,-2.658 -1.09375,-3.7695 -0.747135,-1.0401 -1.900946,-1.7362 -3.060546,-2.1211 -0.656755,-0.218 -1.497859,-0.2314 -2.216797,-0.2187 z m 0.01758,1 c 0.675136,-0.012 1.490867,0.038 1.882812,0.1679 1.001399,0.3324 1.983188,0.9448 2.564453,1.7539 0.617292,0.8593 0.855926,2.0685 0.90625,3.2305 0.175919,4.063 0.01158,12.9623 0,13.6055 l -11.365234,0.059 c 0.01502,-0.6217 0.148014,-6.0724 0.177734,-9.1192 0.01593,-1.6399 0.0019,-4.4776 0,-4.8984 0.35257,-0.096 1.233113,-0.3206 1.910157,-0.6582 0.744409,-0.3712 1.698102,-0.7439 2.308593,-1.5918 0.372489,-0.5173 0.537116,-1.2146 0.66211,-1.8184 0.07723,-0.373 0.08242,-0.4837 0.109375,-0.6855 0.206396,-0.017 0.377868,-0.037 0.84375,-0.045 z"></path><path style="color:#000000;font-style:normal;font-variant:normal;font-weight:normal;font-stretch:normal;font-size:medium;line-height:normal;font-family:sans-serif;text-indent:0;text-align:start;text-decoration:none;text-decoration-line:none;text-decoration-style:solid;text-decoration-color:#000000;letter-spacing:normal;word-spacing:normal;text-transform:none;direction:ltr;block-progression:tb;writing-mode:lr-tb;baseline-shift:baseline;text-anchor:start;white-space:normal;clip-rule:nonzero;display:inline;overflow:visible;visibility:visible;opacity:1;isolation:auto;mix-blend-mode:normal;color-interpolation:sRGB;color-interpolation-filters:linearRGB;solid-color:#000000;solid-opacity:1;fill:#000000;fill-opacity:1;fill-rule:evenodd;stroke:none;stroke-width:1px;stroke-linecap:butt;stroke-linejoin:round;stroke-miterlimit:4;stroke-dasharray:none;stroke-dashoffset:0;stroke-opacity:1;color-rendering:auto;image-rendering:auto;shape-rendering:auto;text-rendering:auto;enable-background:accumulate" d="m 17.003906,1042.4434 -0.207031,6.9296 -1.679687,0.127 -0.183594,-7.0547 -1,0.025 0.199218,7.5801 a 0.50005,0.50005 0 0 0 0.53711,0.4863 l 2.65039,-0.1992 a 0.50005,0.50005 0 0 0 0.462891,-0.4844 l 0.220703,-7.3808 -1,-0.029 z"></path><path style="color:#000000;font-style:normal;font-variant:normal;font-weight:normal;font-stretch:normal;font-size:medium;line-height:normal;font-family:sans-serif;text-indent:0;text-align:start;text-decoration:none;text-decoration-line:none;text-decoration-style:solid;text-decoration-color:#000000;letter-spacing:normal;word-spacing:normal;text-transform:none;direction:ltr;block-progression:tb;writing-mode:lr-tb;baseline-shift:baseline;text-anchor:start;white-space:normal;clip-rule:nonzero;display:inline;overflow:visible;visibility:visible;opacity:1;isolation:auto;mix-blend-mode:normal;color-interpolation:sRGB;color-interpolation-filters:linearRGB;solid-color:#000000;solid-opacity:1;fill:#000000;fill-opacity:1;fill-rule:evenodd;stroke:none;stroke-width:1px;stroke-linecap:butt;stroke-linejoin:miter;stroke-miterlimit:4;stroke-dasharray:none;stroke-dashoffset:0;stroke-opacity:1;color-rendering:auto;image-rendering:auto;shape-rendering:auto;text-rendering:auto;enable-background:accumulate" d="m 21.720703,1028.4277 c 0,0 -0.115756,0.2294 -0.285156,0.4844 -0.1694,0.255 -0.432062,0.5147 -0.474609,0.5352 l -0.002,0 -0.002,0 c -0.01184,0.01 -0.232023,-4e-4 -0.554687,-0.08 -0.161332,-0.04 -0.341377,-0.088 -0.556641,-0.092 -0.215263,-0 -0.502578,0.061 -0.708984,0.2676 -0.671617,0.6707 -0.715295,1.5783 -0.669922,2.3789 0.04537,0.8007 0.158055,1.5721 0.03516,2.1328 -0.11447,0.5225 -0.166728,0.9439 -0.322265,1.1192 -0.236743,0.2667 -0.642107,0.466 -0.816407,0.4336 -0.22284,-0.041 -0.563458,-0.4249 -0.720703,-0.8184 -0.114376,-0.2862 -0.08795,-0.6586 -0.01563,-1.125 0.07233,-0.4664 0.191168,-1.0086 0.07227,-1.5996 -0.08224,-0.4089 -0.159332,-1.0203 -0.671875,-1.4434 -0.585743,-0.4852 -1.424416,-0.7355 -2.203125,-0.4609 -0.729896,0.2571 -0.983256,0.9556 -1.189453,1.377 -0.195639,0.3996 -0.18826,0.7819 -0.208985,1.0722 -0.02072,0.2904 -0.06023,0.4607 -0.130859,0.5449 -0.213933,0.2553 -0.662897,0.456 -0.919922,0.42 -0.03341,-0 -0.375108,-0.21 -0.615234,-0.4551 -0.240127,-0.2451 -0.417969,-0.4824 -0.417969,-0.4824 l -0.8027345,0.5957 c 0,0 0.2110107,0.2869 0.5058595,0.5879 0.294849,0.301 0.634059,0.6625 1.185547,0.7422 l 0.002,0 c 0.731398,0.1051 1.401034,-0.2561 1.828125,-0.7657 0.307573,-0.3669 0.340156,-0.7932 0.363281,-1.1172 0.02313,-0.324 0.04621,-0.5741 0.109375,-0.7031 0.217203,-0.4438 0.444543,-0.8101 0.623047,-0.873 0.327291,-0.1154 0.914718,0.022 1.234375,0.2871 l 0,0 c 0.134313,0.1106 0.244853,0.4551 0.328125,0.8692 0.066,0.328 -0.0037,0.7556 -0.08008,1.248 -0.07637,0.4925 -0.159305,1.066 0.07422,1.6504 0.230955,0.5779 0.661037,1.2827 1.466797,1.4317 0.7515,0.1396 1.359989,-0.3167 1.748046,-0.754 0.469863,-0.5295 0.463651,-1.1706 0.550782,-1.5683 0.183601,-0.8377 0.02731,-1.6813 -0.01367,-2.4043 -0.04029,-0.7109 0.02176,-1.2215 0.373047,-1.5879 0.05814,0 0.176916,0.024 0.324218,0.061 0.301786,0.074 0.739514,0.2506 1.234375,0.01 0.433684,-0.2096 0.665328,-0.5711 0.871094,-0.8809 0.206225,-0.3105 0.345703,-0.5898 0.345703,-0.5898 l -0.892578,-0.4493 z"></path><path style="color:#000000;font-style:normal;font-variant:normal;font-weight:normal;font-stretch:normal;font-size:medium;line-height:normal;font-family:sans-serif;text-indent:0;text-align:start;text-decoration:none;text-decoration-line:none;text-decoration-style:solid;text-decoration-color:#000000;letter-spacing:normal;word-spacing:normal;text-transform:none;direction:ltr;block-progression:tb;writing-mode:lr-tb;baseline-shift:baseline;text-anchor:start;white-space:normal;clip-rule:nonzero;display:inline;overflow:visible;visibility:visible;opacity:1;isolation:auto;mix-blend-mode:normal;color-interpolation:sRGB;color-interpolation-filters:linearRGB;solid-color:#000000;solid-opacity:1;fill:#000000;fill-opacity:1;fill-rule:evenodd;stroke:none;stroke-width:0.5;stroke-linecap:round;stroke-linejoin:round;stroke-miterlimit:4;stroke-dasharray:none;stroke-dashoffset:0;stroke-opacity:1;color-rendering:auto;image-rendering:auto;shape-rendering:auto;text-rendering:auto;enable-background:accumulate" d="m 11.755859,1035.3184 a 0.250025,0.250025 0 0 0 -0.167968,0.082 l -1.1875,1.2812 a 0.25017909,0.25017909 0 0 0 0.367187,0.3399 l 1.1875,-1.2813 a 0.250025,0.250025 0 0 0 -0.199219,-0.4218 z"></path><path style="color:#000000;font-style:normal;font-variant:normal;font-weight:normal;font-stretch:normal;font-size:medium;line-height:normal;font-family:sans-serif;text-indent:0;text-align:start;text-decoration:none;text-decoration-line:none;text-decoration-style:solid;text-decoration-color:#000000;letter-spacing:normal;word-spacing:normal;text-transform:none;direction:ltr;block-progression:tb;writing-mode:lr-tb;baseline-shift:baseline;text-anchor:start;white-space:normal;clip-rule:nonzero;display:inline;overflow:visible;visibility:visible;opacity:1;isolation:auto;mix-blend-mode:normal;color-interpolation:sRGB;color-interpolation-filters:linearRGB;solid-color:#000000;solid-opacity:1;fill:#000000;fill-opacity:1;fill-rule:evenodd;stroke:none;stroke-width:0.5;stroke-linecap:round;stroke-linejoin:round;stroke-miterlimit:4;stroke-dasharray:none;stroke-dashoffset:0;stroke-opacity:1;color-rendering:auto;image-rendering:auto;shape-rendering:auto;text-rendering:auto;enable-background:accumulate" d="m 12.037109,1036.1309 a 0.250025,0.250025 0 0 0 -0.167968,0.084 l -1.71875,1.875 a 0.250025,0.250025 0 1 0 0.367187,0.3379 l 1.71875,-1.875 a 0.250025,0.250025 0 0 0 -0.199219,-0.4218 z"></path><path style="color:#000000;font-style:normal;font-variant:normal;font-weight:normal;font-stretch:normal;font-size:medium;line-height:normal;font-family:sans-serif;text-indent:0;text-align:start;text-decoration:none;text-decoration-line:none;text-decoration-style:solid;text-decoration-color:#000000;letter-spacing:normal;word-spacing:normal;text-transform:none;direction:ltr;block-progression:tb;writing-mode:lr-tb;baseline-shift:baseline;text-anchor:start;white-space:normal;clip-rule:nonzero;display:inline;overflow:visible;visibility:visible;opacity:1;isolation:auto;mix-blend-mode:normal;color-interpolation:sRGB;color-interpolation-filters:linearRGB;solid-color:#000000;solid-opacity:1;fill:#000000;fill-opacity:1;fill-rule:evenodd;stroke:none;stroke-width:0.5;stroke-linecap:round;stroke-linejoin:round;stroke-miterlimit:4;stroke-dasharray:none;stroke-dashoffset:0;stroke-opacity:1;color-rendering:auto;image-rendering:auto;shape-rendering:auto;text-rendering:auto;enable-background:accumulate" d="m 12.386719,1037.1934 a 0.250025,0.250025 0 0 0 -0.169922,0.078 l -2.2187501,2.3125 a 0.250025,0.250025 0 1 0 0.3593751,0.3476 l 2.21875,-2.3125 a 0.250025,0.250025 0 0 0 -0.189453,-0.4257 z"></path><path style="color:#000000;font-style:normal;font-variant:normal;font-weight:normal;font-stretch:normal;font-size:medium;line-height:normal;font-family:sans-serif;text-indent:0;text-align:start;text-decoration:none;text-decoration-line:none;text-decoration-style:solid;text-decoration-color:#000000;letter-spacing:normal;word-spacing:normal;text-transform:none;direction:ltr;block-progression:tb;writing-mode:lr-tb;baseline-shift:baseline;text-anchor:start;white-space:normal;clip-rule:nonzero;display:inline;overflow:visible;visibility:visible;opacity:1;isolation:auto;mix-blend-mode:normal;color-interpolation:sRGB;color-interpolation-filters:linearRGB;solid-color:#000000;solid-opacity:1;fill:#000000;fill-opacity:1;fill-rule:evenodd;stroke:none;stroke-width:0.5;stroke-linecap:round;stroke-linejoin:round;stroke-miterlimit:4;stroke-dasharray:none;stroke-dashoffset:0;stroke-opacity:1;color-rendering:auto;image-rendering:auto;shape-rendering:auto;text-rendering:auto;enable-background:accumulate" d="m 12.574219,1038.1309 a 0.250025,0.250025 0 0 0 -0.169922,0.078 l -2.6875001,2.7812 a 0.250025,0.250025 0 1 0 0.3593751,0.3477 l 2.6875,-2.7813 a 0.250025,0.250025 0 0 0 -0.189453,-0.4257 z"></path><path style="color:#000000;font-style:normal;font-variant:normal;font-weight:normal;font-stretch:normal;font-size:medium;line-height:normal;font-family:sans-serif;text-indent:0;text-align:start;text-decoration:none;text-decoration-line:none;text-decoration-style:solid;text-decoration-color:#000000;letter-spacing:normal;word-spacing:normal;text-transform:none;direction:ltr;block-progression:tb;writing-mode:lr-tb;baseline-shift:baseline;text-anchor:start;white-space:normal;clip-rule:nonzero;display:inline;overflow:visible;visibility:visible;opacity:1;isolation:auto;mix-blend-mode:normal;color-interpolation:sRGB;color-interpolation-filters:linearRGB;solid-color:#000000;solid-opacity:1;fill:#000000;fill-opacity:1;fill-rule:evenodd;stroke:none;stroke-width:0.5;stroke-linecap:round;stroke-linejoin:round;stroke-miterlimit:4;stroke-dasharray:none;stroke-dashoffset:0;stroke-opacity:1;color-rendering:auto;image-rendering:auto;shape-rendering:auto;text-rendering:auto;enable-background:accumulate" d="m 12.859375,1039.1934 a 0.250025,0.250025 0 0 0 -0.171875,0.076 l -2.84375,2.8438 a 0.250025,0.250025 0 1 0 0.353516,0.3535 l 2.84375,-2.8438 a 0.250025,0.250025 0 0 0 -0.181641,-0.4296 z"></path><path style="color:#000000;font-style:normal;font-variant:normal;font-weight:normal;font-stretch:normal;font-size:medium;line-height:normal;font-family:sans-serif;text-indent:0;text-align:start;text-decoration:none;text-decoration-line:none;text-decoration-style:solid;text-decoration-color:#000000;letter-spacing:normal;word-spacing:normal;text-transform:none;direction:ltr;block-progression:tb;writing-mode:lr-tb;baseline-shift:baseline;text-anchor:start;white-space:normal;clip-rule:nonzero;display:inline;overflow:visible;visibility:visible;opacity:1;isolation:auto;mix-blend-mode:normal;color-interpolation:sRGB;color-interpolation-filters:linearRGB;solid-color:#000000;solid-opacity:1;fill:#000000;fill-opacity:1;fill-rule:evenodd;stroke:none;stroke-width:0.5;stroke-linecap:round;stroke-linejoin:round;stroke-miterlimit:4;stroke-dasharray:none;stroke-dashoffset:0;stroke-opacity:1;color-rendering:auto;image-rendering:auto;shape-rendering:auto;text-rendering:auto;enable-background:accumulate" d="m 13.189453,1040.0059 a 0.250025,0.250025 0 0 0 -0.166015,0.086 l -1.875,2.0937 a 0.250025,0.250025 0 1 0 0.371093,0.3321 l 1.875,-2.0938 a 0.250025,0.250025 0 0 0 -0.205078,-0.4179 z"></path><path style="color:#000000;font-style:normal;font-variant:normal;font-weight:normal;font-stretch:normal;font-size:medium;line-height:normal;font-family:sans-serif;text-indent:0;text-align:start;text-decoration:none;text-decoration-line:none;text-decoration-style:solid;text-decoration-color:#000000;letter-spacing:normal;word-spacing:normal;text-transform:none;direction:ltr;block-progression:tb;writing-mode:lr-tb;baseline-shift:baseline;text-anchor:start;white-space:normal;clip-rule:nonzero;display:inline;overflow:visible;visibility:visible;opacity:1;isolation:auto;mix-blend-mode:normal;color-interpolation:sRGB;color-interpolation-filters:linearRGB;solid-color:#000000;solid-opacity:1;fill:#000000;fill-opacity:1;fill-rule:evenodd;stroke:none;stroke-width:0.5;stroke-linecap:round;stroke-linejoin:round;stroke-miterlimit:4;stroke-dasharray:none;stroke-dashoffset:0;stroke-opacity:1;color-rendering:auto;image-rendering:auto;shape-rendering:auto;text-rendering:auto;enable-background:accumulate" d="m 13.779297,1040.7246 a 0.250025,0.250025 0 0 0 -0.166016,0.088 l -1.1875,1.375 a 0.25060932,0.25060932 0 0 0 0.378907,0.3281 l 1.1875,-1.375 a 0.250025,0.250025 0 0 0 -0.212891,-0.416 z"></path></g></svg>