<svg xmlns:dc="http://purl.org/dc/elements/1.1/" xmlns:cc="http://creativecommons.org/ns#" xmlns:rdf="http://www.w3.org/1999/02/22-rdf-syntax-ns#" xmlns:svg="http://www.w3.org/2000/svg" xmlns="http://www.w3.org/2000/svg" xmlns:sodipodi="http://sodipodi.sourceforge.net/DTD/sodipodi-0.dtd" xmlns:inkscape="http://www.inkscape.org/namespaces/inkscape" viewBox="0 0 32 32.000001" version="1.1" x="0px" y="0px"><g transform="translate(0,-1020.3622)"><path style="color:#000000;font-style:normal;font-variant:normal;font-weight:normal;font-stretch:normal;font-size:medium;line-height:normal;font-family:sans-serif;text-indent:0;text-align:start;text-decoration:none;text-decoration-line:none;text-decoration-style:solid;text-decoration-color:#000000;letter-spacing:normal;word-spacing:normal;text-transform:none;direction:ltr;block-progression:tb;writing-mode:lr-tb;baseline-shift:baseline;text-anchor:start;white-space:normal;clip-rule:nonzero;display:inline;overflow:visible;visibility:visible;opacity:1;isolation:auto;mix-blend-mode:normal;color-interpolation:sRGB;color-interpolation-filters:linearRGB;solid-color:#000000;solid-opacity:1;fill:#000000;fill-opacity:1;fill-rule:evenodd;stroke:none;stroke-width:1px;stroke-linecap:round;stroke-linejoin:round;stroke-miterlimit:4;stroke-dasharray:none;stroke-dashoffset:0;stroke-opacity:1;color-rendering:auto;image-rendering:auto;shape-rendering:auto;text-rendering:auto;enable-background:accumulate" d="m 10.898438,1022.8164 a 0.50005,0.50005 0 0 0 -0.410157,0.2285 c 0,0 -2.6951199,4.1311 -3.5527341,6.6074 -0.8870581,2.5612 -1.4465333,5.3088 -1.4023438,8.0469 0.033664,2.0886 0.6509442,5.0213 1.2558594,7.4668 0.6049152,2.4455 1.203125,4.3906 1.203125,4.3906 A 0.50005,0.50005 0 0 0 8.5,1049.9082 l 4.21875,-0.25 a 0.50005,0.50005 0 0 0 0.443359,-0.3379 l 1.34375,-3.9687 a 0.50005,0.50005 0 0 0 0.01172,-0.039 c 0,0 1.145644,-4.4709 1.203125,-6.9238 0.06022,-2.5498 -0.275093,-5.1279 -0.957031,-7.5821 -0.78306,-2.8178 -3.414063,-7.7265 -3.414063,-7.7265 a 0.50005,0.50005 0 0 0 -0.451171,-0.2637 z m -0.0332,1.5332 c 0.562426,1.0873 2.330493,4.5473 2.935547,6.7246 0.656062,2.3611 0.977703,4.8446 0.919922,7.291 -0.05044,2.1527 -1.168601,6.6801 -1.171875,6.6934 l -1.226562,3.6211 -3.478516,0.207 c -0.089217,-0.2938 -0.5379513,-1.7535 -1.0839844,-3.9609 -0.5977597,-2.4166 -1.1959261,-5.3434 -1.2265625,-7.2442 -0.04181,-2.5907 0.4885612,-5.2283 1.3457031,-7.7031 0.6321852,-1.8254 2.3606228,-4.6279 2.9863278,-5.6289 z"></path><path style="color:#000000;font-style:normal;font-variant:normal;font-weight:normal;font-stretch:normal;font-size:medium;line-height:normal;font-family:sans-serif;text-indent:0;text-align:start;text-decoration:none;text-decoration-line:none;text-decoration-style:solid;text-decoration-color:#000000;letter-spacing:normal;word-spacing:normal;text-transform:none;direction:ltr;block-progression:tb;writing-mode:lr-tb;baseline-shift:baseline;text-anchor:start;white-space:normal;clip-rule:nonzero;display:inline;overflow:visible;visibility:visible;opacity:1;isolation:auto;mix-blend-mode:normal;color-interpolation:sRGB;color-interpolation-filters:linearRGB;solid-color:#000000;solid-opacity:1;fill:#000000;fill-opacity:1;fill-rule:evenodd;stroke:none;stroke-width:1px;stroke-linecap:butt;stroke-linejoin:miter;stroke-miterlimit:4;stroke-dasharray:none;stroke-dashoffset:0;stroke-opacity:1;color-rendering:auto;image-rendering:auto;shape-rendering:auto;text-rendering:auto;enable-background:accumulate" d="m 10.345703,1023.8125 -0.125,25.625 1,0.01 0.125,-25.625 -1,-0.01 z"></path><path style="color:#000000;font-style:normal;font-variant:normal;font-weight:normal;font-stretch:normal;font-size:medium;line-height:normal;font-family:sans-serif;text-indent:0;text-align:start;text-decoration:none;text-decoration-line:none;text-decoration-style:solid;text-decoration-color:#000000;letter-spacing:normal;word-spacing:normal;text-transform:none;direction:ltr;block-progression:tb;writing-mode:lr-tb;baseline-shift:baseline;text-anchor:start;white-space:normal;clip-rule:nonzero;display:inline;overflow:visible;visibility:visible;opacity:1;isolation:auto;mix-blend-mode:normal;color-interpolation:sRGB;color-interpolation-filters:linearRGB;solid-color:#000000;solid-opacity:1;fill:#000000;fill-opacity:1;fill-rule:evenodd;stroke:none;stroke-width:1px;stroke-linecap:round;stroke-linejoin:round;stroke-miterlimit:4;stroke-dasharray:none;stroke-dashoffset:0;stroke-opacity:1;color-rendering:auto;image-rendering:auto;shape-rendering:auto;text-rendering:auto;enable-background:accumulate" d="m 25.96875,1024.627 a 0.50005,0.50005 0 0 0 -0.261719,0.074 c 0,0 -3.363358,2.061 -4.939453,3.4238 -1.609969,1.3921 -3.179368,2.9198 -4.398437,4.7227 -0.766964,1.1342 -1.601563,3.4003 -1.601563,3.4003 a 0.50007028,0.50007028 0 1 0 0.935547,0.3536 c 0,0 0.901104,-2.3164 1.494141,-3.1934 1.14233,-1.6894 2.645578,-3.162 4.224609,-4.5273 1.171252,-1.0128 3.149927,-2.2322 3.984375,-2.7579 -0.03296,1.1258 -0.155968,5.9468 -0.556641,8.8106 -0.162645,1.1625 -0.323757,2.3072 -0.720703,3.3262 -0.921059,2.3644 -2.330289,4.5614 -3.873047,6.6308 -0.960729,1.2887 -3.162021,3.4011 -3.460937,3.6895 l -3.105469,-1.5254 A 0.50005,0.50005 0 1 0 13.25,1047.9512 l 3.4375,1.6875 a 0.50005,0.50005 0 0 0 0.564453,-0.086 c 0,0 2.647127,-2.5091 3.806641,-4.0644 1.571043,-2.1074 3.032012,-4.3773 4.001953,-6.8672 0.454454,-1.1666 0.616942,-2.3884 0.779297,-3.5488 0.467493,-3.3414 0.630859,-9.9317 0.630859,-9.9317 a 0.50005,0.50005 0 0 0 -0.501953,-0.5136 z"></path><path style="color:#000000;font-style:normal;font-variant:normal;font-weight:normal;font-stretch:normal;font-size:medium;line-height:normal;font-family:sans-serif;text-indent:0;text-align:start;text-decoration:none;text-decoration-line:none;text-decoration-style:solid;text-decoration-color:#000000;letter-spacing:normal;word-spacing:normal;text-transform:none;direction:ltr;block-progression:tb;writing-mode:lr-tb;baseline-shift:baseline;text-anchor:start;white-space:normal;clip-rule:nonzero;display:inline;overflow:visible;visibility:visible;opacity:1;isolation:auto;mix-blend-mode:normal;color-interpolation:sRGB;color-interpolation-filters:linearRGB;solid-color:#000000;solid-opacity:1;fill:#000000;fill-opacity:1;fill-rule:evenodd;stroke:none;stroke-width:1px;stroke-linecap:butt;stroke-linejoin:round;stroke-miterlimit:4;stroke-dasharray:none;stroke-dashoffset:0;stroke-opacity:1;color-rendering:auto;image-rendering:auto;shape-rendering:auto;text-rendering:auto;enable-background:accumulate" d="m 21.728516,1033.4395 a 0.50005,0.50005 0 0 0 -0.02734,0 l -5.546875,0.2031 0.03711,0.9981 5.289063,-0.1934 2.904297,3.7949 0.794922,-0.6074 -3.0625,-4 a 0.50005,0.50005 0 0 0 -0.388672,-0.1972 z"></path><path style="color:#000000;font-style:normal;font-variant:normal;font-weight:normal;font-stretch:normal;font-size:medium;line-height:normal;font-family:sans-serif;text-indent:0;text-align:start;text-decoration:none;text-decoration-line:none;text-decoration-style:solid;text-decoration-color:#000000;letter-spacing:normal;word-spacing:normal;text-transform:none;direction:ltr;block-progression:tb;writing-mode:lr-tb;baseline-shift:baseline;text-anchor:start;white-space:normal;clip-rule:nonzero;display:inline;overflow:visible;visibility:visible;opacity:1;isolation:auto;mix-blend-mode:normal;color-interpolation:sRGB;color-interpolation-filters:linearRGB;solid-color:#000000;solid-opacity:1;fill:#000000;fill-opacity:1;fill-rule:evenodd;stroke:none;stroke-width:1px;stroke-linecap:butt;stroke-linejoin:round;stroke-miterlimit:4;stroke-dasharray:none;stroke-dashoffset:0;stroke-opacity:1;color-rendering:auto;image-rendering:auto;shape-rendering:auto;text-rendering:auto;enable-background:accumulate" d="m 18.296875,1030.6758 -0.0293,0.998 4.748047,0.1328 1.980469,2.8555 0.822265,-0.5703 -2.125,-3.0625 a 0.50005,0.50005 0 0 0 -0.396484,-0.2148 l -5,-0.1387 z"></path><path style="color:#000000;font-style:normal;font-variant:normal;font-weight:normal;font-stretch:normal;font-size:medium;line-height:normal;font-family:sans-serif;text-indent:0;text-align:start;text-decoration:none;text-decoration-line:none;text-decoration-style:solid;text-decoration-color:#000000;letter-spacing:normal;word-spacing:normal;text-transform:none;direction:ltr;block-progression:tb;writing-mode:lr-tb;baseline-shift:baseline;text-anchor:start;white-space:normal;clip-rule:nonzero;display:inline;overflow:visible;visibility:visible;opacity:1;isolation:auto;mix-blend-mode:normal;color-interpolation:sRGB;color-interpolation-filters:linearRGB;solid-color:#000000;solid-opacity:1;fill:#000000;fill-opacity:1;fill-rule:evenodd;stroke:none;stroke-width:0.5;stroke-linecap:round;stroke-linejoin:round;stroke-miterlimit:4;stroke-dasharray:none;stroke-dashoffset:0;stroke-opacity:1;color-rendering:auto;image-rendering:auto;shape-rendering:auto;text-rendering:auto;enable-background:accumulate" d="m 9.3105469,1029.8984 a 0.250025,0.250025 0 0 0 -0.1855469,0.1 l -3.1367188,4.0665 a 0.250025,0.250025 0 1 0 0.3945313,0.3066 l 3.1386719,-4.0664 a 0.250025,0.250025 0 0 0 -0.2109375,-0.4063 z"></path><path style="color:#000000;font-style:normal;font-variant:normal;font-weight:normal;font-stretch:normal;font-size:medium;line-height:normal;font-family:sans-serif;text-indent:0;text-align:start;text-decoration:none;text-decoration-line:none;text-decoration-style:solid;text-decoration-color:#000000;letter-spacing:normal;word-spacing:normal;text-transform:none;direction:ltr;block-progression:tb;writing-mode:lr-tb;baseline-shift:baseline;text-anchor:start;white-space:normal;clip-rule:nonzero;display:inline;overflow:visible;visibility:visible;opacity:1;isolation:auto;mix-blend-mode:normal;color-interpolation:sRGB;color-interpolation-filters:linearRGB;solid-color:#000000;solid-opacity:1;fill:#000000;fill-opacity:1;fill-rule:evenodd;stroke:none;stroke-width:0.5;stroke-linecap:round;stroke-linejoin:round;stroke-miterlimit:4;stroke-dasharray:none;stroke-dashoffset:0;stroke-opacity:1;color-rendering:auto;image-rendering:auto;shape-rendering:auto;text-rendering:auto;enable-background:accumulate" d="m 9.3203125,1032.1973 a 0.250025,0.250025 0 0 0 -0.1894531,0.092 l -3.09375,3.7129 a 0.25031813,0.25031813 0 1 0 0.3847656,0.3203 l 3.09375,-3.7129 a 0.250025,0.250025 0 0 0 -0.1953125,-0.4121 z"></path><path style="color:#000000;font-style:normal;font-variant:normal;font-weight:normal;font-stretch:normal;font-size:medium;line-height:normal;font-family:sans-serif;text-indent:0;text-align:start;text-decoration:none;text-decoration-line:none;text-decoration-style:solid;text-decoration-color:#000000;letter-spacing:normal;word-spacing:normal;text-transform:none;direction:ltr;block-progression:tb;writing-mode:lr-tb;baseline-shift:baseline;text-anchor:start;white-space:normal;clip-rule:nonzero;display:inline;overflow:visible;visibility:visible;opacity:1;isolation:auto;mix-blend-mode:normal;color-interpolation:sRGB;color-interpolation-filters:linearRGB;solid-color:#000000;solid-opacity:1;fill:#000000;fill-opacity:1;fill-rule:evenodd;stroke:none;stroke-width:0.5;stroke-linecap:round;stroke-linejoin:round;stroke-miterlimit:4;stroke-dasharray:none;stroke-dashoffset:0;stroke-opacity:1;color-rendering:auto;image-rendering:auto;shape-rendering:auto;text-rendering:auto;enable-background:accumulate" d="m 9.1367188,1034.8496 a 0.250025,0.250025 0 0 0 -0.1855469,0.098 L 5.8125,1038.9238 a 0.25029479,0.25029479 0 0 0 0.3925781,0.3106 l 3.1386719,-3.9785 a 0.250025,0.250025 0 0 0 -0.2070312,-0.4063 z"></path><path style="color:#000000;font-style:normal;font-variant:normal;font-weight:normal;font-stretch:normal;font-size:medium;line-height:normal;font-family:sans-serif;text-indent:0;text-align:start;text-decoration:none;text-decoration-line:none;text-decoration-style:solid;text-decoration-color:#000000;letter-spacing:normal;word-spacing:normal;text-transform:none;direction:ltr;block-progression:tb;writing-mode:lr-tb;baseline-shift:baseline;text-anchor:start;white-space:normal;clip-rule:nonzero;display:inline;overflow:visible;visibility:visible;opacity:1;isolation:auto;mix-blend-mode:normal;color-interpolation:sRGB;color-interpolation-filters:linearRGB;solid-color:#000000;solid-opacity:1;fill:#000000;fill-opacity:1;fill-rule:evenodd;stroke:none;stroke-width:0.5;stroke-linecap:round;stroke-linejoin:round;stroke-miterlimit:4;stroke-dasharray:none;stroke-dashoffset:0;stroke-opacity:1;color-rendering:auto;image-rendering:auto;shape-rendering:auto;text-rendering:auto;enable-background:accumulate" d="m 9.2695312,1037.1035 a 0.250025,0.250025 0 0 0 -0.1875,0.098 l -2.6503906,3.3574 a 0.25026381,0.25026381 0 1 0 0.3925782,0.3105 l 2.6503906,-3.3593 a 0.250025,0.250025 0 0 0 -0.2050782,-0.4063 z"></path><path style="color:#000000;font-style:normal;font-variant:normal;font-weight:normal;font-stretch:normal;font-size:medium;line-height:normal;font-family:sans-serif;text-indent:0;text-align:start;text-decoration:none;text-decoration-line:none;text-decoration-style:solid;text-decoration-color:#000000;letter-spacing:normal;word-spacing:normal;text-transform:none;direction:ltr;block-progression:tb;writing-mode:lr-tb;baseline-shift:baseline;text-anchor:start;white-space:normal;clip-rule:nonzero;display:inline;overflow:visible;visibility:visible;opacity:1;isolation:auto;mix-blend-mode:normal;color-interpolation:sRGB;color-interpolation-filters:linearRGB;solid-color:#000000;solid-opacity:1;fill:#000000;fill-opacity:1;fill-rule:evenodd;stroke:none;stroke-width:0.5;stroke-linecap:round;stroke-linejoin:round;stroke-miterlimit:4;stroke-dasharray:none;stroke-dashoffset:0;stroke-opacity:1;color-rendering:auto;image-rendering:auto;shape-rendering:auto;text-rendering:auto;enable-background:accumulate" d="M 9.1894531,1039.8418 A 0.250025,0.250025 0 0 0 9,1039.9336 l -2.4316406,2.873 a 0.25021126,0.25021126 0 0 0 0.3828125,0.3223 l 2.4296875,-2.873 a 0.250025,0.250025 0 0 0 -0.1914063,-0.4141 z"></path><path style="color:#000000;font-style:normal;font-variant:normal;font-weight:normal;font-stretch:normal;font-size:medium;line-height:normal;font-family:sans-serif;text-indent:0;text-align:start;text-decoration:none;text-decoration-line:none;text-decoration-style:solid;text-decoration-color:#000000;letter-spacing:normal;word-spacing:normal;text-transform:none;direction:ltr;block-progression:tb;writing-mode:lr-tb;baseline-shift:baseline;text-anchor:start;white-space:normal;clip-rule:nonzero;display:inline;overflow:visible;visibility:visible;opacity:1;isolation:auto;mix-blend-mode:normal;color-interpolation:sRGB;color-interpolation-filters:linearRGB;solid-color:#000000;solid-opacity:1;fill:#000000;fill-opacity:1;fill-rule:evenodd;stroke:none;stroke-width:0.5;stroke-linecap:round;stroke-linejoin:round;stroke-miterlimit:4;stroke-dasharray:none;stroke-dashoffset:0;stroke-opacity:1;color-rendering:auto;image-rendering:auto;shape-rendering:auto;text-rendering:auto;enable-background:accumulate" d="m 9.2773438,1042.4941 a 0.250025,0.250025 0 0 0 -0.1738282,0.074 l -1.9433594,1.9004 a 0.250025,0.250025 0 1 0 0.3496094,0.3574 l 1.9433594,-1.9004 a 0.250025,0.250025 0 0 0 -0.1757812,-0.4317 z"></path></g></svg>