<svg xmlns:dc="http://purl.org/dc/elements/1.1/" xmlns:cc="http://creativecommons.org/ns#" xmlns:rdf="http://www.w3.org/1999/02/22-rdf-syntax-ns#" xmlns:svg="http://www.w3.org/2000/svg" xmlns="http://www.w3.org/2000/svg" xmlns:sodipodi="http://sodipodi.sourceforge.net/DTD/sodipodi-0.dtd" xmlns:inkscape="http://www.inkscape.org/namespaces/inkscape" viewBox="0 0 32 32.000001" version="1.1" x="0px" y="0px"><g transform="translate(0,-1020.3622)"><path style="color:#000000;font-style:normal;font-variant:normal;font-weight:normal;font-stretch:normal;font-size:medium;line-height:normal;font-family:sans-serif;text-indent:0;text-align:start;text-decoration:none;text-decoration-line:none;text-decoration-style:solid;text-decoration-color:#000000;letter-spacing:normal;word-spacing:normal;text-transform:none;direction:ltr;block-progression:tb;writing-mode:lr-tb;baseline-shift:baseline;text-anchor:start;white-space:normal;clip-rule:nonzero;display:inline;overflow:visible;visibility:visible;opacity:1;isolation:auto;mix-blend-mode:normal;color-interpolation:sRGB;color-interpolation-filters:linearRGB;solid-color:#000000;solid-opacity:1;fill:#000000;fill-opacity:1;fill-rule:evenodd;stroke:none;stroke-width:1px;stroke-linecap:butt;stroke-linejoin:miter;stroke-miterlimit:4;stroke-dasharray:none;stroke-dashoffset:0;stroke-opacity:1;color-rendering:auto;image-rendering:auto;shape-rendering:auto;text-rendering:auto;enable-background:accumulate" d="m 15.941406,1028.1582 c -1.380307,-0.015 -2.762405,0.082 -4.11914,0.3086 -1.638927,0.2731 -3.3914286,0.6954 -4.8320316,1.709 -1.1499747,0.8092 -1.9793071,1.9909 -2.59375,3.1797 -0.6349482,1.2284 -1.0564496,2.6153 -1.1171875,4.0195 -0.086652,1.9876 0.1784773,4.1149 1.1171875,5.9375 1.4678081,2.8499 3.7576029,5.5953 6.7343746,6.9746 2.225392,1.0312 4.881565,1.0149 7.199219,0.4707 2.766207,-0.6495 5.488393,-2.1305 7.386719,-4.2812 1.647218,-1.8663 2.506956,-4.3639 2.869141,-6.7559 0.29289,-1.9344 0.190646,-4.0476 -0.597657,-5.8945 -0.638196,-1.4952 -1.798318,-2.7641 -3.117187,-3.6563 -1.453376,-0.983 -3.197804,-1.3672 -4.822266,-1.6406 -1.349704,-0.2272 -2.727115,-0.3558 -4.107422,-0.3711 z m -0.01172,1 c 1.325617,0.015 2.652529,0.1385 3.953124,0.3574 1.584939,0.2668 3.185311,0.6421 4.427735,1.4824 1.177931,0.7969 2.212609,1.9435 2.757812,3.2208 0.691098,1.6192 0.800607,3.5616 0.529297,5.3535 -0.342215,2.2601 -1.164477,4.5827 -2.630859,6.2441 -1.733674,1.9642 -4.288042,3.3636 -6.865235,3.9688 -2.153345,0.5056 -4.609172,0.4953 -6.550781,-0.4043 -2.6914277,-1.2471 -4.8730329,-3.8216 -6.2656248,-6.5254 -0.8274898,-1.6067 -1.0872076,-3.5716 -1.0058593,-5.4375 0.053262,-1.2314 0.4294075,-2.4883 1.0058593,-3.6035 0.5687571,-1.1005 1.3238247,-2.1466 2.28125,-2.8204 1.232197,-0.8669 2.8352478,-1.2769 4.4199218,-1.541 1.294265,-0.2156 2.617742,-0.3095 3.94336,-0.2949 z"></path><path style="color:#000000;font-style:normal;font-variant:normal;font-weight:normal;font-stretch:normal;font-size:medium;line-height:normal;font-family:sans-serif;text-indent:0;text-align:start;text-decoration:none;text-decoration-line:none;text-decoration-style:solid;text-decoration-color:#000000;letter-spacing:normal;word-spacing:normal;text-transform:none;direction:ltr;block-progression:tb;writing-mode:lr-tb;baseline-shift:baseline;text-anchor:start;white-space:normal;clip-rule:nonzero;display:inline;overflow:visible;visibility:visible;opacity:1;isolation:auto;mix-blend-mode:normal;color-interpolation:sRGB;color-interpolation-filters:linearRGB;solid-color:#000000;solid-opacity:1;fill:#000000;fill-opacity:1;fill-rule:evenodd;stroke:none;stroke-width:1px;stroke-linecap:round;stroke-linejoin:round;stroke-miterlimit:4;stroke-dasharray:none;stroke-dashoffset:0;stroke-opacity:1;color-rendering:auto;image-rendering:auto;shape-rendering:auto;text-rendering:auto;enable-background:accumulate" d="m 4.9316406,1033.1426 a 0.50005,0.50005 0 0 0 -0.2988281,0.8769 c 0,0 0.468242,0.4183 1.078125,0.8907 0.609883,0.4723 1.3431155,1.0039 2.0097656,1.2656 2.8243349,1.1085 5.9326029,1.2473 8.8749999,1.2207 6.224761,-0.056 11.039063,-2.6719 11.039063,-2.6719 a 0.50005,0.50005 0 1 0 -0.476563,-0.8789 c 0,0 -4.622826,2.497 -10.572265,2.5508 -2.902803,0.026 -5.882936,-0.1252 -8.5000005,-1.1524 -0.4470499,-0.1754 -1.1812768,-0.6754 -1.7617187,-1.125 -0.580442,-0.4495 -1.0253907,-0.8457 -1.0253907,-0.8457 a 0.50005,0.50005 0 0 0 -0.3671875,-0.1308 z"></path><path style="color:#000000;font-style:normal;font-variant:normal;font-weight:normal;font-stretch:normal;font-size:medium;line-height:normal;font-family:sans-serif;text-indent:0;text-align:start;text-decoration:none;text-decoration-line:none;text-decoration-style:solid;text-decoration-color:#000000;letter-spacing:normal;word-spacing:normal;text-transform:none;direction:ltr;block-progression:tb;writing-mode:lr-tb;baseline-shift:baseline;text-anchor:start;white-space:normal;clip-rule:nonzero;display:inline;overflow:visible;visibility:visible;opacity:1;isolation:auto;mix-blend-mode:normal;color-interpolation:sRGB;color-interpolation-filters:linearRGB;solid-color:#000000;solid-opacity:1;fill:#000000;fill-opacity:1;fill-rule:evenodd;stroke:none;stroke-width:1px;stroke-linecap:round;stroke-linejoin:round;stroke-miterlimit:4;stroke-dasharray:none;stroke-dashoffset:0;stroke-opacity:1;color-rendering:auto;image-rendering:auto;shape-rendering:auto;text-rendering:auto;enable-background:accumulate" d="m 27.951172,1036.7051 a 0.50005,0.50005 0 0 0 -0.341797,0.1543 c 0,0 -0.225452,0.2289 -0.519531,0.498 -0.294079,0.2692 -0.670579,0.5807 -0.876953,0.6992 -1.21703,0.6991 -2.615554,1.1378 -4.029297,1.4122 -1.207948,0.2346 -4.015625,0.1777 -4.015625,0.1777 a 0.50018689,0.50018689 0 1 0 -0.02734,1 c 0,0 2.739922,0.095 4.234375,-0.1953 1.488057,-0.2888 2.989767,-0.7541 4.335938,-1.5274 a 0.50005,0.50005 0 0 0 0,-0 c 0.364426,-0.2094 0.739266,-0.5375 1.054687,-0.8262 0.315421,-0.2887 0.556641,-0.5352 0.556641,-0.5352 a 0.50005,0.50005 0 0 0 -0.371094,-0.8554 z"></path><path style="color:#000000;font-style:normal;font-variant:normal;font-weight:normal;font-stretch:normal;font-size:medium;line-height:normal;font-family:sans-serif;text-indent:0;text-align:start;text-decoration:none;text-decoration-line:none;text-decoration-style:solid;text-decoration-color:#000000;letter-spacing:normal;word-spacing:normal;text-transform:none;direction:ltr;block-progression:tb;writing-mode:lr-tb;baseline-shift:baseline;text-anchor:start;white-space:normal;clip-rule:nonzero;display:inline;overflow:visible;visibility:visible;opacity:1;isolation:auto;mix-blend-mode:normal;color-interpolation:sRGB;color-interpolation-filters:linearRGB;solid-color:#000000;solid-opacity:1;fill:#000000;fill-opacity:1;fill-rule:evenodd;stroke:none;stroke-width:1px;stroke-linecap:round;stroke-linejoin:round;stroke-miterlimit:4;stroke-dasharray:none;stroke-dashoffset:0;stroke-opacity:1;color-rendering:auto;image-rendering:auto;shape-rendering:auto;text-rendering:auto;enable-background:accumulate" d="m 27.544922,1041.0293 a 0.50005,0.50005 0 0 0 -0.22461,0.061 c 0,0 -2.610197,1.3407 -3.867187,1.7012 -0.842506,0.2416 -2.900391,0.4199 -2.900391,0.4199 a 0.50057645,0.50057645 0 0 0 0.07813,0.9981 c 0,0 1.997363,-0.1415 3.097657,-0.457 1.514809,-0.4345 4.054687,-1.7754 4.054687,-1.7754 a 0.50005,0.50005 0 0 0 -0.238281,-0.9473 z"></path><path style="color:#000000;font-style:normal;font-variant:normal;font-weight:normal;font-stretch:normal;font-size:medium;line-height:normal;font-family:sans-serif;text-indent:0;text-align:start;text-decoration:none;text-decoration-line:none;text-decoration-style:solid;text-decoration-color:#000000;letter-spacing:normal;word-spacing:normal;text-transform:none;direction:ltr;block-progression:tb;writing-mode:lr-tb;baseline-shift:baseline;text-anchor:start;white-space:normal;clip-rule:nonzero;display:inline;overflow:visible;visibility:visible;opacity:1;isolation:auto;mix-blend-mode:normal;color-interpolation:sRGB;color-interpolation-filters:linearRGB;solid-color:#000000;solid-opacity:1;fill:#000000;fill-opacity:1;fill-rule:evenodd;stroke:none;stroke-width:1px;stroke-linecap:round;stroke-linejoin:round;stroke-miterlimit:4;stroke-dasharray:none;stroke-dashoffset:0;stroke-opacity:1;color-rendering:auto;image-rendering:auto;shape-rendering:auto;text-rendering:auto;enable-background:accumulate" d="m 16.210938,1030.3027 c -0.919029,0.01 -2.094885,0.029 -3.214844,0.1133 -1.120639,0.084 -2.171297,0.2193 -2.929688,0.5156 -1.4449483,0.5648 -2.144531,1.6309 -2.144531,1.6309 a 0.50005,0.50005 0 0 0 0.1523438,0.6953 c 0,0 2.2510362,1.4428 4.3203122,1.8789 2.029488,0.4279 5.372458,0.4451 7.419922,0.031 2.088859,-0.4222 4.414063,-1.877 4.414063,-1.877 a 0.50005,0.50005 0 0 0 0.05859,-0.8086 c 0,0 -1.474453,-1.2786 -2.949218,-1.75 -1.433102,-0.458 -3.291334,-0.4458 -5.125,-0.4297 l -0.002,0 z m 0.0098,1 c 1.826691,-0.016 3.635317,0.01 4.8125,0.3828 0.838802,0.2681 1.449278,0.7937 1.927735,1.1543 -0.759217,0.419 -2.045304,1.0853 -3.34375,1.3477 -1.820736,0.368 -5.211713,0.351 -7.015626,-0.029 -1.351158,-0.2848 -2.6828876,-1.0092 -3.3691401,-1.4023 0.2151049,-0.2564 0.3665105,-0.5679 1.1972661,-0.8926 0.543309,-0.2123 1.559963,-0.3679 2.640624,-0.4492 1.080662,-0.081 2.239166,-0.1034 3.150391,-0.1114 z"></path><path style="color:#000000;font-style:normal;font-variant:normal;font-weight:normal;font-stretch:normal;font-size:medium;line-height:normal;font-family:sans-serif;text-indent:0;text-align:start;text-decoration:none;text-decoration-line:none;text-decoration-style:solid;text-decoration-color:#000000;letter-spacing:normal;word-spacing:normal;text-transform:none;direction:ltr;block-progression:tb;writing-mode:lr-tb;baseline-shift:baseline;text-anchor:start;white-space:normal;clip-rule:nonzero;display:inline;overflow:visible;visibility:visible;opacity:1;isolation:auto;mix-blend-mode:normal;color-interpolation:sRGB;color-interpolation-filters:linearRGB;solid-color:#000000;solid-opacity:1;fill:#000000;fill-opacity:1;fill-rule:evenodd;stroke:none;stroke-width:1px;stroke-linecap:butt;stroke-linejoin:miter;stroke-miterlimit:4;stroke-dasharray:none;stroke-dashoffset:0;stroke-opacity:1;color-rendering:auto;image-rendering:auto;shape-rendering:auto;text-rendering:auto;enable-background:accumulate" d="m 11.443359,1026.0312 -0.955078,0.295 2.59375,8.4375 0.955078,-0.2949 -2.59375,-8.4376 z"></path><path style="color:#000000;font-style:normal;font-variant:normal;font-weight:normal;font-stretch:normal;font-size:medium;line-height:normal;font-family:sans-serif;text-indent:0;text-align:start;text-decoration:none;text-decoration-line:none;text-decoration-style:solid;text-decoration-color:#000000;letter-spacing:normal;word-spacing:normal;text-transform:none;direction:ltr;block-progression:tb;writing-mode:lr-tb;baseline-shift:baseline;text-anchor:start;white-space:normal;clip-rule:nonzero;display:inline;overflow:visible;visibility:visible;opacity:1;isolation:auto;mix-blend-mode:normal;color-interpolation:sRGB;color-interpolation-filters:linearRGB;solid-color:#000000;solid-opacity:1;fill:#000000;fill-opacity:1;fill-rule:evenodd;stroke:none;stroke-width:1px;stroke-linecap:round;stroke-linejoin:round;stroke-miterlimit:4;stroke-dasharray:none;stroke-dashoffset:0;stroke-opacity:1;color-rendering:auto;image-rendering:auto;shape-rendering:auto;text-rendering:auto;enable-background:accumulate" d="m 24.802734,1023.6445 a 0.50005,0.50005 0 0 0 -0.179687,0.039 l -4.25,1.7187 a 0.50005,0.50005 0 0 0 -0.304688,0.3789 l -1.533203,8.8438 a 0.50042705,0.50042705 0 0 0 0.986328,0.1699 l 1.484375,-8.5703 3.992188,-1.6133 a 0.50005,0.50005 0 0 0 -0.195313,-0.9668 z"></path><path style="color:#000000;font-style:normal;font-variant:normal;font-weight:normal;font-stretch:normal;font-size:medium;line-height:normal;font-family:sans-serif;text-indent:0;text-align:start;text-decoration:none;text-decoration-line:none;text-decoration-style:solid;text-decoration-color:#000000;letter-spacing:normal;word-spacing:normal;text-transform:none;direction:ltr;block-progression:tb;writing-mode:lr-tb;baseline-shift:baseline;text-anchor:start;white-space:normal;clip-rule:nonzero;display:inline;overflow:visible;visibility:visible;opacity:1;isolation:auto;mix-blend-mode:normal;color-interpolation:sRGB;color-interpolation-filters:linearRGB;solid-color:#000000;solid-opacity:1;fill:#000000;fill-opacity:1;fill-rule:evenodd;stroke:none;stroke-width:1px;stroke-linecap:round;stroke-linejoin:round;stroke-miterlimit:4;stroke-dasharray:none;stroke-dashoffset:0;stroke-opacity:1;color-rendering:auto;image-rendering:auto;shape-rendering:auto;text-rendering:auto;enable-background:accumulate" d="m 10.355469,1022.8965 a 0.50005,0.50005 0 0 0 -0.3671878,0.1816 l -3.21875,3.875 a 0.50005,0.50005 0 0 0 0.5097657,0.8028 l 7.9687501,-2.0625 a 0.50005,0.50005 0 0 0 0.05273,-0.9512 l -4.75,-1.8125 a 0.50005,0.50005 0 0 0 -0.195312,-0.033 z m 0.173828,1.0937 2.951172,1.127 -4.9511721,1.2812 2.0000001,-2.4082 z"></path><path style="color:#000000;font-style:normal;font-variant:normal;font-weight:normal;font-stretch:normal;font-size:medium;line-height:normal;font-family:sans-serif;text-indent:0;text-align:start;text-decoration:none;text-decoration-line:none;text-decoration-style:solid;text-decoration-color:#000000;letter-spacing:normal;word-spacing:normal;text-transform:none;direction:ltr;block-progression:tb;writing-mode:lr-tb;baseline-shift:baseline;text-anchor:start;white-space:normal;clip-rule:nonzero;display:inline;overflow:visible;visibility:visible;opacity:1;isolation:auto;mix-blend-mode:normal;color-interpolation:sRGB;color-interpolation-filters:linearRGB;solid-color:#000000;solid-opacity:1;fill:#000000;fill-opacity:1;fill-rule:evenodd;stroke:none;stroke-width:1px;stroke-linecap:round;stroke-linejoin:round;stroke-miterlimit:4;stroke-dasharray:none;stroke-dashoffset:0;stroke-opacity:1;color-rendering:auto;image-rendering:auto;shape-rendering:auto;text-rendering:auto;enable-background:accumulate" d="m 9.9746094,1021.5977 a 0.50005,0.50005 0 0 0 -0.4511719,0.6679 l 0.40625,1.1992 a 0.50005,0.50005 0 1 0 0.9472655,-0.3203 l -0.40625,-1.1992 a 0.50005,0.50005 0 0 0 -0.4960936,-0.3476 z"></path><path style="color:#000000;font-style:normal;font-variant:normal;font-weight:normal;font-stretch:normal;font-size:medium;line-height:normal;font-family:sans-serif;text-indent:0;text-align:start;text-decoration:none;text-decoration-line:none;text-decoration-style:solid;text-decoration-color:#000000;letter-spacing:normal;word-spacing:normal;text-transform:none;direction:ltr;block-progression:tb;writing-mode:lr-tb;baseline-shift:baseline;text-anchor:start;white-space:normal;clip-rule:nonzero;display:inline;overflow:visible;visibility:visible;opacity:1;isolation:auto;mix-blend-mode:normal;color-interpolation:sRGB;color-interpolation-filters:linearRGB;solid-color:#000000;solid-opacity:1;fill:#000000;fill-opacity:1;fill-rule:evenodd;stroke:none;stroke-width:0.5;stroke-linecap:round;stroke-linejoin:round;stroke-miterlimit:4;stroke-dasharray:none;stroke-dashoffset:0;stroke-opacity:1;color-rendering:auto;image-rendering:auto;shape-rendering:auto;text-rendering:auto;enable-background:accumulate" d="m 6.7753906,1037.1797 a 0.250025,0.250025 0 0 0 -0.1308594,0.049 l -2.9179687,2.0762 a 0.25065779,0.25065779 0 1 0 0.2910156,0.4082 l 2.9160157,-2.0781 a 0.250025,0.250025 0 0 0 -0.1582032,-0.4551 z"></path><path style="color:#000000;font-style:normal;font-variant:normal;font-weight:normal;font-stretch:normal;font-size:medium;line-height:normal;font-family:sans-serif;text-indent:0;text-align:start;text-decoration:none;text-decoration-line:none;text-decoration-style:solid;text-decoration-color:#000000;letter-spacing:normal;word-spacing:normal;text-transform:none;direction:ltr;block-progression:tb;writing-mode:lr-tb;baseline-shift:baseline;text-anchor:start;white-space:normal;clip-rule:nonzero;display:inline;overflow:visible;visibility:visible;opacity:1;isolation:auto;mix-blend-mode:normal;color-interpolation:sRGB;color-interpolation-filters:linearRGB;solid-color:#000000;solid-opacity:1;fill:#000000;fill-opacity:1;fill-rule:evenodd;stroke:none;stroke-width:0.5;stroke-linecap:round;stroke-linejoin:round;stroke-miterlimit:4;stroke-dasharray:none;stroke-dashoffset:0;stroke-opacity:1;color-rendering:auto;image-rendering:auto;shape-rendering:auto;text-rendering:auto;enable-background:accumulate" d="m 7.7363281,1038.2852 a 0.250025,0.250025 0 0 0 -0.1289062,0.055 l -3.3144531,2.6075 a 0.250025,0.250025 0 1 0 0.3085937,0.3925 l 3.3144531,-2.6074 a 0.250025,0.250025 0 0 0 -0.1796875,-0.4472 z"></path><path style="color:#000000;font-style:normal;font-variant:normal;font-weight:normal;font-stretch:normal;font-size:medium;line-height:normal;font-family:sans-serif;text-indent:0;text-align:start;text-decoration:none;text-decoration-line:none;text-decoration-style:solid;text-decoration-color:#000000;letter-spacing:normal;word-spacing:normal;text-transform:none;direction:ltr;block-progression:tb;writing-mode:lr-tb;baseline-shift:baseline;text-anchor:start;white-space:normal;clip-rule:nonzero;display:inline;overflow:visible;visibility:visible;opacity:1;isolation:auto;mix-blend-mode:normal;color-interpolation:sRGB;color-interpolation-filters:linearRGB;solid-color:#000000;solid-opacity:1;fill:#000000;fill-opacity:1;fill-rule:evenodd;stroke:none;stroke-width:0.5;stroke-linecap:round;stroke-linejoin:round;stroke-miterlimit:4;stroke-dasharray:none;stroke-dashoffset:0;stroke-opacity:1;color-rendering:auto;image-rendering:auto;shape-rendering:auto;text-rendering:auto;enable-background:accumulate" d="m 9.0761719,1039.2129 a 0.250025,0.250025 0 0 0 -0.1523438,0.062 l -4.0214843,3.4473 a 0.250025,0.250025 0 1 0 0.3261718,0.3789 L 9.25,1039.6543 a 0.250025,0.250025 0 0 0 -0.1738281,-0.4414 z"></path><path style="color:#000000;font-style:normal;font-variant:normal;font-weight:normal;font-stretch:normal;font-size:medium;line-height:normal;font-family:sans-serif;text-indent:0;text-align:start;text-decoration:none;text-decoration-line:none;text-decoration-style:solid;text-decoration-color:#000000;letter-spacing:normal;word-spacing:normal;text-transform:none;direction:ltr;block-progression:tb;writing-mode:lr-tb;baseline-shift:baseline;text-anchor:start;white-space:normal;clip-rule:nonzero;display:inline;overflow:visible;visibility:visible;opacity:1;isolation:auto;mix-blend-mode:normal;color-interpolation:sRGB;color-interpolation-filters:linearRGB;solid-color:#000000;solid-opacity:1;fill:#000000;fill-opacity:1;fill-rule:evenodd;stroke:none;stroke-width:0.5;stroke-linecap:round;stroke-linejoin:round;stroke-miterlimit:4;stroke-dasharray:none;stroke-dashoffset:0;stroke-opacity:1;color-rendering:auto;image-rendering:auto;shape-rendering:auto;text-rendering:auto;enable-background:accumulate" d="m 10.091797,1040.582 a 0.250025,0.250025 0 0 0 -0.1523439,0.064 l -4.1542969,3.623 a 0.250025,0.250025 0 1 0 0.328125,0.377 l 4.1542968,-3.6231 a 0.250025,0.250025 0 0 0 -0.175781,-0.4414 z"></path><path style="color:#000000;font-style:normal;font-variant:normal;font-weight:normal;font-stretch:normal;font-size:medium;line-height:normal;font-family:sans-serif;text-indent:0;text-align:start;text-decoration:none;text-decoration-line:none;text-decoration-style:solid;text-decoration-color:#000000;letter-spacing:normal;word-spacing:normal;text-transform:none;direction:ltr;block-progression:tb;writing-mode:lr-tb;baseline-shift:baseline;text-anchor:start;white-space:normal;clip-rule:nonzero;display:inline;overflow:visible;visibility:visible;opacity:1;isolation:auto;mix-blend-mode:normal;color-interpolation:sRGB;color-interpolation-filters:linearRGB;solid-color:#000000;solid-opacity:1;fill:#000000;fill-opacity:1;fill-rule:evenodd;stroke:none;stroke-width:0.5;stroke-linecap:round;stroke-linejoin:round;stroke-miterlimit:4;stroke-dasharray:none;stroke-dashoffset:0;stroke-opacity:1;color-rendering:auto;image-rendering:auto;shape-rendering:auto;text-rendering:auto;enable-background:accumulate" d="m 11.203125,1041.8203 a 0.250025,0.250025 0 0 0 -0.154297,0.059 l -4.5507811,3.7559 a 0.25044437,0.25044437 0 0 0 0.3183593,0.3867 l 4.5507818,-3.7559 a 0.250025,0.250025 0 0 0 -0.164063,-0.4453 z"></path><path style="color:#000000;font-style:normal;font-variant:normal;font-weight:normal;font-stretch:normal;font-size:medium;line-height:normal;font-family:sans-serif;text-indent:0;text-align:start;text-decoration:none;text-decoration-line:none;text-decoration-style:solid;text-decoration-color:#000000;letter-spacing:normal;word-spacing:normal;text-transform:none;direction:ltr;block-progression:tb;writing-mode:lr-tb;baseline-shift:baseline;text-anchor:start;white-space:normal;clip-rule:nonzero;display:inline;overflow:visible;visibility:visible;opacity:1;isolation:auto;mix-blend-mode:normal;color-interpolation:sRGB;color-interpolation-filters:linearRGB;solid-color:#000000;solid-opacity:1;fill:#000000;fill-opacity:1;fill-rule:evenodd;stroke:none;stroke-width:0.5;stroke-linecap:round;stroke-linejoin:round;stroke-miterlimit:4;stroke-dasharray:none;stroke-dashoffset:0;stroke-opacity:1;color-rendering:auto;image-rendering:auto;shape-rendering:auto;text-rendering:auto;enable-background:accumulate" d="m 12.257812,1043.3672 a 0.250025,0.250025 0 0 0 -0.132812,0.047 l -4.6855469,3.3144 a 0.25009217,0.25009217 0 1 0 0.2890625,0.4082 l 4.6855464,-3.3144 a 0.250025,0.250025 0 0 0 -0.15625,-0.4551 z"></path><path style="color:#000000;font-style:normal;font-variant:normal;font-weight:normal;font-stretch:normal;font-size:medium;line-height:normal;font-family:sans-serif;text-indent:0;text-align:start;text-decoration:none;text-decoration-line:none;text-decoration-style:solid;text-decoration-color:#000000;letter-spacing:normal;word-spacing:normal;text-transform:none;direction:ltr;block-progression:tb;writing-mode:lr-tb;baseline-shift:baseline;text-anchor:start;white-space:normal;clip-rule:nonzero;display:inline;overflow:visible;visibility:visible;opacity:1;isolation:auto;mix-blend-mode:normal;color-interpolation:sRGB;color-interpolation-filters:linearRGB;solid-color:#000000;solid-opacity:1;fill:#000000;fill-opacity:1;fill-rule:evenodd;stroke:none;stroke-width:0.5;stroke-linecap:round;stroke-linejoin:round;stroke-miterlimit:4;stroke-dasharray:none;stroke-dashoffset:0;stroke-opacity:1;color-rendering:auto;image-rendering:auto;shape-rendering:auto;text-rendering:auto;enable-background:accumulate" d="m 13.599609,1044.25 a 0.250025,0.250025 0 0 0 -0.15625,0.053 l -4.3749996,3.3145 a 0.25018527,0.25018527 0 0 0 0.3027344,0.3984 l 4.3750002,-3.3144 a 0.250025,0.250025 0 0 0 -0.146485,-0.4512 z"></path><path style="color:#000000;font-style:normal;font-variant:normal;font-weight:normal;font-stretch:normal;font-size:medium;line-height:normal;font-family:sans-serif;text-indent:0;text-align:start;text-decoration:none;text-decoration-line:none;text-decoration-style:solid;text-decoration-color:#000000;letter-spacing:normal;word-spacing:normal;text-transform:none;direction:ltr;block-progression:tb;writing-mode:lr-tb;baseline-shift:baseline;text-anchor:start;white-space:normal;clip-rule:nonzero;display:inline;overflow:visible;visibility:visible;opacity:1;isolation:auto;mix-blend-mode:normal;color-interpolation:sRGB;color-interpolation-filters:linearRGB;solid-color:#000000;solid-opacity:1;fill:#000000;fill-opacity:1;fill-rule:evenodd;stroke:none;stroke-width:0.5;stroke-linecap:round;stroke-linejoin:round;stroke-miterlimit:4;stroke-dasharray:none;stroke-dashoffset:0;stroke-opacity:1;color-rendering:auto;image-rendering:auto;shape-rendering:auto;text-rendering:auto;enable-background:accumulate" d="m 14.929688,1045.1777 a 0.250025,0.250025 0 0 0 -0.15625,0.053 l -4.730469,3.4902 a 0.250025,0.250025 0 1 0 0.296875,0.4023 l 4.730468,-3.4921 a 0.250025,0.250025 0 0 0 -0.140624,-0.4532 z"></path><path style="color:#000000;font-style:normal;font-variant:normal;font-weight:normal;font-stretch:normal;font-size:medium;line-height:normal;font-family:sans-serif;text-indent:0;text-align:start;text-decoration:none;text-decoration-line:none;text-decoration-style:solid;text-decoration-color:#000000;letter-spacing:normal;word-spacing:normal;text-transform:none;direction:ltr;block-progression:tb;writing-mode:lr-tb;baseline-shift:baseline;text-anchor:start;white-space:normal;clip-rule:nonzero;display:inline;overflow:visible;visibility:visible;opacity:1;isolation:auto;mix-blend-mode:normal;color-interpolation:sRGB;color-interpolation-filters:linearRGB;solid-color:#000000;solid-opacity:1;fill:#000000;fill-opacity:1;fill-rule:evenodd;stroke:none;stroke-width:0.5;stroke-linecap:round;stroke-linejoin:round;stroke-miterlimit:4;stroke-dasharray:none;stroke-dashoffset:0;stroke-opacity:1;color-rendering:auto;image-rendering:auto;shape-rendering:auto;text-rendering:auto;enable-background:accumulate" d="m 16.259766,1046.2383 a 0.250025,0.250025 0 0 0 -0.177735,0.064 l -3.84375,3.3594 a 0.250025,0.250025 0 1 0 0.328125,0.377 l 3.845703,-3.3594 a 0.250025,0.250025 0 0 0 -0.152343,-0.4414 z"></path><path style="color:#000000;font-style:normal;font-variant:normal;font-weight:normal;font-stretch:normal;font-size:medium;line-height:normal;font-family:sans-serif;text-indent:0;text-align:start;text-decoration:none;text-decoration-line:none;text-decoration-style:solid;text-decoration-color:#000000;letter-spacing:normal;word-spacing:normal;text-transform:none;direction:ltr;block-progression:tb;writing-mode:lr-tb;baseline-shift:baseline;text-anchor:start;white-space:normal;clip-rule:nonzero;display:inline;overflow:visible;visibility:visible;opacity:1;isolation:auto;mix-blend-mode:normal;color-interpolation:sRGB;color-interpolation-filters:linearRGB;solid-color:#000000;solid-opacity:1;fill:#000000;fill-opacity:1;fill-rule:evenodd;stroke:none;stroke-width:0.5;stroke-linecap:round;stroke-linejoin:round;stroke-miterlimit:4;stroke-dasharray:none;stroke-dashoffset:0;stroke-opacity:1;color-rendering:auto;image-rendering:auto;shape-rendering:auto;text-rendering:auto;enable-background:accumulate" d="m 17.871094,1047.4316 a 0.250025,0.250025 0 0 0 -0.169922,0.08 l -2.828125,2.961 a 0.2500332,0.2500332 0 1 0 0.361328,0.3457 l 2.828125,-2.961 a 0.250025,0.250025 0 0 0 -0.191406,-0.4258 z"></path></g></svg>