<svg xmlns:dc="http://purl.org/dc/elements/1.1/" xmlns:cc="http://creativecommons.org/ns#" xmlns:rdf="http://www.w3.org/1999/02/22-rdf-syntax-ns#" xmlns:svg="http://www.w3.org/2000/svg" xmlns="http://www.w3.org/2000/svg" xmlns:sodipodi="http://sodipodi.sourceforge.net/DTD/sodipodi-0.dtd" xmlns:inkscape="http://www.inkscape.org/namespaces/inkscape" viewBox="0 0 32 32.000001" version="1.1" x="0px" y="0px"><g transform="translate(0,-1020.3622)"><path style="color:#000000;font-style:normal;font-variant:normal;font-weight:normal;font-stretch:normal;font-size:medium;line-height:normal;font-family:sans-serif;text-indent:0;text-align:start;text-decoration:none;text-decoration-line:none;text-decoration-style:solid;text-decoration-color:#000000;letter-spacing:normal;word-spacing:normal;text-transform:none;direction:ltr;block-progression:tb;writing-mode:lr-tb;baseline-shift:baseline;text-anchor:start;white-space:normal;clip-rule:nonzero;display:inline;overflow:visible;visibility:visible;opacity:1;isolation:auto;mix-blend-mode:normal;color-interpolation:sRGB;color-interpolation-filters:linearRGB;solid-color:#000000;solid-opacity:1;fill:#000000;fill-opacity:1;fill-rule:evenodd;stroke:none;stroke-width:1px;stroke-linecap:round;stroke-linejoin:round;stroke-miterlimit:4;stroke-dasharray:none;stroke-dashoffset:0;stroke-opacity:1;color-rendering:auto;image-rendering:auto;shape-rendering:auto;text-rendering:auto;enable-background:accumulate" d="m 9.7832031,1028.5469 a 0.50005,0.50005 0 0 0 -0.3691406,0.1445 c 0,0 -1.9080851,1.8774 -2.8144531,2.9512 -0.5402176,0.6398 -1.2049889,1.3019 -1.6191406,2.1875 -0.3161176,0.6759 -0.56039,1.4501 -0.53125,2.2617 0.027622,0.7638 0.3372629,1.4343 0.625,2.0156 0.4426922,0.8944 1.5195312,2.1738 1.5195312,2.1738 a 0.50026235,0.50026235 0 1 0 0.7734375,-0.6347 c 0,0 -1.0885766,-1.3604 -1.3964844,-1.9824 -0.274463,-0.5545 -0.5052595,-1.1048 -0.5234375,-1.6075 -0.02086,-0.581 0.1651707,-1.2162 0.4394532,-1.8027 0.3172482,-0.6784 0.90298,-1.2874 1.4765624,-1.9668 0.7137444,-0.8455 1.9654197,-2.0808 2.3730469,-2.4863 0.3680429,0.4161 1.3699529,1.5323 1.8886719,2.3086 0.505006,0.7559 0.999938,1.4848 1.216797,2.2461 0.207614,0.7286 0.268671,1.523 0.142578,2.2519 -0.07993,0.4602 -0.298775,0.9303 -0.583984,1.3516 -0.122198,0.1805 -0.444048,0.5149 -0.720703,0.7715 -0.276656,0.2565 -0.509766,0.4492 -0.509766,0.4492 a 0.50077794,0.50077794 0 1 0 0.638672,0.7715 c 0,0 0.252137,-0.2114 0.550781,-0.4883 0.298644,-0.277 0.640939,-0.6063 0.869141,-0.9434 0.343791,-0.5077 0.630116,-1.095 0.742187,-1.7402 a 0.50005,0.50005 0 0 0 0,-0 c 0.155707,-0.9 0.07742,-1.8341 -0.167969,-2.6953 -0.27794,-0.9757 -0.847509,-1.7816 -1.345703,-2.5273 -0.719383,-1.0766 -2.320312,-2.8418 -2.320312,-2.8418 a 0.50005,0.50005 0 0 0 -0.3535159,-0.166 z"></path><path style="color:#000000;font-style:normal;font-variant:normal;font-weight:normal;font-stretch:normal;font-size:medium;line-height:normal;font-family:sans-serif;text-indent:0;text-align:start;text-decoration:none;text-decoration-line:none;text-decoration-style:solid;text-decoration-color:#000000;letter-spacing:normal;word-spacing:normal;text-transform:none;direction:ltr;block-progression:tb;writing-mode:lr-tb;baseline-shift:baseline;text-anchor:start;white-space:normal;clip-rule:nonzero;display:inline;overflow:visible;visibility:visible;opacity:1;isolation:auto;mix-blend-mode:normal;color-interpolation:sRGB;color-interpolation-filters:linearRGB;solid-color:#000000;solid-opacity:1;fill:#000000;fill-opacity:1;fill-rule:evenodd;stroke:none;stroke-width:1px;stroke-linecap:butt;stroke-linejoin:miter;stroke-miterlimit:4;stroke-dasharray:none;stroke-dashoffset:0;stroke-opacity:1;color-rendering:auto;image-rendering:auto;shape-rendering:auto;text-rendering:auto;enable-background:accumulate" d="m 11.140625,1024.3574 c -1.2864192,-0.2457 -2.4809611,0.4138 -3.4296875,0.9375 -0.885655,0.4889 -1.7377911,1.1697 -2.3027344,2.0723 -0.6325411,1.0106 -0.8834888,2.2041 -0.9589843,3.3262 -0.044503,0.6654 0.088651,1.5045 0.2226562,2.2148 0.1340051,0.7103 0.2773437,1.2773 0.2773438,1.2773 l 0.96875,-0.2441 c 0,0 -0.135827,-0.5411 -0.2636719,-1.2187 -0.1278449,-0.6777 -0.2375287,-1.5069 -0.2070313,-1.9629 0.068504,-1.0182 0.3031349,-2.0538 0.8085938,-2.8614 0.4424567,-0.7068 1.1629081,-1.2998 1.9394531,-1.7285 0.9290736,-0.5129 1.9374315,-0.9867 2.7578125,-0.8301 0.739731,0.1413 1.482437,0.8217 1.976563,1.5567 0.514573,0.7654 0.754656,1.7939 0.755859,2.7695 7.75e-4,0.6512 -0.434925,1.3892 -0.650391,2.3184 -0.132259,0.5706 -0.316406,1.6406 -0.316406,1.6406 l 0.986328,0.1699 c 0,0 0.189747,-1.09 0.304688,-1.5859 l -0.002,0 c 0.163935,-0.707 0.678959,-1.5146 0.677735,-2.543 -0.0014,-1.133 -0.263955,-2.3437 -0.925781,-3.3281 -0.584275,-0.8691 -1.460272,-1.7592 -2.619141,-1.9805 z"></path><path style="color:#000000;font-style:normal;font-variant:normal;font-weight:normal;font-stretch:normal;font-size:medium;line-height:normal;font-family:sans-serif;text-indent:0;text-align:start;text-decoration:none;text-decoration-line:none;text-decoration-style:solid;text-decoration-color:#000000;letter-spacing:normal;word-spacing:normal;text-transform:none;direction:ltr;block-progression:tb;writing-mode:lr-tb;baseline-shift:baseline;text-anchor:start;white-space:normal;clip-rule:nonzero;display:inline;overflow:visible;visibility:visible;opacity:1;isolation:auto;mix-blend-mode:normal;color-interpolation:sRGB;color-interpolation-filters:linearRGB;solid-color:#000000;solid-opacity:1;fill:#000000;fill-opacity:1;fill-rule:evenodd;stroke:none;stroke-width:1px;stroke-linecap:butt;stroke-linejoin:miter;stroke-miterlimit:4;stroke-dasharray:none;stroke-dashoffset:0;stroke-opacity:1;color-rendering:auto;image-rendering:auto;shape-rendering:auto;text-rendering:auto;enable-background:accumulate" d="m 5.25,1038.0215 c 0,0 -0.5830987,3.258 -0.5371094,5.0488 0.025035,0.9908 -0.1035842,2.2434 0.5644532,3.3027 l -0.00195,0 c 0.63223,1.0028 1.7122098,1.7813 2.8984375,1.9942 1.1204814,0.201 2.2709229,-0.1888 3.1523439,-0.7852 1.003833,-0.6791 1.723687,-1.748 2.095703,-2.8632 0.389587,-1.168 0.105182,-2.3354 0.06836,-3.3145 l 0,-0 c -0.0391,-1.0565 -0.267578,-3.0429 -0.267578,-3.0429 l -0.99414,0.1133 c 0,0 0.228555,2.013 0.263672,2.9668 l 0,0 c 0.04146,1.1112 0.252643,2.145 -0.01953,2.9609 -0.308584,0.9252 -0.927311,1.8234 -1.705078,2.3497 -0.704779,0.4768 -1.6514969,0.768 -2.4160155,0.6308 -0.8569723,-0.1537 -1.7535456,-0.7897 -2.2285156,-1.543 -0.4301626,-0.6821 -0.383191,-1.7277 -0.4101563,-2.7949 -0.039211,-1.5268 0.5234375,-4.8515 0.5234375,-4.8515 L 5.25,1038.0215 Z"></path><path style="color:#000000;font-style:normal;font-variant:normal;font-weight:normal;font-stretch:normal;font-size:medium;line-height:normal;font-family:sans-serif;text-indent:0;text-align:start;text-decoration:none;text-decoration-line:none;text-decoration-style:solid;text-decoration-color:#000000;letter-spacing:normal;word-spacing:normal;text-transform:none;direction:ltr;block-progression:tb;writing-mode:lr-tb;baseline-shift:baseline;text-anchor:start;white-space:normal;clip-rule:nonzero;display:inline;overflow:visible;visibility:visible;opacity:1;isolation:auto;mix-blend-mode:normal;color-interpolation:sRGB;color-interpolation-filters:linearRGB;solid-color:#000000;solid-opacity:1;fill:#000000;fill-opacity:1;fill-rule:evenodd;stroke:none;stroke-width:1px;stroke-linecap:round;stroke-linejoin:round;stroke-miterlimit:4;stroke-dasharray:none;stroke-dashoffset:0;stroke-opacity:1;color-rendering:auto;image-rendering:auto;shape-rendering:auto;text-rendering:auto;enable-background:accumulate" d="m 9.7226562,1027.4355 a 0.50005,0.50005 0 0 0 -0.5019531,0.4981 l -0.021484,1.1484 a 0.50009613,0.50009613 0 1 0 1.0000002,0.02 l 0.02148,-1.1504 a 0.50005,0.50005 0 0 0 -0.4980468,-0.5157 z"></path><path style="color:#000000;font-style:normal;font-variant:normal;font-weight:normal;font-stretch:normal;font-size:medium;line-height:normal;font-family:sans-serif;text-indent:0;text-align:start;text-decoration:none;text-decoration-line:none;text-decoration-style:solid;text-decoration-color:#000000;letter-spacing:normal;word-spacing:normal;text-transform:none;direction:ltr;block-progression:tb;writing-mode:lr-tb;baseline-shift:baseline;text-anchor:start;white-space:normal;clip-rule:nonzero;display:inline;overflow:visible;visibility:visible;opacity:1;isolation:auto;mix-blend-mode:normal;color-interpolation:sRGB;color-interpolation-filters:linearRGB;solid-color:#000000;solid-opacity:1;fill:#000000;fill-opacity:1;fill-rule:evenodd;stroke:none;stroke-width:1px;stroke-linecap:round;stroke-linejoin:round;stroke-miterlimit:4;stroke-dasharray:none;stroke-dashoffset:0;stroke-opacity:1;color-rendering:auto;image-rendering:auto;shape-rendering:auto;text-rendering:auto;enable-background:accumulate" d="m 22.224609,1028.5469 a 0.50005,0.50005 0 0 0 -0.361328,0.166 c 0,0 -1.600929,1.7652 -2.320312,2.8418 -0.498194,0.7457 -1.067763,1.5516 -1.345703,2.5273 -0.245386,0.8612 -0.323676,1.7953 -0.167969,2.6953 a 0.50005,0.50005 0 0 0 0,0 c 0.112071,0.6452 0.398396,1.2325 0.742187,1.7402 0.228202,0.3371 0.570497,0.6664 0.869141,0.9434 0.298644,0.2769 0.550781,0.4883 0.550781,0.4883 a 0.50077794,0.50077794 0 1 0 0.638672,-0.7715 c 0,0 -0.23311,-0.1927 -0.509766,-0.4492 -0.276655,-0.2566 -0.598505,-0.591 -0.720703,-0.7715 -0.285209,-0.4213 -0.504055,-0.8914 -0.583984,-1.3516 -0.126093,-0.7289 -0.06504,-1.5233 0.142578,-2.2519 0.216859,-0.7613 0.711791,-1.4902 1.216797,-2.2461 0.518719,-0.7763 1.520629,-1.8925 1.888672,-2.3086 0.407627,0.4055 1.659302,1.6408 2.373047,2.4863 0.573582,0.6794 1.159314,1.2884 1.476562,1.9668 0.274283,0.5865 0.460313,1.2217 0.439453,1.8027 -0.01818,0.5027 -0.248974,1.053 -0.523437,1.6075 -0.307908,0.622 -1.396485,1.9824 -1.396485,1.9824 a 0.50026254,0.50026254 0 1 0 0.773438,0.6347 c 0,0 1.076839,-1.2794 1.519531,-2.1738 0.287737,-0.5813 0.597378,-1.2518 0.625,-2.0156 0.02914,-0.8116 -0.215132,-1.5858 -0.53125,-2.2617 -0.414152,-0.8856 -1.078923,-1.5477 -1.61914,-2.1875 -0.906368,-1.0738 -2.814453,-2.9512 -2.814453,-2.9512 a 0.50005,0.50005 0 0 0 -0.361329,-0.1445 z"></path><path style="color:#000000;font-style:normal;font-variant:normal;font-weight:normal;font-stretch:normal;font-size:medium;line-height:normal;font-family:sans-serif;text-indent:0;text-align:start;text-decoration:none;text-decoration-line:none;text-decoration-style:solid;text-decoration-color:#000000;letter-spacing:normal;word-spacing:normal;text-transform:none;direction:ltr;block-progression:tb;writing-mode:lr-tb;baseline-shift:baseline;text-anchor:start;white-space:normal;clip-rule:nonzero;display:inline;overflow:visible;visibility:visible;opacity:1;isolation:auto;mix-blend-mode:normal;color-interpolation:sRGB;color-interpolation-filters:linearRGB;solid-color:#000000;solid-opacity:1;fill:#000000;fill-opacity:1;fill-rule:evenodd;stroke:none;stroke-width:1px;stroke-linecap:butt;stroke-linejoin:miter;stroke-miterlimit:4;stroke-dasharray:none;stroke-dashoffset:0;stroke-opacity:1;color-rendering:auto;image-rendering:auto;shape-rendering:auto;text-rendering:auto;enable-background:accumulate" d="m 20.859375,1024.3574 c -1.158869,0.2213 -2.034866,1.1114 -2.619141,1.9805 -0.661826,0.9844 -0.924384,2.1951 -0.925781,3.3281 -0.0012,1.0284 0.5138,1.836 0.677735,2.543 l -0.002,0 c 0.114941,0.4959 0.304688,1.5859 0.304688,1.5859 l 0.986328,-0.1699 c 0,0 -0.184147,-1.07 -0.316406,-1.6406 -0.215466,-0.9292 -0.651166,-1.6672 -0.650391,-2.3184 0.0012,-0.9756 0.241286,-2.0041 0.755859,-2.7695 0.494126,-0.735 1.236832,-1.4154 1.976563,-1.5567 0.820381,-0.1566 1.828739,0.3172 2.757813,0.8301 0.776545,0.4287 1.496996,1.0217 1.939453,1.7285 0.505459,0.8076 0.740089,1.8432 0.808593,2.8614 0.0305,0.456 -0.07919,1.2852 -0.207031,1.9629 -0.127845,0.6776 -0.263672,1.2187 -0.263672,1.2187 l 0.96875,0.2441 c 0,0 0.143339,-0.567 0.277344,-1.2773 0.134005,-0.7103 0.267159,-1.5494 0.222656,-2.2148 -0.0755,-1.1221 -0.326443,-2.3156 -0.958984,-3.3262 -0.564943,-0.9026 -1.41708,-1.5834 -2.302735,-2.0723 -0.948726,-0.5237 -2.143268,-1.1832 -3.429687,-0.9375 z"></path><path style="color:#000000;font-style:normal;font-variant:normal;font-weight:normal;font-stretch:normal;font-size:medium;line-height:normal;font-family:sans-serif;text-indent:0;text-align:start;text-decoration:none;text-decoration-line:none;text-decoration-style:solid;text-decoration-color:#000000;letter-spacing:normal;word-spacing:normal;text-transform:none;direction:ltr;block-progression:tb;writing-mode:lr-tb;baseline-shift:baseline;text-anchor:start;white-space:normal;clip-rule:nonzero;display:inline;overflow:visible;visibility:visible;opacity:1;isolation:auto;mix-blend-mode:normal;color-interpolation:sRGB;color-interpolation-filters:linearRGB;solid-color:#000000;solid-opacity:1;fill:#000000;fill-opacity:1;fill-rule:evenodd;stroke:none;stroke-width:1px;stroke-linecap:butt;stroke-linejoin:miter;stroke-miterlimit:4;stroke-dasharray:none;stroke-dashoffset:0;stroke-opacity:1;color-rendering:auto;image-rendering:auto;shape-rendering:auto;text-rendering:auto;enable-background:accumulate" d="m 26.75,1038.0215 -0.986328,0.1719 c 0,0 0.562648,3.3247 0.523437,4.8515 -0.02697,1.0672 0.02001,2.1128 -0.410156,2.7949 -0.47497,0.7533 -1.371543,1.3893 -2.228515,1.543 -0.764519,0.1372 -1.711237,-0.154 -2.416016,-0.6308 -0.777767,-0.5263 -1.396494,-1.4245 -1.705078,-2.3497 -0.272175,-0.8159 -0.06099,-1.8497 -0.01953,-2.9609 l 0,-0 c 0.03512,-0.9538 0.263672,-2.9668 0.263672,-2.9668 l -0.99414,-0.1133 c 0,0 -0.228695,1.9888 -0.267578,3.0449 -0.03682,0.9791 -0.321228,2.1465 0.06836,3.3145 0.372016,1.1152 1.09187,2.1841 2.095703,2.8632 0.881421,0.5964 2.031863,0.9862 3.152344,0.7852 1.186228,-0.2129 2.266207,-0.9914 2.898437,-1.9942 l -0.002,0 c 0.668038,-1.0593 0.539419,-2.3119 0.564453,-3.3027 0.04599,-1.7908 -0.537109,-5.0488 -0.537109,-5.0488 z"></path><path style="color:#000000;font-style:normal;font-variant:normal;font-weight:normal;font-stretch:normal;font-size:medium;line-height:normal;font-family:sans-serif;text-indent:0;text-align:start;text-decoration:none;text-decoration-line:none;text-decoration-style:solid;text-decoration-color:#000000;letter-spacing:normal;word-spacing:normal;text-transform:none;direction:ltr;block-progression:tb;writing-mode:lr-tb;baseline-shift:baseline;text-anchor:start;white-space:normal;clip-rule:nonzero;display:inline;overflow:visible;visibility:visible;opacity:1;isolation:auto;mix-blend-mode:normal;color-interpolation:sRGB;color-interpolation-filters:linearRGB;solid-color:#000000;solid-opacity:1;fill:#000000;fill-opacity:1;fill-rule:evenodd;stroke:none;stroke-width:1px;stroke-linecap:round;stroke-linejoin:round;stroke-miterlimit:4;stroke-dasharray:none;stroke-dashoffset:0;stroke-opacity:1;color-rendering:auto;image-rendering:auto;shape-rendering:auto;text-rendering:auto;enable-background:accumulate" d="m 22.261719,1027.4355 a 0.50005,0.50005 0 0 0 -0.482422,0.5157 l 0.02148,1.1504 a 0.50009603,0.50009603 0 1 0 1,-0.02 l -0.02148,-1.1484 a 0.50005,0.50005 0 0 0 -0.517578,-0.4981 z"></path><path style="color:#000000;font-style:normal;font-variant:normal;font-weight:normal;font-stretch:normal;font-size:medium;line-height:normal;font-family:sans-serif;text-indent:0;text-align:start;text-decoration:none;text-decoration-line:none;text-decoration-style:solid;text-decoration-color:#000000;letter-spacing:normal;word-spacing:normal;text-transform:none;direction:ltr;block-progression:tb;writing-mode:lr-tb;baseline-shift:baseline;text-anchor:start;white-space:normal;clip-rule:nonzero;display:inline;overflow:visible;visibility:visible;opacity:1;isolation:auto;mix-blend-mode:normal;color-interpolation:sRGB;color-interpolation-filters:linearRGB;solid-color:#000000;solid-opacity:1;fill:#000000;fill-opacity:1;fill-rule:evenodd;stroke:none;stroke-width:0.5;stroke-linecap:round;stroke-linejoin:round;stroke-miterlimit:4;stroke-dasharray:none;stroke-dashoffset:0;stroke-opacity:1;color-rendering:auto;image-rendering:auto;shape-rendering:auto;text-rendering:auto;enable-background:accumulate" d="m 7.015625,1040.5078 a 0.250025,0.250025 0 0 0 -0.1523438,0.061 l -1.7675781,1.5019 a 0.2501013,0.2501013 0 0 0 0.3242188,0.3809 l 1.7675781,-1.502 a 0.250025,0.250025 0 0 0 -0.171875,-0.4414 z"></path><path style="color:#000000;font-style:normal;font-variant:normal;font-weight:normal;font-stretch:normal;font-size:medium;line-height:normal;font-family:sans-serif;text-indent:0;text-align:start;text-decoration:none;text-decoration-line:none;text-decoration-style:solid;text-decoration-color:#000000;letter-spacing:normal;word-spacing:normal;text-transform:none;direction:ltr;block-progression:tb;writing-mode:lr-tb;baseline-shift:baseline;text-anchor:start;white-space:normal;clip-rule:nonzero;display:inline;overflow:visible;visibility:visible;opacity:1;isolation:auto;mix-blend-mode:normal;color-interpolation:sRGB;color-interpolation-filters:linearRGB;solid-color:#000000;solid-opacity:1;fill:#000000;fill-opacity:1;fill-rule:evenodd;stroke:none;stroke-width:0.5;stroke-linecap:round;stroke-linejoin:round;stroke-miterlimit:4;stroke-dasharray:none;stroke-dashoffset:0;stroke-opacity:1;color-rendering:auto;image-rendering:auto;shape-rendering:auto;text-rendering:auto;enable-background:accumulate" d="m 7.3710938,1041.3027 a 0.250025,0.250025 0 0 0 -0.171875,0.076 l -2.2089844,2.2539 a 0.250025,0.250025 0 1 0 0.3574218,0.3496 l 2.2089844,-2.2539 a 0.250025,0.250025 0 0 0 -0.1855468,-0.4258 z"></path><path style="color:#000000;font-style:normal;font-variant:normal;font-weight:normal;font-stretch:normal;font-size:medium;line-height:normal;font-family:sans-serif;text-indent:0;text-align:start;text-decoration:none;text-decoration-line:none;text-decoration-style:solid;text-decoration-color:#000000;letter-spacing:normal;word-spacing:normal;text-transform:none;direction:ltr;block-progression:tb;writing-mode:lr-tb;baseline-shift:baseline;text-anchor:start;white-space:normal;clip-rule:nonzero;display:inline;overflow:visible;visibility:visible;opacity:1;isolation:auto;mix-blend-mode:normal;color-interpolation:sRGB;color-interpolation-filters:linearRGB;solid-color:#000000;solid-opacity:1;fill:#000000;fill-opacity:1;fill-rule:evenodd;stroke:none;stroke-width:0.5;stroke-linecap:round;stroke-linejoin:round;stroke-miterlimit:4;stroke-dasharray:none;stroke-dashoffset:0;stroke-opacity:1;color-rendering:auto;image-rendering:auto;shape-rendering:auto;text-rendering:auto;enable-background:accumulate" d="m 7.7128906,1042.3633 a 0.250025,0.250025 0 0 0 -0.1660156,0.084 l -2.2988281,2.5644 a 0.25035974,0.25035974 0 0 0 0.3730469,0.334 l 2.296875,-2.5645 a 0.250025,0.250025 0 0 0 -0.2050782,-0.4179 z"></path><path style="color:#000000;font-style:normal;font-variant:normal;font-weight:normal;font-stretch:normal;font-size:medium;line-height:normal;font-family:sans-serif;text-indent:0;text-align:start;text-decoration:none;text-decoration-line:none;text-decoration-style:solid;text-decoration-color:#000000;letter-spacing:normal;word-spacing:normal;text-transform:none;direction:ltr;block-progression:tb;writing-mode:lr-tb;baseline-shift:baseline;text-anchor:start;white-space:normal;clip-rule:nonzero;display:inline;overflow:visible;visibility:visible;opacity:1;isolation:auto;mix-blend-mode:normal;color-interpolation:sRGB;color-interpolation-filters:linearRGB;solid-color:#000000;solid-opacity:1;fill:#000000;fill-opacity:1;fill-rule:evenodd;stroke:none;stroke-width:0.5;stroke-linecap:round;stroke-linejoin:round;stroke-miterlimit:4;stroke-dasharray:none;stroke-dashoffset:0;stroke-opacity:1;color-rendering:auto;image-rendering:auto;shape-rendering:auto;text-rendering:auto;enable-background:accumulate" d="m 8.0644531,1043.4238 a 0.250025,0.250025 0 0 0 -0.1660156,0.088 l -2.1660156,2.4746 a 0.250025,0.250025 0 1 0 0.3769531,0.3282 l 2.1640625,-2.4747 a 0.250025,0.250025 0 0 0 -0.2089844,-0.416 z"></path><path style="color:#000000;font-style:normal;font-variant:normal;font-weight:normal;font-stretch:normal;font-size:medium;line-height:normal;font-family:sans-serif;text-indent:0;text-align:start;text-decoration:none;text-decoration-line:none;text-decoration-style:solid;text-decoration-color:#000000;letter-spacing:normal;word-spacing:normal;text-transform:none;direction:ltr;block-progression:tb;writing-mode:lr-tb;baseline-shift:baseline;text-anchor:start;white-space:normal;clip-rule:nonzero;display:inline;overflow:visible;visibility:visible;opacity:1;isolation:auto;mix-blend-mode:normal;color-interpolation:sRGB;color-interpolation-filters:linearRGB;solid-color:#000000;solid-opacity:1;fill:#000000;fill-opacity:1;fill-rule:evenodd;stroke:none;stroke-width:0.5;stroke-linecap:round;stroke-linejoin:round;stroke-miterlimit:4;stroke-dasharray:none;stroke-dashoffset:0;stroke-opacity:1;color-rendering:auto;image-rendering:auto;shape-rendering:auto;text-rendering:auto;enable-background:accumulate" d="m 8.46875,1044.1309 a 0.250025,0.250025 0 0 0 -0.1855469,0.1015 l -1.8554687,2.4746 a 0.25039632,0.25039632 0 1 0 0.4003906,0.3008 l 1.8554688,-2.4746 A 0.250025,0.250025 0 0 0 8.46875,1044.1309 Z"></path><path style="color:#000000;font-style:normal;font-variant:normal;font-weight:normal;font-stretch:normal;font-size:medium;line-height:normal;font-family:sans-serif;text-indent:0;text-align:start;text-decoration:none;text-decoration-line:none;text-decoration-style:solid;text-decoration-color:#000000;letter-spacing:normal;word-spacing:normal;text-transform:none;direction:ltr;block-progression:tb;writing-mode:lr-tb;baseline-shift:baseline;text-anchor:start;white-space:normal;clip-rule:nonzero;display:inline;overflow:visible;visibility:visible;opacity:1;isolation:auto;mix-blend-mode:normal;color-interpolation:sRGB;color-interpolation-filters:linearRGB;solid-color:#000000;solid-opacity:1;fill:#000000;fill-opacity:1;fill-rule:evenodd;stroke:none;stroke-width:0.5;stroke-linecap:round;stroke-linejoin:round;stroke-miterlimit:4;stroke-dasharray:none;stroke-dashoffset:0;stroke-opacity:1;color-rendering:auto;image-rendering:auto;shape-rendering:auto;text-rendering:auto;enable-background:accumulate" d="m 8.953125,1045.1465 a 0.250025,0.250025 0 0 0 -0.1835938,0.1035 l -1.5039062,2.0332 a 0.250025,0.250025 0 1 0 0.4023438,0.2969 l 1.5019531,-2.0332 a 0.250025,0.250025 0 0 0 -0.2167969,-0.4004 z"></path><path style="color:#000000;font-style:normal;font-variant:normal;font-weight:normal;font-stretch:normal;font-size:medium;line-height:normal;font-family:sans-serif;text-indent:0;text-align:start;text-decoration:none;text-decoration-line:none;text-decoration-style:solid;text-decoration-color:#000000;letter-spacing:normal;word-spacing:normal;text-transform:none;direction:ltr;block-progression:tb;writing-mode:lr-tb;baseline-shift:baseline;text-anchor:start;white-space:normal;clip-rule:nonzero;display:inline;overflow:visible;visibility:visible;opacity:1;isolation:auto;mix-blend-mode:normal;color-interpolation:sRGB;color-interpolation-filters:linearRGB;solid-color:#000000;solid-opacity:1;fill:#000000;fill-opacity:1;fill-rule:evenodd;stroke:none;stroke-width:0.5;stroke-linecap:round;stroke-linejoin:round;stroke-miterlimit:4;stroke-dasharray:none;stroke-dashoffset:0;stroke-opacity:1;color-rendering:auto;image-rendering:auto;shape-rendering:auto;text-rendering:auto;enable-background:accumulate" d="m 9.3964844,1046.1191 a 0.250025,0.250025 0 0 0 -0.2109375,0.1446 l -0.5742188,1.1933 a 0.25027901,0.25027901 0 0 0 0.4511719,0.2168 l 0.5742188,-1.1933 a 0.250025,0.250025 0 0 0 -0.2402344,-0.3614 z"></path><path style="color:#000000;font-style:normal;font-variant:normal;font-weight:normal;font-stretch:normal;font-size:medium;line-height:normal;font-family:sans-serif;text-indent:0;text-align:start;text-decoration:none;text-decoration-line:none;text-decoration-style:solid;text-decoration-color:#000000;letter-spacing:normal;word-spacing:normal;text-transform:none;direction:ltr;block-progression:tb;writing-mode:lr-tb;baseline-shift:baseline;text-anchor:start;white-space:normal;clip-rule:nonzero;display:inline;overflow:visible;visibility:visible;opacity:1;isolation:auto;mix-blend-mode:normal;color-interpolation:sRGB;color-interpolation-filters:linearRGB;solid-color:#000000;solid-opacity:1;fill:#000000;fill-opacity:1;fill-rule:evenodd;stroke:none;stroke-width:0.5;stroke-linecap:round;stroke-linejoin:round;stroke-miterlimit:4;stroke-dasharray:none;stroke-dashoffset:0;stroke-opacity:1;color-rendering:auto;image-rendering:auto;shape-rendering:auto;text-rendering:auto;enable-background:accumulate" d="m 7.7050781,1026.873 a 0.250025,0.250025 0 0 0 -0.171875,0.076 l -2.53125,2.5 a 0.250025,0.250025 0 1 0 0.3515625,0.3555 l 2.5292969,-2.5 a 0.250025,0.250025 0 0 0 -0.1777344,-0.4317 z"></path><path style="color:#000000;font-style:normal;font-variant:normal;font-weight:normal;font-stretch:normal;font-size:medium;line-height:normal;font-family:sans-serif;text-indent:0;text-align:start;text-decoration:none;text-decoration-line:none;text-decoration-style:solid;text-decoration-color:#000000;letter-spacing:normal;word-spacing:normal;text-transform:none;direction:ltr;block-progression:tb;writing-mode:lr-tb;baseline-shift:baseline;text-anchor:start;white-space:normal;clip-rule:nonzero;display:inline;overflow:visible;visibility:visible;opacity:1;isolation:auto;mix-blend-mode:normal;color-interpolation:sRGB;color-interpolation-filters:linearRGB;solid-color:#000000;solid-opacity:1;fill:#000000;fill-opacity:1;fill-rule:evenodd;stroke:none;stroke-width:0.5;stroke-linecap:round;stroke-linejoin:round;stroke-miterlimit:4;stroke-dasharray:none;stroke-dashoffset:0;stroke-opacity:1;color-rendering:auto;image-rendering:auto;shape-rendering:auto;text-rendering:auto;enable-background:accumulate" d="m 7.6875,1028.123 a 0.250025,0.250025 0 0 0 -0.1933594,0.082 l -2.625,2.8125 a 0.25011168,0.25011168 0 1 0 0.3652344,0.3418 l 2.625,-2.8125 A 0.250025,0.250025 0 0 0 7.6875,1028.123 Z"></path><path style="color:#000000;font-style:normal;font-variant:normal;font-weight:normal;font-stretch:normal;font-size:medium;line-height:normal;font-family:sans-serif;text-indent:0;text-align:start;text-decoration:none;text-decoration-line:none;text-decoration-style:solid;text-decoration-color:#000000;letter-spacing:normal;word-spacing:normal;text-transform:none;direction:ltr;block-progression:tb;writing-mode:lr-tb;baseline-shift:baseline;text-anchor:start;white-space:normal;clip-rule:nonzero;display:inline;overflow:visible;visibility:visible;opacity:1;isolation:auto;mix-blend-mode:normal;color-interpolation:sRGB;color-interpolation-filters:linearRGB;solid-color:#000000;solid-opacity:1;fill:#000000;fill-opacity:1;fill-rule:evenodd;stroke:none;stroke-width:0.5;stroke-linecap:round;stroke-linejoin:round;stroke-miterlimit:4;stroke-dasharray:none;stroke-dashoffset:0;stroke-opacity:1;color-rendering:auto;image-rendering:auto;shape-rendering:auto;text-rendering:auto;enable-background:accumulate" d="m 7.6796875,1029.5293 a 0.250025,0.250025 0 0 0 -0.1738281,0.072 l -2.28125,2.1562 a 0.250025,0.250025 0 1 0 0.3417968,0.3633 l 2.28125,-2.1563 a 0.250025,0.250025 0 0 0 -0.1679687,-0.4355 z"></path><path style="color:#000000;font-style:normal;font-variant:normal;font-weight:normal;font-stretch:normal;font-size:medium;line-height:normal;font-family:sans-serif;text-indent:0;text-align:start;text-decoration:none;text-decoration-line:none;text-decoration-style:solid;text-decoration-color:#000000;letter-spacing:normal;word-spacing:normal;text-transform:none;direction:ltr;block-progression:tb;writing-mode:lr-tb;baseline-shift:baseline;text-anchor:start;white-space:normal;clip-rule:nonzero;display:inline;overflow:visible;visibility:visible;opacity:1;isolation:auto;mix-blend-mode:normal;color-interpolation:sRGB;color-interpolation-filters:linearRGB;solid-color:#000000;solid-opacity:1;fill:#000000;fill-opacity:1;fill-rule:evenodd;stroke:none;stroke-width:0.5;stroke-linecap:round;stroke-linejoin:round;stroke-miterlimit:4;stroke-dasharray:none;stroke-dashoffset:0;stroke-opacity:1;color-rendering:auto;image-rendering:auto;shape-rendering:auto;text-rendering:auto;enable-background:accumulate" d="m 20.703125,1040.5078 a 0.250025,0.250025 0 0 0 -0.152344,0.061 l -1.767578,1.5019 a 0.25010136,0.25010136 0 0 0 0.324219,0.3809 l 1.767578,-1.502 a 0.250025,0.250025 0 0 0 -0.171875,-0.4414 z"></path><path style="color:#000000;font-style:normal;font-variant:normal;font-weight:normal;font-stretch:normal;font-size:medium;line-height:normal;font-family:sans-serif;text-indent:0;text-align:start;text-decoration:none;text-decoration-line:none;text-decoration-style:solid;text-decoration-color:#000000;letter-spacing:normal;word-spacing:normal;text-transform:none;direction:ltr;block-progression:tb;writing-mode:lr-tb;baseline-shift:baseline;text-anchor:start;white-space:normal;clip-rule:nonzero;display:inline;overflow:visible;visibility:visible;opacity:1;isolation:auto;mix-blend-mode:normal;color-interpolation:sRGB;color-interpolation-filters:linearRGB;solid-color:#000000;solid-opacity:1;fill:#000000;fill-opacity:1;fill-rule:evenodd;stroke:none;stroke-width:0.5;stroke-linecap:round;stroke-linejoin:round;stroke-miterlimit:4;stroke-dasharray:none;stroke-dashoffset:0;stroke-opacity:1;color-rendering:auto;image-rendering:auto;shape-rendering:auto;text-rendering:auto;enable-background:accumulate" d="m 21.058594,1041.3027 a 0.250025,0.250025 0 0 0 -0.171875,0.076 l -2.208985,2.2539 a 0.250025,0.250025 0 1 0 0.357422,0.3496 l 2.208985,-2.2539 a 0.250025,0.250025 0 0 0 -0.185547,-0.4258 z"></path><path style="color:#000000;font-style:normal;font-variant:normal;font-weight:normal;font-stretch:normal;font-size:medium;line-height:normal;font-family:sans-serif;text-indent:0;text-align:start;text-decoration:none;text-decoration-line:none;text-decoration-style:solid;text-decoration-color:#000000;letter-spacing:normal;word-spacing:normal;text-transform:none;direction:ltr;block-progression:tb;writing-mode:lr-tb;baseline-shift:baseline;text-anchor:start;white-space:normal;clip-rule:nonzero;display:inline;overflow:visible;visibility:visible;opacity:1;isolation:auto;mix-blend-mode:normal;color-interpolation:sRGB;color-interpolation-filters:linearRGB;solid-color:#000000;solid-opacity:1;fill:#000000;fill-opacity:1;fill-rule:evenodd;stroke:none;stroke-width:0.5;stroke-linecap:round;stroke-linejoin:round;stroke-miterlimit:4;stroke-dasharray:none;stroke-dashoffset:0;stroke-opacity:1;color-rendering:auto;image-rendering:auto;shape-rendering:auto;text-rendering:auto;enable-background:accumulate" d="m 21.400391,1042.3633 a 0.250025,0.250025 0 0 0 -0.166016,0.084 l -2.298828,2.5644 a 0.25035977,0.25035977 0 0 0 0.373047,0.334 l 2.296875,-2.5645 a 0.250025,0.250025 0 0 0 -0.205078,-0.4179 z"></path><path style="color:#000000;font-style:normal;font-variant:normal;font-weight:normal;font-stretch:normal;font-size:medium;line-height:normal;font-family:sans-serif;text-indent:0;text-align:start;text-decoration:none;text-decoration-line:none;text-decoration-style:solid;text-decoration-color:#000000;letter-spacing:normal;word-spacing:normal;text-transform:none;direction:ltr;block-progression:tb;writing-mode:lr-tb;baseline-shift:baseline;text-anchor:start;white-space:normal;clip-rule:nonzero;display:inline;overflow:visible;visibility:visible;opacity:1;isolation:auto;mix-blend-mode:normal;color-interpolation:sRGB;color-interpolation-filters:linearRGB;solid-color:#000000;solid-opacity:1;fill:#000000;fill-opacity:1;fill-rule:evenodd;stroke:none;stroke-width:0.5;stroke-linecap:round;stroke-linejoin:round;stroke-miterlimit:4;stroke-dasharray:none;stroke-dashoffset:0;stroke-opacity:1;color-rendering:auto;image-rendering:auto;shape-rendering:auto;text-rendering:auto;enable-background:accumulate" d="m 21.751953,1043.4238 a 0.250025,0.250025 0 0 0 -0.166015,0.088 l -2.166016,2.4746 a 0.250025,0.250025 0 1 0 0.376953,0.3282 l 2.164063,-2.4747 a 0.250025,0.250025 0 0 0 -0.208985,-0.416 z"></path><path style="color:#000000;font-style:normal;font-variant:normal;font-weight:normal;font-stretch:normal;font-size:medium;line-height:normal;font-family:sans-serif;text-indent:0;text-align:start;text-decoration:none;text-decoration-line:none;text-decoration-style:solid;text-decoration-color:#000000;letter-spacing:normal;word-spacing:normal;text-transform:none;direction:ltr;block-progression:tb;writing-mode:lr-tb;baseline-shift:baseline;text-anchor:start;white-space:normal;clip-rule:nonzero;display:inline;overflow:visible;visibility:visible;opacity:1;isolation:auto;mix-blend-mode:normal;color-interpolation:sRGB;color-interpolation-filters:linearRGB;solid-color:#000000;solid-opacity:1;fill:#000000;fill-opacity:1;fill-rule:evenodd;stroke:none;stroke-width:0.5;stroke-linecap:round;stroke-linejoin:round;stroke-miterlimit:4;stroke-dasharray:none;stroke-dashoffset:0;stroke-opacity:1;color-rendering:auto;image-rendering:auto;shape-rendering:auto;text-rendering:auto;enable-background:accumulate" d="m 22.15625,1044.1309 a 0.250025,0.250025 0 0 0 -0.185547,0.1015 l -1.855469,2.4746 a 0.25039648,0.25039648 0 1 0 0.400391,0.3008 l 1.855469,-2.4746 a 0.250025,0.250025 0 0 0 -0.214844,-0.4023 z"></path><path style="color:#000000;font-style:normal;font-variant:normal;font-weight:normal;font-stretch:normal;font-size:medium;line-height:normal;font-family:sans-serif;text-indent:0;text-align:start;text-decoration:none;text-decoration-line:none;text-decoration-style:solid;text-decoration-color:#000000;letter-spacing:normal;word-spacing:normal;text-transform:none;direction:ltr;block-progression:tb;writing-mode:lr-tb;baseline-shift:baseline;text-anchor:start;white-space:normal;clip-rule:nonzero;display:inline;overflow:visible;visibility:visible;opacity:1;isolation:auto;mix-blend-mode:normal;color-interpolation:sRGB;color-interpolation-filters:linearRGB;solid-color:#000000;solid-opacity:1;fill:#000000;fill-opacity:1;fill-rule:evenodd;stroke:none;stroke-width:0.5;stroke-linecap:round;stroke-linejoin:round;stroke-miterlimit:4;stroke-dasharray:none;stroke-dashoffset:0;stroke-opacity:1;color-rendering:auto;image-rendering:auto;shape-rendering:auto;text-rendering:auto;enable-background:accumulate" d="m 22.640625,1045.1465 a 0.250025,0.250025 0 0 0 -0.183594,0.1035 l -1.503906,2.0332 a 0.250025,0.250025 0 1 0 0.402344,0.2969 l 1.501953,-2.0332 a 0.250025,0.250025 0 0 0 -0.216797,-0.4004 z"></path><path style="color:#000000;font-style:normal;font-variant:normal;font-weight:normal;font-stretch:normal;font-size:medium;line-height:normal;font-family:sans-serif;text-indent:0;text-align:start;text-decoration:none;text-decoration-line:none;text-decoration-style:solid;text-decoration-color:#000000;letter-spacing:normal;word-spacing:normal;text-transform:none;direction:ltr;block-progression:tb;writing-mode:lr-tb;baseline-shift:baseline;text-anchor:start;white-space:normal;clip-rule:nonzero;display:inline;overflow:visible;visibility:visible;opacity:1;isolation:auto;mix-blend-mode:normal;color-interpolation:sRGB;color-interpolation-filters:linearRGB;solid-color:#000000;solid-opacity:1;fill:#000000;fill-opacity:1;fill-rule:evenodd;stroke:none;stroke-width:0.5;stroke-linecap:round;stroke-linejoin:round;stroke-miterlimit:4;stroke-dasharray:none;stroke-dashoffset:0;stroke-opacity:1;color-rendering:auto;image-rendering:auto;shape-rendering:auto;text-rendering:auto;enable-background:accumulate" d="m 23.083984,1046.1191 a 0.250025,0.250025 0 0 0 -0.210937,0.1446 l -0.574219,1.1933 a 0.25027905,0.25027905 0 0 0 0.451172,0.2168 l 0.574219,-1.1933 a 0.250025,0.250025 0 0 0 -0.240235,-0.3614 z"></path></g></svg>