<svg width="140" height="51" viewBox="0 0 140 51" fill="none" xmlns="http://www.w3.org/2000/svg">
  <path d="M25.091 11l-4.635 28.864h-6.66l1.693-10.423H8.315L6.659 39.864H0L4.672 11h6.623L9.308 23.187h7.174L18.47 11h6.622zM38.75 39.864l.221-6.294h-6.144l-1.802 6.294h-7.028L33.453 11h12.14l.148 28.864h-6.99zm-1.508-21.848l-2.906 10.182h4.82l.404-10.182h-2.318zM74.314 11l-4.636 28.864h-6.66L58.384 24.07l-2.502 15.795h-6.659L53.895 11h6.843L65.3 25.753 67.69 11h6.623zM89.85 11c3.212 0 5.506.882 6.879 2.646 1.006 1.336 1.508 3.007 1.508 5.011 0 .722-.06 1.483-.183 2.285l-1.435 8.94c-.49 3.02-1.693 5.439-3.606 7.256-1.913 1.818-4.39 2.726-7.432 2.726H74.875L79.548 11h10.301zm-2.319 6.254H85.14L82.528 33.61h3.495c1.153 0 2.048-.334 2.686-1.002.662-.695 1.116-1.817 1.36-3.367l1.068-6.575a9.82 9.82 0 0 0 .147-1.604c0-2.539-1.25-3.808-3.753-3.808zM117.955 39.864H99.486L104.16 11h18.469l-1.03 6.254h-11.847l-.846 5.412h9.786l-1.03 6.254h-9.786l-.736 4.69h11.847l-1.031 6.254zM138.97 39.864h-16.777L126.866 11h6.622l-3.642 22.61H140l-1.03 6.254zM74 45h64l-2 6H72l2-6zM7 0h70l-2 6H5l2-6z" fill="#000"/>
</svg>
