<svg width="152" height="38" viewBox="0 0 152 38" fill="none" xmlns="http://www.w3.org/2000/svg">
<path d="M41.274 33.9646C38.754 33.9646 36.822 33.5326 35.478 32.6686C34.158 31.7806 33.498 30.4846 33.498 28.7806C33.498 27.9166 33.786 27.2086 34.362 26.6566C34.962 26.0806 35.73 25.7926 36.666 25.7926C37.218 25.8166 37.638 25.9606 37.926 26.2246C38.214 26.4646 38.358 26.6926 38.358 26.9086C38.358 26.9326 38.238 27.0166 37.998 27.1606C37.758 27.3046 37.542 27.5206 37.35 27.8086C37.158 28.0966 37.062 28.4926 37.062 28.9966C37.062 30.1246 37.398 31.0006 38.07 31.6246C38.766 32.2246 39.834 32.5246 41.274 32.5246C42.258 32.5246 43.122 32.3326 43.866 31.9486C44.61 31.5646 45.174 31.0606 45.558 30.4366C45.966 29.7886 46.17 29.1166 46.17 28.4206C46.17 27.5566 45.918 26.8126 45.414 26.1886C44.934 25.5646 44.334 25.0486 43.614 24.6406C42.894 24.2086 41.91 23.7166 40.662 23.1646C39.222 22.5166 38.058 21.9286 37.17 21.4006C36.282 20.8726 35.526 20.1766 34.902 19.3126C34.278 18.4246 33.966 17.3326 33.966 16.0366C33.966 13.9486 34.674 12.3886 36.09 11.3566C37.53 10.3246 39.414 9.80859 41.742 9.80859C43.566 9.80859 45.15 10.1926 46.494 10.9606C47.862 11.7286 48.546 12.8566 48.546 14.3446C48.546 15.2086 48.246 15.9286 47.646 16.5046C47.07 17.0566 46.314 17.3326 45.378 17.3326C44.826 17.3086 44.406 17.1766 44.118 16.9366C43.83 16.6726 43.686 16.4326 43.686 16.2166C43.686 16.1926 43.842 16.1086 44.154 15.9646C44.49 15.8206 44.778 15.6046 45.018 15.3166C45.282 15.0286 45.414 14.6326 45.414 14.1286C45.414 13.2406 45.066 12.5446 44.37 12.0406C43.698 11.5366 42.834 11.2846 41.778 11.2846C40.314 11.2846 39.198 11.6326 38.43 12.3286C37.686 13.0006 37.314 13.8406 37.314 14.8486C37.314 15.6886 37.542 16.3966 37.998 16.9726C38.454 17.5246 39.186 18.0766 40.194 18.6286C41.01 19.0606 41.898 19.4926 42.858 19.9246C44.394 20.6206 45.606 21.2566 46.494 21.8326C47.406 22.4086 48.162 23.1646 48.762 24.1006C49.386 25.0366 49.698 26.2006 49.698 27.5926C49.698 28.7926 49.314 29.8846 48.546 30.8686C47.802 31.8286 46.782 32.5846 45.486 33.1366C44.214 33.6886 42.81 33.9646 41.274 33.9646Z" fill="#17212B"/>
<path d="M59.4997 33.6756C57.8677 33.6756 56.5717 33.1836 55.6117 32.1996C54.6517 31.2156 54.1717 29.9196 54.1717 28.3116V21.6516C54.1717 21.0276 54.1477 20.5716 54.0997 20.2836C54.0757 19.9956 53.9317 19.7436 53.6677 19.5276C53.4037 19.3116 52.9597 19.2036 52.3357 19.2036C52.0477 19.2036 51.8317 19.1676 51.6877 19.0956C51.5437 18.9996 51.4717 18.7956 51.4717 18.4836C51.4717 18.3396 51.5197 18.2076 51.6157 18.0876C51.7117 17.9436 51.8557 17.8596 52.0477 17.8356C53.5597 17.6196 54.8557 17.3076 55.9357 16.8996C56.2717 16.7796 56.5477 16.7076 56.7637 16.6836H56.8717C57.2557 16.6836 57.4477 16.9116 57.4477 17.3676V28.2756C57.4477 29.3796 57.7957 30.2316 58.4917 30.8316C59.1877 31.4076 59.9917 31.6956 60.9037 31.6956C62.0317 31.6956 62.9917 31.4196 63.7837 30.8676C64.5757 30.3156 65.1037 29.7636 65.3677 29.2116V21.6516C65.3677 21.0276 65.3437 20.5716 65.2957 20.2836C65.2717 19.9956 65.1277 19.7436 64.8637 19.5276C64.5997 19.3116 64.1557 19.2036 63.5317 19.2036C63.2437 19.2036 63.0277 19.1676 62.8837 19.0956C62.7397 18.9996 62.6677 18.7956 62.6677 18.4836C62.6677 18.3396 62.7157 18.2076 62.8117 18.0876C62.9077 17.9436 63.0517 17.8596 63.2437 17.8356C64.7557 17.6196 66.0517 17.3076 67.1317 16.8996C67.4677 16.7796 67.7437 16.7076 67.9597 16.6836H68.0677C68.4517 16.6836 68.6437 16.9116 68.6437 17.3676V29.8236C68.6437 31.2396 69.5917 31.9476 71.4877 31.9476C71.8957 31.9476 72.0997 32.1756 72.0997 32.6316C72.0997 32.9676 71.8957 33.1716 71.4877 33.2436L65.6917 33.6396C65.5237 33.6396 65.4277 33.5796 65.4037 33.4596C65.3797 33.3636 65.3677 33.1836 65.3677 32.9196V30.9036H65.2957C64.5997 31.5516 64.0357 32.0556 63.6037 32.4156C63.1717 32.7516 62.6077 33.0396 61.9117 33.2796C61.2397 33.5436 60.4357 33.6756 59.4997 33.6756Z" fill="#17212B"/>
<path d="M74.0692 33.3522C73.9012 33.3522 73.7572 33.2802 73.6372 33.1362C73.5412 32.9922 73.4932 32.8242 73.4932 32.6322C73.5172 32.3202 73.5892 32.1402 73.7092 32.0922C73.8292 32.0202 74.0452 31.9842 74.3572 31.9842C74.9812 31.9842 75.4252 31.8762 75.6892 31.6602C75.9532 31.4442 76.0972 31.1922 76.1212 30.9042C76.1692 30.6162 76.1932 30.1602 76.1932 29.5362V21.2922C76.1932 20.6682 76.1692 20.2122 76.1212 19.9242C76.0972 19.6362 75.9532 19.3842 75.6892 19.1682C75.4252 18.9522 74.9812 18.8442 74.3572 18.8442C74.0692 18.8442 73.8532 18.8082 73.7092 18.7362C73.5652 18.6402 73.4932 18.4362 73.4932 18.1242C73.4932 17.9802 73.5412 17.8482 73.6372 17.7282C73.7332 17.5842 73.8772 17.5002 74.0692 17.4762C75.6292 17.2362 76.9132 16.9242 77.9212 16.5402C78.3292 16.4202 78.6052 16.3482 78.7492 16.3242H78.8572C79.2412 16.3242 79.4332 16.5522 79.4332 17.0082V19.2402H79.5412C80.3812 18.4002 81.2332 17.7402 82.0972 17.2602C82.9612 16.7562 83.7412 16.5042 84.4372 16.5042C85.2292 16.5042 85.8532 16.8042 86.3092 17.4042C86.7892 17.9802 87.0292 18.6522 87.0292 19.4202C87.0292 20.0922 86.8252 20.6922 86.4172 21.2202C86.0092 21.7482 85.4452 22.0122 84.7252 22.0122C84.3892 22.0122 84.0892 21.9402 83.8252 21.7962C83.5852 21.6522 83.4532 21.5322 83.4292 21.4362C83.4532 21.3882 83.5732 21.2442 83.7892 21.0042C84.0052 20.7402 84.1132 20.4402 84.1132 20.1042C84.1132 19.6722 83.9932 19.3242 83.7532 19.0602C83.5372 18.7962 83.2372 18.6642 82.8532 18.6642C82.4452 18.6642 81.9292 18.8682 81.3052 19.2762C80.6812 19.6602 80.0692 20.1522 79.4692 20.7522V29.5362C79.4692 30.1602 79.4932 30.6162 79.5412 30.9042C79.5892 31.1922 79.7452 31.4442 80.0092 31.6602C80.2732 31.8762 80.7172 31.9842 81.3412 31.9842H81.5572C81.7492 31.9842 81.8932 32.0202 81.9892 32.0922C82.0852 32.1642 82.1452 32.3442 82.1692 32.6322C82.1692 32.8242 82.1212 32.9922 82.0252 33.1362C81.9292 33.2802 81.7852 33.3522 81.5932 33.3522C80.2012 33.2802 78.9412 33.2442 77.8132 33.2442C76.7332 33.2442 75.4852 33.2802 74.0692 33.3522Z" fill="#17212B"/>
<path d="M129.981 33.6759C128.349 33.6759 126.897 33.2919 125.625 32.5239C124.353 31.7319 123.357 30.6999 122.637 29.4279C121.941 28.1319 121.593 26.7639 121.593 25.3239C121.593 23.5239 122.013 21.9639 122.853 20.6439C123.693 19.2999 124.761 18.2799 126.057 17.5839C127.353 16.8639 128.661 16.5039 129.981 16.5039C131.613 16.5039 133.065 16.8999 134.337 17.6919C135.609 18.4599 136.593 19.4919 137.289 20.7879C138.009 22.0599 138.369 23.4159 138.369 24.8559C138.369 26.6559 137.937 28.2279 137.073 29.5719C136.233 30.8919 135.165 31.9119 133.869 32.6319C132.573 33.3279 131.277 33.6759 129.981 33.6759ZM129.981 32.3439C131.613 32.3439 132.801 31.6479 133.545 30.2559C134.313 28.8639 134.697 27.0639 134.697 24.8559C134.697 22.7919 134.301 21.1119 133.509 19.8159C132.741 18.4959 131.565 17.8359 129.981 17.8359C128.325 17.8359 127.125 18.5199 126.381 19.8879C125.637 21.2559 125.265 23.0439 125.265 25.2519C125.265 27.3159 125.649 29.0199 126.417 30.3639C127.185 31.6839 128.373 32.3439 129.981 32.3439Z" fill="#17212B"/>
<path d="M147.44 33.8561C146.264 33.8561 145.256 33.4241 144.416 32.5601C143.576 31.6961 143.156 30.4601 143.156 28.8521V18.2681L141.068 18.3401C140.924 18.3401 140.804 18.2801 140.708 18.1601C140.612 18.0161 140.564 17.8601 140.564 17.6921C140.564 17.4761 140.6 17.2961 140.672 17.1521C140.768 16.9841 140.9 16.8881 141.068 16.8641C141.908 16.6961 142.556 16.4321 143.012 16.0721C143.492 15.6881 143.84 15.2801 144.056 14.8481C144.272 14.3921 144.536 13.7081 144.848 12.7961C144.968 12.4841 145.232 12.3281 145.64 12.3281C145.808 12.3281 145.976 12.3761 146.144 12.4721C146.312 12.5441 146.396 12.6641 146.396 12.8321L146.144 16.9361L150.356 16.6841H150.428C150.74 16.6841 150.896 16.9121 150.896 17.3681C150.896 17.6321 150.848 17.8841 150.752 18.1241C150.68 18.3401 150.584 18.4481 150.464 18.4481L146.432 18.3401V29.2841C146.432 30.0761 146.588 30.7361 146.9 31.2641C147.236 31.7921 147.776 32.0561 148.52 32.0561C149.264 32.0561 149.924 31.9241 150.5 31.6601C150.812 31.5401 151.004 31.4801 151.076 31.4801C151.244 31.4801 151.376 31.5521 151.472 31.6961C151.568 31.8161 151.664 31.9841 151.76 32.2001C151.784 32.2481 151.796 32.3081 151.796 32.3801C151.796 32.4761 151.724 32.5841 151.58 32.7041C150.884 33.1601 150.224 33.4601 149.6 33.6041C149 33.7721 148.28 33.8561 147.44 33.8561Z" fill="#17212B"/>
<path d="M89.254 33.136C89.35 33.28 89.494 33.352 89.686 33.352C91.054 33.28 92.302 33.244 93.43 33.244C95.038 33.244 96.538 33.28 97.93 33.352C98.098 33.352 98.23 33.28 98.326 33.136C98.422 32.992 98.47 32.824 98.47 32.632C98.446 32.344 98.386 32.164 98.29 32.092C98.218 32.02 98.074 31.984 97.858 31.984H97.642C96.85 31.984 96.286 31.924 95.95 31.804C95.614 31.684 95.386 31.468 95.266 31.156C95.146 30.82 95.086 30.28 95.086 29.536V18.34H98.902C99.07 18.34 99.214 18.268 99.334 18.124C99.454 17.98 99.514 17.812 99.514 17.62C99.49 17.332 99.418 17.152 99.298 17.08C99.202 16.984 99.046 16.936 98.83 16.936H95.086V14.776C95.086 13.624 95.134 12.616 95.23 11.752C95.326 10.864 95.602 10.048 96.058 9.304C96.514 8.56 97.222 8.188 98.182 8.188C98.2924 8.188 98.3992 8.1945 98.5023 8.2075C98.4885 7.80132 98.5159 7.39272 98.5814 7.00177C98.5325 7.00059 98.4834 7 98.434 7C96.322 7.048 94.678 7.852 93.502 9.412C92.35 10.948 91.774 12.952 91.774 15.424V16.936H89.614C89.302 16.936 89.086 16.972 88.966 17.044C88.846 17.092 88.774 17.284 88.75 17.62C88.75 17.812 88.798 17.98 88.894 18.124C89.014 18.268 89.17 18.34 89.362 18.34H91.774V29.536C91.774 30.184 91.75 30.652 91.702 30.94C91.678 31.204 91.534 31.444 91.27 31.66C91.006 31.876 90.562 31.984 89.938 31.984C89.626 31.984 89.41 32.02 89.29 32.092C89.194 32.14 89.134 32.32 89.11 32.632C89.11 32.824 89.158 32.992 89.254 33.136Z" fill="#17212B"/>
<path fill-rule="evenodd" clip-rule="evenodd" d="M108.498 8C108.498 10.2091 106.707 12 104.498 12C102.289 12 100.498 10.2091 100.498 8C100.498 5.79086 102.289 4 104.498 4C106.707 4 108.498 5.79086 108.498 8ZM104.498 10C105.603 10 106.498 9.10457 106.498 8C106.498 6.89543 105.603 6 104.498 6C103.394 6 102.498 6.89543 102.498 8C102.498 9.10457 103.394 10 104.498 10Z" fill="#17212B"/>
<path fill-rule="evenodd" clip-rule="evenodd" d="M102.745 13.7383V33.0264C102.745 33.2424 102.805 33.4104 102.925 33.5304C103.045 33.6744 103.213 33.7464 103.429 33.7464C103.645 33.7464 103.825 33.6504 103.969 33.4584C104.113 33.2904 104.245 33.0384 104.365 32.7024C104.485 32.3664 104.593 32.1024 104.689 31.9104H104.869C106.429 33.0864 108.277 33.6744 110.413 33.6744C111.853 33.6744 113.209 33.2904 114.481 32.5224C115.753 31.7544 116.761 30.7104 117.505 29.3904C118.273 28.0464 118.657 26.5704 118.657 24.9624C118.657 23.3304 118.321 21.8784 117.649 20.6064C117.001 19.3104 116.101 18.3024 114.949 17.5824C113.797 16.8624 112.513 16.5024 111.097 16.5024C110.233 16.5024 109.357 16.6824 108.469 17.0424C107.605 17.3784 106.825 17.8944 106.129 18.5904H106.021V13.8034C104.951 14.0836 103.804 14.0612 102.745 13.7383ZM113.617 30.4704C112.729 31.7904 111.553 32.4504 110.089 32.4504C109.321 32.4504 108.637 32.2824 108.037 31.9464C107.461 31.6104 106.993 31.2144 106.633 30.7584C106.297 30.2784 106.093 29.8464 106.021 29.4624V19.9584C107.053 18.8544 108.325 18.3024 109.837 18.3024C111.541 18.3024 112.825 18.9744 113.689 20.3184C114.553 21.6384 114.985 23.2344 114.985 25.1064C114.985 27.3384 114.529 29.1264 113.617 30.4704Z" fill="#17212B"/>
<path fill-rule="evenodd" clip-rule="evenodd" d="M9.63967 0.7794C10.1612 0.406867 10.8618 0.406867 11.3834 0.7794C17.8802 5.42002 20.8255 10.9833 21.0111 18.9651C21.0968 22.7765 20.7299 26.2663 19.6133 29.281C18.4681 32.2975 16.4315 35.0845 13.4332 37.438C13.0549 37.7326 12.5585 37.8286 12.0976 37.6963C11.1793 37.4327 11.023 36.3442 10.5115 35.6657C9.99974 36.3446 9.84439 37.4325 8.9254 37.6963C8.46452 37.8286 7.96817 37.7326 7.58987 37.438C4.5915 35.0845 2.55499 32.2975 1.40971 29.281C0.293102 26.2663 -0.0737632 22.7765 0.0119281 18.9651C0.197553 10.9833 3.1428 5.42002 9.63967 0.7794ZM12.9984 34C14.8746 32.275 16.0052 30.3926 16.8041 28.2283C17.8092 25.5815 18.0991 22.6583 18.0119 19.0349C17.8672 12.811 16.4108 8.76064 11.9984 5V16C13.7236 16.444 14.4984 18.1362 14.4984 20C14.4984 21.8638 13.7236 23.556 11.9984 24V33C11.9984 33 12.8001 33.7391 12.9984 34ZM7.99835 34C6.12206 32.275 5.01787 30.3926 4.21893 28.2283C3.21389 25.5815 2.92391 22.6583 3.01112 19.0349C3.15557 12.8234 4.60442 8.75563 8.99835 5V16C7.27312 16.444 6.49835 18.1362 6.49835 20C6.49835 21.8638 7.27312 23.556 8.99835 24V33C8.99835 33 8.18923 33.7487 7.99835 34ZM10.4984 18C9.39378 18 8.49835 18.8954 8.49835 20C8.49835 21.1046 9.39378 22 10.4984 22C11.6029 22 12.4984 21.1046 12.4984 20C12.4984 18.8954 11.6029 18 10.4984 18Z" fill="#17212B"/>
</svg>
