<svg width="104" height="38" viewBox="0 0 104 38" fill="none" xmlns="http://www.w3.org/2000/svg">
<path d="M7.992 3.736V30.76H20.952L20.136 37H0.119995V3.736H7.992Z" fill="#141414"/>
<path d="M34.4066 10.696C38.3106 10.696 41.3666 11.896 43.5746 14.296C45.7826 16.664 46.8866 19.992 46.8866 24.28C46.8866 27 46.3746 29.384 45.3506 31.432C44.3586 33.448 42.9186 35.016 41.0306 36.136C39.1746 37.256 36.9666 37.816 34.4066 37.816C30.5346 37.816 27.4786 36.632 25.2386 34.264C23.0306 31.864 21.9266 28.52 21.9266 24.232C21.9266 21.512 22.4226 19.144 23.4146 17.128C24.4386 15.08 25.8786 13.496 27.7346 12.376C29.6226 11.256 31.8466 10.696 34.4066 10.696ZM34.4066 16.264C32.8706 16.264 31.7186 16.92 30.9506 18.232C30.1826 19.512 29.7986 21.512 29.7986 24.232C29.7986 27.016 30.1666 29.048 30.9026 30.328C31.6706 31.608 32.8386 32.248 34.4066 32.248C35.9426 32.248 37.0946 31.608 37.8626 30.328C38.6306 29.016 39.0146 27 39.0146 24.28C39.0146 21.496 38.6306 19.464 37.8626 18.184C37.1266 16.904 35.9746 16.264 34.4066 16.264Z" fill="#141414"/>
<path d="M65.8459 10.696C68.8859 10.696 71.2219 11.896 72.8539 14.296C74.4859 16.664 75.3019 19.992 75.3019 24.28C75.3019 26.904 74.8859 29.24 74.0539 31.288C73.2539 33.336 72.0859 34.936 70.5499 36.088C69.0459 37.24 67.2539 37.816 65.1739 37.816C63.7979 37.816 62.5339 37.528 61.3819 36.952C60.2619 36.376 59.3019 35.576 58.5019 34.552L58.1179 37H51.3979V1.38399L58.9819 0.567993V14.104C59.7499 13.048 60.7259 12.216 61.9099 11.608C63.1259 11 64.4379 10.696 65.8459 10.696ZM62.9659 32.296C65.9419 32.296 67.4299 29.624 67.4299 24.28C67.4299 21.24 67.0779 19.144 66.3739 17.992C65.6699 16.84 64.6459 16.264 63.3019 16.264C61.6059 16.264 60.1659 17.256 58.9819 19.24V29.848C59.4619 30.616 60.0379 31.224 60.7099 31.672C61.4139 32.088 62.1659 32.296 62.9659 32.296Z" fill="#141414"/>
<path d="M91.0785 10.696C94.9825 10.696 98.0385 11.896 100.246 14.296C102.454 16.664 103.558 19.992 103.558 24.28C103.558 27 103.046 29.384 102.022 31.432C101.03 33.448 99.5905 35.016 97.7025 36.136C95.8465 37.256 93.6385 37.816 91.0785 37.816C87.2065 37.816 84.1505 36.632 81.9105 34.264C79.7025 31.864 78.5985 28.52 78.5985 24.232C78.5985 21.512 79.0945 19.144 80.0865 17.128C81.1105 15.08 82.5505 13.496 84.4065 12.376C86.2945 11.256 88.5185 10.696 91.0785 10.696ZM91.0785 16.264C89.5425 16.264 88.3905 16.92 87.6225 18.232C86.8545 19.512 86.4705 21.512 86.4705 24.232C86.4705 27.016 86.8385 29.048 87.5745 30.328C88.3425 31.608 89.5105 32.248 91.0785 32.248C92.6145 32.248 93.7665 31.608 94.5345 30.328C95.3025 29.016 95.6865 27 95.6865 24.28C95.6865 21.496 95.3025 19.464 94.5345 18.184C93.7985 16.904 92.6465 16.264 91.0785 16.264Z" fill="#141414"/>
</svg>
