<svg width="32" height="32" viewBox="0 0 32 32" fill="none" xmlns="http://www.w3.org/2000/svg">
<path d="M8.06652 10.7333C6.32089 12.4792 5.33802 14.8456 5.33303 17.3145C5.32803 19.7834 6.30131 22.1537 8.03985 23.9067C9.99985 19.3733 13.4932 15.5867 17.8532 13.3333C14.0899 16.5176 11.5496 20.9101 10.6665 25.76C14.1332 27.4 18.3999 26.8 21.2665 23.9333C25.2532 19.9467 26.3732 9.08 26.6132 6.09333C26.6215 5.99843 26.609 5.90286 26.5764 5.81332C26.5439 5.72379 26.4921 5.64249 26.4247 5.57512C26.3574 5.50776 26.2761 5.45597 26.1865 5.42342C26.097 5.39086 26.0014 5.37831 25.9065 5.38667C22.9199 5.62667 12.0532 6.74667 8.06652 10.7333Z" fill="url(#paint0_linear_29:94)"/>
<defs>
<linearGradient id="paint0_linear_29:94" x1="15.9744" y1="5.38416" x2="15.9744" y2="26.6592" gradientUnits="userSpaceOnUse">
<stop stop-color="#FFBF00"/>
<stop offset="1" stop-color="#F2A50C"/>
</linearGradient>
</defs>
</svg>
