<svg width="32" height="32" viewBox="0 0 32 32" fill="none" xmlns="http://www.w3.org/2000/svg">
<path d="M25.9463 13.3333C25.8147 13.5277 25.7368 13.7534 25.7205 13.9875C25.7041 14.2216 25.7498 14.4559 25.8529 14.6667C26.1836 15.4387 26.4169 16.2493 26.5463 17.08C26.8895 19.2269 26.5685 21.4273 25.6263 23.3867C25.5118 23.6016 25.3407 23.7811 25.1316 23.9056C24.9224 24.0302 24.6831 24.0951 24.4396 24.0933H7.57293C7.32809 24.0938 7.08784 24.0269 6.87852 23.8999C6.6692 23.7729 6.49889 23.5907 6.38626 23.3733C5.53277 21.6419 5.16512 19.7113 5.32251 17.7874C5.4799 15.8635 6.15643 14.0183 7.27997 12.4487C8.40352 10.879 9.93197 9.64362 11.7024 8.87426C13.4728 8.1049 15.4188 7.8304 17.3329 8.08C18.3014 8.19384 19.2488 8.44526 20.1463 8.82667C20.3571 8.92983 20.5914 8.97553 20.8255 8.95914C21.0596 8.94275 21.2852 8.86486 21.4796 8.73334C21.6821 8.59993 21.8444 8.41382 21.949 8.19504C22.0536 7.97626 22.0965 7.73309 22.0732 7.49172C22.0499 7.25034 21.9612 7.01989 21.8167 6.82518C21.6721 6.63046 21.4772 6.47886 21.2529 6.38667C18.6772 5.28221 15.8189 5.01745 13.0841 5.63C10.3494 6.24255 7.87712 7.70126 6.0186 9.79891C4.16009 11.8966 3.0098 14.5265 2.73113 17.3152C2.45246 20.1038 3.05959 22.9094 4.46626 25.3333C4.69894 25.7364 5.03305 26.0715 5.43537 26.3054C5.83769 26.5393 6.29423 26.6639 6.7596 26.6667H25.2263C25.6962 26.6685 26.1582 26.5462 26.5656 26.3121C26.973 26.0779 27.3113 25.7403 27.5463 25.3333C28.5761 23.5486 29.1783 21.5494 29.3055 19.4928C29.4328 17.4362 29.0816 15.3781 28.2796 13.48C28.178 13.2637 28.0202 13.0786 27.8226 12.9442C27.625 12.8098 27.3949 12.731 27.1563 12.716C26.9178 12.701 26.6797 12.7504 26.4668 12.859C26.2539 12.9676 26.0741 13.1314 25.9463 13.3333Z" fill="url(#paint0_linear_29:121)"/>
<path d="M14.1203 16.7868C13.62 17.2872 13.3389 17.9658 13.3389 18.6734C13.3389 19.0238 13.4079 19.3708 13.542 19.6945C13.6761 20.0182 13.8726 20.3124 14.1203 20.5601C14.3681 20.8079 14.6622 21.0044 14.986 21.1385C15.3097 21.2726 15.6566 21.3416 16.007 21.3416C16.7147 21.3416 17.3933 21.0605 17.8937 20.5601L25.4403 9.24011L14.1203 16.7868Z" fill="url(#paint1_linear_29:121)"/>
<defs>
<linearGradient id="paint0_linear_29:121" x1="15.998" y1="5.30762" x2="15.998" y2="26.6667" gradientUnits="userSpaceOnUse">
<stop stop-color="#FFBF00"/>
<stop offset="1" stop-color="#F2A50C"/>
</linearGradient>
<linearGradient id="paint1_linear_29:121" x1="19.3896" y1="9.24011" x2="19.3896" y2="21.3416" gradientUnits="userSpaceOnUse">
<stop stop-color="#FFBF00"/>
<stop offset="1" stop-color="#F2A50C"/>
</linearGradient>
</defs>
</svg>
