<svg width="350" height="75" viewBox="0 0 350 75" fill="none" xmlns="http://www.w3.org/2000/svg">
  <path d="M13.2092 29.3766C14.9076 26.8577 17.2349 24.8111 20.1913 23.2368C23.2105 21.6625 26.6386 20.8753 30.4756 20.8753C34.9416 20.8753 38.9672 21.9773 42.5526 24.1814C46.2009 26.3854 49.0629 29.534 51.1386 33.6272C53.2773 37.6574 54.3466 42.3489 54.3466 47.7015C54.3466 53.0542 53.2773 57.8086 51.1386 61.9647C49.0629 66.0579 46.2009 69.238 42.5526 71.505C38.9672 73.772 34.9416 74.9055 30.4756 74.9055C26.5757 74.9055 23.1476 74.1499 20.1913 72.6385C17.2978 71.0642 14.9705 69.0491 13.2092 66.5932V74.0554H0V4.15617H13.2092V29.3766ZM40.8543 47.7015C40.8543 44.5529 40.1938 41.8451 38.8729 39.5781C37.6149 37.2481 35.9165 35.4849 33.7779 34.2884C31.7022 33.0919 29.4377 32.4937 26.9846 32.4937C24.5943 32.4937 22.3299 33.1234 20.1913 34.3829C18.1155 35.5793 16.4172 37.3426 15.0963 39.6725C13.8382 42.0025 13.2092 44.7418 13.2092 47.8904C13.2092 51.039 13.8382 53.7783 15.0963 56.1083C16.4172 58.4383 18.1155 60.233 20.1913 61.4924C22.3299 62.6889 24.5943 63.2872 26.9846 63.2872C29.4377 63.2872 31.7022 62.6574 33.7779 61.398C35.9165 60.1385 37.6149 58.3438 38.8729 56.0139C40.1938 53.6839 40.8543 50.9131 40.8543 47.7015Z" fill="black"/>
  <path d="M70.6443 15.4912C68.317 15.4912 66.3671 14.767 64.7945 13.3186C63.2849 11.8073 62.5301 9.94962 62.5301 7.74559C62.5301 5.54156 63.2849 3.71536 64.7945 2.267C66.3671 0.755666 68.317 0 70.6443 0C72.9717 0 74.8902 0.755666 76.3998 2.267C77.9723 3.71536 78.7586 5.54156 78.7586 7.74559C78.7586 9.94962 77.9723 11.8073 76.3998 13.3186C74.8902 14.767 72.9717 15.4912 70.6443 15.4912ZM77.1546 21.7254V74.0554H63.9454V21.7254H77.1546Z" fill="black"/>
  <path d="M121.153 74.0554L103.415 51.7632V74.0554H90.2054V4.15617H103.415V43.9232L120.964 21.7254H138.136L115.114 47.9849L138.325 74.0554H121.153Z" fill="black"/>
  <path d="M139.288 47.8904C139.288 42.4748 140.389 37.7519 142.59 33.7217C144.792 29.6285 147.842 26.4798 151.742 24.2758C155.642 22.0088 160.108 20.8753 165.14 20.8753C171.619 20.8753 176.966 22.5126 181.18 25.7871C185.457 28.9987 188.319 33.5327 189.766 39.3892H175.519C174.764 37.1222 173.474 35.3589 171.65 34.0995C169.889 32.7771 167.688 32.1159 165.046 32.1159C161.272 32.1159 158.284 33.5013 156.082 36.272C153.881 38.9798 152.78 42.8526 152.78 47.8904C152.78 52.8652 153.881 56.738 156.082 59.5088C158.284 62.2166 161.272 63.5705 165.046 63.5705C170.392 63.5705 173.883 61.1776 175.519 56.3917H189.766C188.319 62.0592 185.457 66.5617 181.18 69.8992C176.903 73.2368 171.556 74.9055 165.14 74.9055C160.108 74.9055 155.642 73.8035 151.742 71.5995C147.842 69.3325 144.792 66.1839 142.59 62.1537C140.389 58.0605 139.288 53.306 139.288 47.8904Z" fill="black"/>
  <path d="M210.031 29.8489C211.73 27.0781 213.931 24.9055 216.636 23.3312C219.403 21.7569 222.548 20.9698 226.071 20.9698V34.8552H222.58C218.428 34.8552 215.283 35.8312 213.145 37.7834C211.069 39.7355 210.031 43.136 210.031 47.9849V74.0554H196.822V21.7254H210.031V29.8489Z" fill="black"/>
  <path d="M266.576 66.5932C265.129 68.9861 262.77 71.0013 259.499 72.6385C256.229 74.2128 252.706 75 248.932 75C245.661 75 242.705 74.3388 240.063 73.0164C237.421 71.694 235.345 69.8678 233.836 67.5378C232.326 65.2078 231.571 62.5315 231.571 59.5088C231.571 54.66 233.364 50.6927 236.949 47.6071C240.598 44.5214 246.039 42.9786 253.272 42.9786H266.576C266.45 39.6411 265.475 36.9962 263.651 35.0441C261.89 33.029 259.437 32.0214 256.292 32.0214C253.524 32.0214 251.228 32.7771 249.404 34.2884C247.58 35.7368 246.416 37.7834 245.913 40.4282H232.704C233.333 36.6499 234.685 33.2809 236.761 30.3212C238.899 27.2985 241.667 24.9685 245.064 23.3312C248.523 21.631 252.392 20.7809 256.669 20.7809C261.072 20.7809 265.035 21.694 268.557 23.5202C272.143 25.3463 274.942 27.9597 276.954 31.3602C278.967 34.7607 279.974 38.7594 279.974 43.3564V74.0554H266.576V66.5932ZM252.8 64.3262C255.002 64.3262 257.141 63.8539 259.216 62.9093C261.355 61.9647 263.116 60.5479 264.5 58.6587C265.884 56.7695 266.576 54.534 266.576 51.9521V51.5743H254.027C251.008 51.5743 248.743 52.1725 247.234 53.369C245.787 54.5655 245.064 56.1398 245.064 58.0919C245.064 59.9811 245.724 61.4924 247.045 62.6259C248.429 63.7594 250.347 64.3262 252.8 64.3262Z" fill="black"/>
  <path d="M307.83 32.5882V74.0554H294.432V32.5882H288.488V21.7254H294.432V19.0806C294.432 12.6574 296.256 7.93451 299.904 4.91184C303.552 1.88917 309.056 0.472293 316.416 0.661211V11.8073C313.208 11.7443 310.975 12.2796 309.717 13.4131C308.459 14.5466 307.83 16.5932 307.83 19.5529V21.7254H324.997V8.78463H338.3V21.7254H350V32.5882H338.3V57.903C338.3 59.6663 338.709 60.9572 339.527 61.7758C340.408 62.5315 341.854 62.9093 343.867 62.9093H350V74.0554H341.697C330.564 74.0554 324.997 68.6398 324.997 57.8086V32.5882H307.83Z" fill="black"/>
</svg>