<svg id="Layer_1" xmlns="http://www.w3.org/2000/svg" viewBox="0 0 41 41">
  <style>
    .st0{fill:none;stroke:#000000;stroke-linejoin:round;stroke-miterlimit:10;}
  </style>
  <path class="st0" d="M32.7 33.5h5.2c1.4 0 2.6-1.2 2.6-2.6v-6.1L37 21.4V5.7C37 2.8 34.7.5 31.8.5H9.2C6.3.5 4 2.8 4 5.7v15.7L.5 24.9V31c0 1.4 1.2 2.6 2.6 2.6h5.2"/>
  <path class="st0" d="M37 40.5H4c5.2-5.2 5.2-12.2 5.2-12.2h22.6s0 7.9 5.2 12.2z"/>
  <circle class="st0" cx="20.5" cy="10.1" r="5.2"/>
  <circle class="st0" cx="9.6" cy="15.8" r=".4"/>
  <path class="st0" d="M28.3 4h5.2v3.4h-5.2z"/>
  <path class="st0" d="M17.9 5.5v-5"/>
  <path class="st0" d="M23.1 5.5v-5"/>
  <path class="st0" d="M17.9 21.4v-6.8"/>
  <path class="st0" d="M23.1 21.4v-6.6"/>
  <path class="st0" d="M4 21.4h33"/>
  <path class="st0" d="M.5 24.8h40"/>
  <path class="st0" d="M3.1 28.3h34.8"/>
  <path class="st0" d="M6.6 37h27.8"/>
</svg>
