<svg id="Layer_1" xmlns="http://www.w3.org/2000/svg" viewBox="0 0 41 49.4">
  <style>
    .st0{fill:none;stroke:#000000;stroke-linecap:round;stroke-linejoin:round;stroke-miterlimit:10;}
  </style>
  <path class="st0" d="M6.8 48.9H2.6c-1.2 0-2.1-.9-2.1-2.1v-9.5c0-1.7 1.4-3.2 3.2-3.2h3.2v14.8z"/>
  <path class="st0" d="M34.2 48.9h4.2c1.2 0 2.1-.9 2.1-2.1v-9.5c0-1.7-1.4-3.2-3.2-3.2h-3.2v14.8z"/>
  <path class="st0" d="M30 48.9H11V37.3c0-1.7 1.4-3.2 3.2-3.2h12.6c1.7 0 3.2 1.4 3.2 3.2v11.6z"/>
  <path class="st0" d="M34.2 21.6v27.3H6.8V21.6"/>
  <path class="st0" d="M15.2 21.6h10.6"/>
  <path class="st0" d="M11 15.2h4.2v10.5H11z"/>
  <path class="st0" d="M25.8 15.2H30v10.5h-4.2z"/>
  <path class="st0" d="M11 40.5h19"/>
  <path class="st0" d="M.5 40.5h6.3"/>
  <path class="st0" d="M34.2 40.5h6.3"/>
  <path class="st0" d="M11 21.6H6.8c-1.2 0-2.1-.9-2.1-2.1V6.8C4.7 3.3 7.5.5 11 .5h19c3.5 0 6.3 2.8 6.3 6.3v12.6c0 1.2-.9 2.1-2.1 2.1H30"/>
</svg>
