<svg width="221" height="337" viewBox="0 0 221 337" version="1.1" xmlns="http://www.w3.org/2000/svg" xmlns:xlink="http://www.w3.org/1999/xlink">
<title>bg-icones</title>
<desc>Created using Figma</desc>
<g id="Canvas" transform="translate(-1020 -3022)">
<g id="bg-icones">
<use xlink:href="#path0_fill" transform="translate(1020 3022.24)" fill="#EFF4F9"/>
<use xlink:href="#path1_fill" transform="translate(1020 3022.24)" fill="#EFF4F9"/>
<use xlink:href="#path2_fill" transform="translate(1020 3022.24)" fill="#EFF4F9"/>
<use xlink:href="#path3_fill" transform="translate(1020 3022.24)" fill="#EFF4F9"/>
<use xlink:href="#path4_fill" transform="translate(1020 3022.24)" fill="#EFF4F9"/>
<use xlink:href="#path5_fill" transform="translate(1020 3022.24)" fill="#EFF4F9"/>
<use xlink:href="#path6_fill" transform="translate(1020 3022.24)" fill="#EFF4F9"/>
<use xlink:href="#path7_fill" transform="translate(1020 3022.24)" fill="#EFF4F9"/>
<use xlink:href="#path8_fill" transform="translate(1020 3022.24)" fill="#EFF4F9"/>
<use xlink:href="#path9_fill" transform="translate(1020 3022.24)" fill="#EFF4F9"/>
<use xlink:href="#path10_fill" transform="translate(1020 3022.24)" fill="#EFF4F9"/>
<use xlink:href="#path11_fill" transform="translate(1020 3022.24)" fill="#EFF4F9"/>
<use xlink:href="#path12_fill" transform="translate(1020 3022.24)" fill="#EFF4F9"/>
<use xlink:href="#path13_fill" transform="translate(1020 3022.24)" fill="#EFF4F9"/>
<use xlink:href="#path14_fill" transform="translate(1020 3022.24)" fill="#EFF4F9"/>
<use xlink:href="#path15_fill" transform="translate(1020 3022.24)" fill="#EFF4F9"/>
<use xlink:href="#path16_fill" transform="translate(1020 3022.24)" fill="#EFF4F9"/>
<use xlink:href="#path17_fill" transform="translate(1020 3022.24)" fill="#EFF4F9"/>
<use xlink:href="#path18_fill" transform="translate(1020 3022.24)" fill="#EFF4F9"/>
<use xlink:href="#path19_fill" transform="translate(1020 3022.24)" fill="#EFF4F9"/>
<use xlink:href="#path20_fill" transform="translate(1020 3022.24)" fill="#EFF4F9"/>
<use xlink:href="#path21_fill" transform="translate(1020 3022.24)" fill="#EFF4F9"/>
<use xlink:href="#path22_fill" transform="translate(1020 3022.24)" fill="#EFF4F9"/>
<use xlink:href="#path23_fill" transform="translate(1020 3022.24)" fill="#EFF4F9"/>
<use xlink:href="#path24_fill" transform="translate(1020 3022.24)" fill="#EFF4F9"/>
<use xlink:href="#path25_fill" transform="translate(1020 3022.24)" fill="#EFF4F9"/>
<use xlink:href="#path26_fill" transform="translate(1020 3022.24)" fill="#EFF4F9"/>
<use xlink:href="#path27_fill" transform="translate(1020 3022.24)" fill="#EFF4F9"/>
<use xlink:href="#path28_fill" transform="translate(1020 3022.24)" fill="#EFF4F9"/>
<use xlink:href="#path29_fill" transform="translate(1020 3022.24)" fill="#EFF4F9"/>
<use xlink:href="#path30_fill" transform="translate(1020 3022.24)" fill="#EFF4F9"/>
<use xlink:href="#path31_fill" transform="translate(1020 3022.24)" fill="#EFF4F9"/>
<use xlink:href="#path32_fill" transform="translate(1020 3022.24)" fill="#EFF4F9"/>
<use xlink:href="#path33_fill" transform="translate(1020 3022.24)" fill="#EFF4F9"/>
<use xlink:href="#path34_fill" transform="translate(1020 3022.24)" fill="#EFF4F9"/>
<use xlink:href="#path35_fill" transform="translate(1020 3022.24)" fill="#EFF4F9"/>
<use xlink:href="#path36_fill" transform="translate(1020 3022.24)" fill="#EFF4F9"/>
<use xlink:href="#path37_fill" transform="translate(1020 3022.24)" fill="#EFF4F9"/>
<use xlink:href="#path38_fill" transform="translate(1020 3022.24)" fill="#EFF4F9"/>
<use xlink:href="#path39_fill" transform="translate(1020 3022.24)" fill="#EFF4F9"/>
<use xlink:href="#path40_fill" transform="translate(1020 3022.24)" fill="#EFF4F9"/>
<use xlink:href="#path41_fill" transform="translate(1020 3022.24)" fill="#EFF4F9"/>
<use xlink:href="#path42_fill" transform="translate(1020 3022.24)" fill="#EFF4F9"/>
<use xlink:href="#path43_fill" transform="translate(1020 3022.24)" fill="#EFF4F9"/>
<use xlink:href="#path44_fill" transform="translate(1020 3022.24)" fill="#EFF4F9"/>
<use xlink:href="#path45_fill" transform="translate(1020 3022.24)" fill="#EFF4F9"/>
<use xlink:href="#path46_fill" transform="translate(1020 3022.24)" fill="#EFF4F9"/>
<use xlink:href="#path47_fill" transform="translate(1020 3022.24)" fill="#EFF4F9"/>
<use xlink:href="#path48_fill" transform="translate(1020 3022.24)" fill="#EFF4F9"/>
<use xlink:href="#path49_fill" transform="translate(1020 3022.24)" fill="#EFF4F9"/>
<use xlink:href="#path50_fill" transform="translate(1020 3022.24)" fill="#EFF4F9"/>
<use xlink:href="#path51_fill" transform="translate(1020 3022.24)" fill="#EFF4F9"/>
<use xlink:href="#path52_fill" transform="translate(1020 3022.24)" fill="#EFF4F9"/>
<use xlink:href="#path53_fill" transform="translate(1020 3022.24)" fill="#EFF4F9"/>
<use xlink:href="#path54_fill" transform="translate(1020 3022.24)" fill="#EFF4F9"/>
<use xlink:href="#path55_fill" transform="translate(1020 3022.24)" fill="#EFF4F9"/>
<use xlink:href="#path56_fill" transform="translate(1020 3022.24)" fill="#EFF4F9"/>
<use xlink:href="#path57_fill" transform="translate(1020 3022.24)" fill="#EFF4F9"/>
<use xlink:href="#path58_fill" transform="translate(1020 3022.24)" fill="#EFF4F9"/>
<use xlink:href="#path59_fill" transform="translate(1020 3022.24)" fill="#EFF4F9"/>
<use xlink:href="#path60_fill" transform="translate(1020 3022.24)" fill="#EFF4F9"/>
<use xlink:href="#path61_fill" transform="translate(1020 3022.24)" fill="#EFF4F9"/>
<use xlink:href="#path62_fill" transform="translate(1020 3022.24)" fill="#EFF4F9"/>
<use xlink:href="#path63_fill" transform="translate(1020 3022.24)" fill="#EFF4F9"/>
<use xlink:href="#path64_fill" transform="translate(1020 3022.24)" fill="#EFF4F9"/>
<use xlink:href="#path65_fill" transform="translate(1020 3022.24)" fill="#EFF4F9"/>
<use xlink:href="#path66_fill" transform="translate(1020 3022.24)" fill="#EFF4F9"/>
<use xlink:href="#path67_fill" transform="translate(1020 3022.24)" fill="#EFF4F9"/>
<use xlink:href="#path68_fill" transform="translate(1020 3022.24)" fill="#EFF4F9"/>
<use xlink:href="#path69_fill" transform="translate(1020 3022.24)" fill="#EFF4F9"/>
<use xlink:href="#path70_fill" transform="translate(1020 3022.24)" fill="#EFF4F9"/>
<use xlink:href="#path71_fill" transform="translate(1020 3022.24)" fill="#EFF4F9"/>
<use xlink:href="#path72_fill" transform="translate(1020 3022.24)" fill="#EFF4F9"/>
<use xlink:href="#path73_fill" transform="translate(1020 3022.24)" fill="#EFF4F9"/>
<use xlink:href="#path74_fill" transform="translate(1020 3022.24)" fill="#EFF4F9"/>
<use xlink:href="#path75_fill" transform="translate(1020 3022.24)" fill="#EFF4F9"/>
<use xlink:href="#path76_fill" transform="translate(1020 3022.24)" fill="#EFF4F9"/>
<use xlink:href="#path77_fill" transform="translate(1020 3022.24)" fill="#EFF4F9"/>
<use xlink:href="#path78_fill" transform="translate(1020 3022.24)" fill="#EFF4F9"/>
<use xlink:href="#path79_fill" transform="translate(1020 3022.24)" fill="#EFF4F9"/>
<use xlink:href="#path80_fill" transform="translate(1020 3022.24)" fill="#EFF4F9"/>
<use xlink:href="#path81_fill" transform="translate(1020 3022.24)" fill="#EFF4F9"/>
<use xlink:href="#path82_fill" transform="translate(1020 3022.24)" fill="#EFF4F9"/>
<use xlink:href="#path83_fill" transform="translate(1020 3022.24)" fill="#EFF4F9"/>
<use xlink:href="#path84_fill" transform="translate(1020 3022.24)" fill="#EFF4F9"/>
<use xlink:href="#path85_fill" transform="translate(1020 3022.24)" fill="#EFF4F9"/>
<use xlink:href="#path86_fill" transform="translate(1020 3022.24)" fill="#EFF4F9"/>
<use xlink:href="#path87_fill" transform="translate(1020 3022.24)" fill="#EFF4F9"/>
<use xlink:href="#path88_fill" transform="translate(1020 3022.24)" fill="#EFF4F9"/>
<use xlink:href="#path89_fill" transform="translate(1020 3022.24)" fill="#EFF4F9"/>
<use xlink:href="#path90_fill" transform="translate(1020 3022.24)" fill="#EFF4F9"/>
<use xlink:href="#path91_fill" transform="translate(1020 3022.24)" fill="#EFF4F9"/>
<use xlink:href="#path92_fill" transform="translate(1020 3022.24)" fill="#EFF4F9"/>
<use xlink:href="#path93_fill" transform="translate(1020 3022.24)" fill="#EFF4F9"/>
<use xlink:href="#path94_fill" transform="translate(1020 3022.24)" fill="#EFF4F9"/>
<use xlink:href="#path95_fill" transform="translate(1020 3022.24)" fill="#EFF4F9"/>
<use xlink:href="#path96_fill" transform="translate(1020 3022.24)" fill="#EFF4F9"/>
<use xlink:href="#path97_fill" transform="translate(1020 3022.24)" fill="#EFF4F9"/>
<use xlink:href="#path98_fill" transform="translate(1020 3022.24)" fill="#EFF4F9"/>
<use xlink:href="#path99_fill" transform="translate(1020 3022.24)" fill="#EFF4F9"/>
<use xlink:href="#path100_fill" transform="translate(1020 3022.24)" fill="#EFF4F9"/>
<use xlink:href="#path101_fill" transform="translate(1020 3022.24)" fill="#EFF4F9"/>
<use xlink:href="#path102_fill" transform="translate(1020 3022.24)" fill="#EFF4F9"/>
</g>
</g>
<defs>
<path id="path0_fill" fill-rule="evenodd" d="M 27.6118 209.976C 24.6055 209.943 21.5953 210.154 18.6403 210.645C 15.0707 211.237 11.2538 212.152 8.11611 214.349C 5.61145 216.103 3.80516 218.664 2.4669 221.24C 1.08398 223.903 0.165944 226.909 0.0336564 229.952C -0.155072 234.26 0.422381 238.871 2.4669 242.821C 5.6638 248.998 10.651 254.949 17.1344 257.938C 21.9813 260.173 27.7665 260.138 32.8144 258.958C 38.8392 257.551 44.7681 254.34 48.9027 249.679C 52.4904 245.634 54.3629 240.221 55.1517 235.036C 55.7896 230.844 55.5669 226.264 53.85 222.261C 52.46 219.02 49.9333 216.27 47.0608 214.336C 43.8953 212.205 40.0959 211.373 36.5578 210.78C 33.6182 210.288 30.6181 210.009 27.6118 209.976ZM 27.5863 212.143C 30.4735 212.176 33.3635 212.443 36.1962 212.918C 39.6482 213.496 43.1339 214.31 45.8399 216.131C 48.4054 217.858 50.659 220.343 51.8464 223.111C 53.3516 226.621 53.5901 230.831 52.9992 234.715C 52.2539 239.613 50.463 244.647 47.2692 248.248C 43.4932 252.505 37.9298 255.538 32.3167 256.85C 27.6267 257.946 22.2778 257.924 18.049 255.974C 12.1871 253.271 7.4355 247.691 4.40243 241.831C 2.60015 238.348 2.03448 234.09 2.21166 230.045C 2.32766 227.377 3.14691 224.652 4.40243 222.235C 5.64119 219.85 7.28573 217.583 9.37101 216.122C 12.0547 214.244 15.5462 213.355 18.9976 212.782C 21.8166 212.315 24.6991 212.112 27.5863 212.143Z"/>
<path id="path1_fill" fill-rule="evenodd" d="M 3.6325 220.779C 3.41626 220.791 3.20866 220.868 3.03624 220.998C 2.86382 221.129 2.73441 221.307 2.66454 221.511C 2.59467 221.715 2.58752 221.935 2.64401 222.144C 2.7005 222.352 2.81805 222.538 2.98165 222.68C 2.98165 222.68 4.00148 223.586 5.32981 224.61C 6.65814 225.634 8.25513 226.786 9.7071 227.353C 15.8585 229.756 22.6284 230.056 29.0369 229.999C 42.5945 229.877 53.0801 224.208 53.0801 224.208C 53.2095 224.142 53.3244 224.051 53.418 223.941C 53.5116 223.83 53.582 223.702 53.6251 223.564C 53.6682 223.426 53.6831 223.28 53.6689 223.136C 53.6547 222.993 53.6117 222.853 53.5424 222.726C 53.4731 222.599 53.379 222.487 53.2656 222.396C 53.1521 222.306 53.0217 222.239 52.8819 222.2C 52.742 222.16 52.5957 222.149 52.4515 222.167C 52.3073 222.185 52.1681 222.231 52.0421 222.303C 52.0421 222.303 41.9736 227.715 29.0156 227.831C 22.6933 227.888 16.2026 227.56 10.5026 225.334C 9.5289 224.954 7.92975 223.87 6.66555 222.895C 5.40134 221.921 4.43224 221.062 4.43224 221.062C 4.3248 220.964 4.19865 220.889 4.06127 220.84C 3.92389 220.791 3.77809 220.77 3.6325 220.779Z"/>
<path id="path2_fill" fill-rule="evenodd" d="M 53.7691 228.5C 53.4868 228.511 53.2199 228.631 53.0247 228.835C 53.0247 228.835 52.5337 229.331 51.8932 229.914C 51.2527 230.498 50.4326 231.173 49.9832 231.43C 47.3325 232.945 44.2865 233.895 41.2073 234.49C 38.5764 234.999 32.4613 234.875 32.4613 234.875C 32.3182 234.871 32.1758 234.895 32.0421 234.946C 31.9084 234.997 31.7861 235.074 31.6822 235.172C 31.5782 235.27 31.4947 235.387 31.4363 235.517C 31.3779 235.647 31.3459 235.787 31.342 235.929C 31.3381 236.072 31.3624 236.214 31.4135 236.347C 31.4647 236.48 31.5416 236.601 31.6401 236.705C 31.7385 236.808 31.8564 236.891 31.9871 236.949C 32.1178 237.007 32.2587 237.039 32.4017 237.043C 32.4017 237.043 38.3693 237.249 41.6242 236.62C 44.8652 235.994 48.1359 234.985 51.0679 233.309C 51.8616 232.855 52.678 232.144 53.365 231.518C 54.052 230.893 54.5774 230.358 54.5774 230.358C 54.7336 230.205 54.8396 230.008 54.8813 229.793C 54.923 229.579 54.8985 229.357 54.8111 229.156C 54.7237 228.956 54.5774 228.786 54.3915 228.67C 54.2055 228.554 53.9886 228.496 53.7692 228.504L 53.7691 228.5Z"/>
<path id="path3_fill" fill-rule="evenodd" d="M 52.8844 237.873C 52.7132 237.878 52.5456 237.923 52.3952 238.005C 52.3952 238.005 46.7102 240.911 43.9724 241.692C 42.1375 242.216 37.6554 242.602 37.6554 242.602C 37.3671 242.625 37.0996 242.76 36.9117 242.979C 36.7238 243.197 36.6309 243.482 36.6535 243.768C 36.6761 244.055 36.8122 244.321 37.032 244.508C 37.2518 244.695 37.5373 244.788 37.8255 244.765C 37.8255 244.765 42.1758 244.459 44.5723 243.775C 47.8715 242.833 53.4034 239.927 53.4034 239.927C 53.6256 239.816 53.8032 239.634 53.9069 239.41C 54.0105 239.185 54.0341 238.932 53.9735 238.692C 53.9129 238.453 53.7719 238.241 53.5739 238.092C 53.3758 237.943 53.1325 237.865 52.8844 237.873Z"/>
<path id="path4_fill" fill-rule="evenodd" d="M 28.1988 214.624C 26.1972 214.645 23.6362 214.687 21.1969 214.869C 18.7561 215.051 16.4678 215.345 14.816 215.987C 11.6689 217.211 10.1452 219.522 10.1452 219.522C 10.0666 219.642 10.0128 219.777 9.98698 219.918C 9.96112 220.059 9.9637 220.204 9.99457 220.344C 10.0254 220.484 10.084 220.617 10.1668 220.734C 10.2496 220.852 10.3551 220.952 10.477 221.029C 10.477 221.029 15.3798 224.156 19.8867 225.101C 24.3069 226.028 31.5879 226.066 36.0473 225.168C 40.5969 224.253 45.6612 221.1 45.6612 221.1C 45.8079 221.01 45.9309 220.886 46.0203 220.74C 46.1097 220.593 46.1627 220.427 46.1752 220.256C 46.1877 220.085 46.1591 219.913 46.092 219.755C 46.0248 219.597 45.9209 219.457 45.7888 219.347C 45.7888 219.347 42.5774 216.576 39.3654 215.554C 36.2441 214.562 32.1968 214.588 28.2031 214.623L 28.1988 214.624ZM 28.2202 216.791C 32.1987 216.756 36.1379 216.813 38.7019 217.621C 40.5288 218.202 41.8584 219.341 42.9005 220.123C 41.2469 221.031 38.4458 222.475 35.6178 223.044C 31.6522 223.841 24.2666 223.804 20.3377 222.981C 17.3948 222.363 14.4943 220.793 12.9997 219.941C 13.4682 219.386 13.7979 218.711 15.6073 218.007C 16.7907 217.547 19.0049 217.209 21.3586 217.033C 23.7123 216.858 26.2355 216.808 28.2202 216.791Z"/>
<path id="path5_fill" fill-rule="evenodd" d="M 17.815 205.366L 15.7349 206.005L 21.3841 224.293L 23.4642 223.653L 17.815 205.366Z"/>
<path id="path6_fill" fill-rule="evenodd" d="M 46.9118 200.193C 46.7773 200.197 46.6446 200.225 46.5205 200.277L 37.2639 204.002C 37.0923 204.072 36.9412 204.184 36.8251 204.327C 36.709 204.471 36.6316 204.642 36.6003 204.824L 33.261 223.992C 33.2367 224.132 33.2404 224.276 33.272 224.415C 33.3035 224.554 33.3622 224.685 33.4448 224.801C 33.6115 225.036 33.8652 225.196 34.1501 225.245C 34.2912 225.269 34.4356 225.265 34.5752 225.234C 34.7148 225.202 34.8469 225.144 34.9638 225.062C 35.1999 224.896 35.3602 224.643 35.4092 224.36L 38.6422 205.785L 47.3372 202.288C 47.5778 202.196 47.778 202.023 47.9022 201.798C 48.0264 201.574 48.0666 201.312 48.0156 201.061C 47.9645 200.81 47.8257 200.585 47.6236 200.426C 47.4215 200.267 47.1693 200.184 46.9118 200.193Z"/>
<path id="path7_fill" fill-rule="evenodd" d="M 15.4456 198.571C 15.2919 198.577 15.1412 198.615 15.0033 198.683C 14.8655 198.751 14.7436 198.847 14.6458 198.965L 7.63536 207.364C 7.48897 207.54 7.40242 207.758 7.38811 207.986C 7.37381 208.215 7.43247 208.442 7.5557 208.635C 7.67893 208.828 7.86041 208.977 8.07416 209.062C 8.2879 209.146 8.52295 209.16 8.74563 209.104L 26.1016 204.633C 26.3251 204.576 26.5244 204.449 26.6707 204.271C 26.817 204.093 26.9028 203.874 26.9155 203.644C 26.9283 203.415 26.8675 203.187 26.7418 202.995C 26.6162 202.802 26.4322 202.654 26.2165 202.572L 15.8709 198.643C 15.7354 198.592 15.5907 198.567 15.4456 198.571ZM 15.8242 200.942L 22.2518 203.385L 11.4681 206.162L 15.8242 200.942Z"/>
<path id="path8_fill" fill-rule="evenodd" d="M 14.6162 195.757C 14.4454 195.763 14.2786 195.81 14.1293 195.893C 13.9799 195.975 13.8523 196.092 13.7566 196.233C 13.661 196.374 13.6 196.535 13.5786 196.704C 13.5572 196.873 13.576 197.044 13.6335 197.204L 14.5183 199.803C 14.5623 199.94 14.6332 200.067 14.727 200.177C 14.8208 200.286 14.9356 200.376 15.0647 200.441C 15.1937 200.506 15.3345 200.545 15.4787 200.555C 15.6229 200.565 15.7678 200.547 15.9048 200.5C 16.0417 200.454 16.1681 200.382 16.2765 200.286C 16.385 200.191 16.4732 200.075 16.5362 199.946C 16.5992 199.816 16.6357 199.676 16.6434 199.532C 16.6512 199.388 16.6301 199.244 16.5815 199.109L 15.6967 196.51C 15.6242 196.284 15.4793 196.088 15.2841 195.952C 15.0889 195.816 14.8543 195.747 14.6162 195.757Z"/>
<path id="path9_fill" fill-rule="evenodd" d="M 7.64812 229.529C 7.54491 229.537 7.44604 229.574 7.36311 229.635L 1.00775 234.135C 0.949375 234.177 0.899766 234.229 0.86176 234.29C 0.823753 234.35 0.798093 234.417 0.786242 234.488C 0.774392 234.558 0.776585 234.63 0.792695 234.7C 0.808806 234.769 0.838518 234.835 0.880137 234.893C 0.921755 234.951 0.974464 235 1.03525 235.038C 1.09604 235.076 1.16372 235.102 1.23443 235.113C 1.30514 235.125 1.37749 235.123 1.44735 235.107C 1.51721 235.091 1.58321 235.061 1.64159 235.02L 7.99269 230.516C 8.09056 230.448 8.16354 230.351 8.20046 230.238C 8.23738 230.126 8.23621 230.004 8.19713 229.892C 8.15804 229.78 8.0832 229.685 7.98405 229.619C 7.8849 229.553 7.76691 229.522 7.64812 229.529Z"/>
<path id="path10_fill" fill-rule="evenodd" d="M 9.74113 231.925C 9.63804 231.937 9.54062 231.979 9.46037 232.044L 2.24147 237.696C 2.18082 237.738 2.12947 237.792 2.09056 237.855C 2.05165 237.918 2.026 237.988 2.01517 238.06C 2.00434 238.133 2.00856 238.208 2.02758 238.279C 2.0466 238.35 2.08001 238.417 2.12578 238.475C 2.17155 238.532 2.2287 238.581 2.29376 238.616C 2.35881 238.651 2.43039 238.673 2.50413 238.679C 2.57787 238.686 2.65221 238.678 2.72261 238.655C 2.79301 238.632 2.858 238.595 2.91359 238.547L 10.1325 232.895C 10.2272 232.823 10.2956 232.722 10.3272 232.608C 10.3587 232.494 10.3518 232.372 10.3074 232.262C 10.263 232.152 10.1835 232.06 10.0813 231.999C 9.97898 231.938 9.8595 231.912 9.74113 231.925Z"/>
<path id="path11_fill" fill-rule="evenodd" d="M 12.6593 233.936C 12.5367 233.942 12.4197 233.989 12.3275 234.07L 3.5687 241.542C 3.51291 241.588 3.46687 241.644 3.4333 241.708C 3.39972 241.772 3.37928 241.842 3.37317 241.914C 3.36706 241.985 3.37541 242.058 3.39771 242.126C 3.42002 242.195 3.45584 242.258 3.50309 242.313C 3.55033 242.368 3.60804 242.412 3.67285 242.444C 3.73766 242.477 3.80826 242.495 3.88052 242.5C 3.95278 242.505 4.02525 242.495 4.09369 242.471C 4.16213 242.448 4.22517 242.411 4.27911 242.363L 13.0379 234.892C 13.1256 234.819 13.1879 234.721 13.2161 234.611C 13.2443 234.5 13.237 234.384 13.1951 234.278C 13.1532 234.172 13.0789 234.082 12.9828 234.021C 12.8866 233.959 12.7735 233.93 12.6593 233.936Z"/>
<path id="path12_fill" fill-rule="evenodd" d="M 14.8713 236.903C 14.7481 236.911 14.6311 236.96 14.5395 237.042L 5.49142 244.894C 5.43488 244.94 5.38818 244.997 5.3541 245.061C 5.32002 245.125 5.29926 245.196 5.29305 245.268C 5.28685 245.341 5.29532 245.413 5.31796 245.482C 5.34061 245.551 5.37696 245.615 5.42487 245.67C 5.47278 245.725 5.53127 245.77 5.59685 245.801C 5.66244 245.833 5.73379 245.852 5.80666 245.855C 5.87953 245.859 5.95244 245.849 6.02106 245.824C 6.08967 245.799 6.15259 245.761 6.20608 245.711L 15.2542 237.859C 15.3422 237.786 15.4048 237.686 15.4329 237.576C 15.461 237.465 15.4533 237.348 15.4109 237.242C 15.3684 237.136 15.2934 237.046 15.1965 236.985C 15.0996 236.924 14.9858 236.896 14.8713 236.903Z"/>
<path id="path13_fill" fill-rule="evenodd" d="M 17.2918 239.587C 17.1685 239.591 17.05 239.636 16.9558 239.715L 7.04413 247.856C 6.93245 247.947 6.86186 248.079 6.8479 248.222C 6.83395 248.366 6.87776 248.508 6.96971 248.619C 7.06166 248.731 7.19421 248.801 7.3382 248.815C 7.48219 248.829 7.62583 248.785 7.73752 248.693L 17.6492 240.553C 17.7386 240.482 17.8032 240.385 17.834 240.275C 17.8647 240.166 17.86 240.049 17.8204 239.942C 17.7809 239.835 17.7085 239.744 17.6136 239.68C 17.5188 239.616 17.4062 239.583 17.2918 239.587Z"/>
<path id="path14_fill" fill-rule="evenodd" d="M 19.5889 242.94C 19.4847 242.945 19.3843 242.981 19.2996 243.042L 9.09448 250.225C 9.03609 250.267 8.98642 250.319 8.9483 250.379C 8.91017 250.439 8.88435 250.506 8.87229 250.576C 8.86024 250.647 8.86219 250.718 8.87805 250.788C 8.8939 250.857 8.92333 250.923 8.96468 250.981C 9.00602 251.039 9.05846 251.089 9.119 251.127C 9.17954 251.164 9.24699 251.19 9.31751 251.202C 9.38802 251.214 9.46022 251.212 9.52998 251.196C 9.59974 251.181 9.66569 251.151 9.72406 251.11L 19.9292 243.926C 20.0267 243.859 20.0994 243.762 20.1363 243.65C 20.1733 243.538 20.1724 243.417 20.1339 243.305C 20.0954 243.194 20.0214 243.097 19.923 243.032C 19.8246 242.966 19.7073 242.933 19.5889 242.94Z"/>
<path id="path15_fill" fill-rule="evenodd" d="M 22.5113 244.853C 22.3881 244.852 22.2681 244.892 22.171 244.968L 12.6422 252.152C 12.5272 252.239 12.4516 252.368 12.432 252.51C 12.4125 252.653 12.4506 252.797 12.5381 252.912C 12.6255 253.026 12.7551 253.101 12.8983 253.121C 13.0415 253.14 13.1865 253.102 13.3016 253.015L 22.8304 245.832C 22.9224 245.764 22.9906 245.67 23.0256 245.561C 23.0605 245.453 23.0603 245.336 23.025 245.228C 22.9897 245.12 22.9211 245.026 22.8289 244.958C 22.7367 244.891 22.6256 244.854 22.5113 244.853Z"/>
<path id="path16_fill" fill-rule="evenodd" d="M 25.4083 246.864C 25.2851 246.863 25.1651 246.903 25.068 246.979L 14.765 254.544C 14.7062 254.585 14.6562 254.638 14.6182 254.699C 14.5801 254.761 14.5546 254.828 14.5432 254.899C 14.5319 254.97 14.5348 255.043 14.5519 255.113C 14.569 255.183 14.5999 255.249 14.6428 255.307C 14.6858 255.364 14.7398 255.413 14.8019 255.45C 14.8639 255.487 14.9328 255.511 15.0043 255.521C 15.0759 255.532 15.1487 255.527 15.2187 255.509C 15.2886 255.491 15.3542 255.459 15.4116 255.415L 25.7146 247.847C 25.8076 247.78 25.8772 247.687 25.9136 247.579C 25.95 247.471 25.9514 247.354 25.9175 247.246C 25.8836 247.137 25.8162 247.041 25.7248 246.973C 25.6334 246.905 25.5227 246.866 25.4083 246.864Z"/>
<path id="path17_fill" fill-rule="evenodd" d="M 28.3052 249.163C 28.1629 249.157 28.0239 249.206 27.9181 249.301L 19.5464 256.583C 19.4898 256.628 19.4431 256.685 19.4091 256.749C 19.375 256.813 19.3542 256.884 19.348 256.956C 19.3418 257.029 19.3503 257.101 19.3729 257.17C 19.3956 257.24 19.4319 257.303 19.4798 257.358C 19.5277 257.413 19.5862 257.458 19.6518 257.49C 19.7174 257.521 19.7887 257.54 19.8616 257.544C 19.9345 257.547 20.0074 257.537 20.076 257.512C 20.1446 257.487 20.2076 257.449 20.261 257.4L 28.637 250.118C 28.7214 250.048 28.7823 249.953 28.8117 249.848C 28.8412 249.742 28.8376 249.63 28.8017 249.527C 28.7657 249.423 28.699 249.332 28.6104 249.267C 28.5218 249.202 28.4153 249.166 28.3052 249.163Z"/>
<path id="path18_fill" fill-rule="evenodd" d="M 31.8147 251.749C 31.6734 251.757 31.5407 251.819 31.4447 251.922L 25.285 258.34C 25.2355 258.392 25.1968 258.452 25.1709 258.519C 25.145 258.585 25.1324 258.656 25.134 258.727C 25.1356 258.798 25.1513 258.868 25.1801 258.933C 25.2089 258.998 25.2503 259.057 25.302 259.106C 25.3537 259.156 25.4146 259.194 25.4812 259.22C 25.5479 259.246 25.619 259.258 25.6905 259.256C 25.762 259.255 25.8325 259.239 25.8979 259.211C 25.9634 259.182 26.0225 259.141 26.072 259.089L 32.2316 252.672C 32.3092 252.594 32.3613 252.495 32.381 252.387C 32.4007 252.279 32.387 252.168 32.3419 252.068C 32.2967 251.968 32.2222 251.884 32.1281 251.827C 32.034 251.77 31.9247 251.743 31.8147 251.749Z"/>
<path id="path19_fill" fill-rule="evenodd" d="M 51.9214 61.4504C 51.7955 61.3718 51.6548 61.3198 51.5081 61.2973C 51.3614 61.2748 51.2119 61.2824 51.0685 61.3197C 51.0685 61.3197 45.435 62.7657 42.5617 63.7942C 40.8494 64.4068 38.878 64.9257 37.1371 66.1369C 35.8083 67.0614 34.5085 68.2486 33.684 69.8037C 32.9084 71.2675 32.7658 72.8632 32.6785 74.2677C 32.5443 76.4286 33.1889 80.0028 33.1889 80.0028C 33.2125 80.1435 33.2636 80.2782 33.3394 80.3995C 33.4151 80.5207 33.5138 80.6261 33.6302 80.7094C 33.7465 80.7927 33.8781 80.8523 34.0174 80.885C 34.1566 80.9177 34.3009 80.9227 34.4419 80.8997C 34.5828 80.8768 34.7178 80.8264 34.839 80.7514C 34.9602 80.6764 35.0652 80.5783 35.1482 80.4625C 35.2312 80.3468 35.2906 80.2157 35.3227 80.0769C 35.3549 79.9381 35.3593 79.7943 35.3357 79.6536C 35.3357 79.6536 34.7567 75.9146 34.85 74.4118C 34.9332 73.0721 35.0941 71.788 35.6046 70.8246C 36.1949 69.7113 37.2342 68.7216 38.3871 67.9194C 39.7207 66.9915 41.4855 66.4863 43.3037 65.8356C 45.5662 65.0259 49.2658 64.0702 50.4742 63.753C 50.7174 64.9348 51.3976 68.121 51.5348 70.1431C 51.6681 72.1119 51.8118 74.019 51.3958 75.6841C 50.9978 77.2778 50.252 78.8355 49.2243 80.0664C 48.5748 80.8431 47.6526 81.4871 46.6581 81.9673C 46.232 82.173 45.2625 82.4502 44.4626 82.6306C 43.6628 82.8107 43.0143 82.9186 43.0143 82.9186C 42.8733 82.9422 42.7384 82.9933 42.6174 83.0689C 42.4963 83.1445 42.3915 83.2433 42.3089 83.3595C 42.2263 83.4756 42.1676 83.6069 42.136 83.746C 42.1044 83.885 42.1007 84.0289 42.1249 84.1697C 42.1491 84.3105 42.2007 84.4454 42.277 84.5664C 42.3534 84.6875 42.4528 84.7924 42.5696 84.8753C 42.6864 84.9581 42.8184 85.0173 42.9579 85.0494C 43.0975 85.0815 43.2419 85.0858 43.3829 85.0622C 43.3829 85.0622 44.0876 84.94 44.9509 84.7455C 45.8144 84.5508 46.8169 84.3055 47.6126 83.9213C 48.8113 83.3427 49.9879 82.5521 50.8985 81.4631C 52.1675 79.9433 53.0321 78.1047 53.5025 76.221C 54.0357 74.0869 53.8347 71.9539 53.7031 70.0116C 53.5129 67.2074 52.4062 62.1507 52.4062 62.1507C 52.3759 62.0081 52.3171 61.8731 52.2335 61.7534C 52.1498 61.6337 52.0429 61.5321 51.9192 61.4543L 51.9214 61.4504Z"/>
<path id="path20_fill" fill-rule="evenodd" d="M 59.0219 55.0649C 56.8617 53.2028 53.8938 53.1399 51.5368 53.0897C 49.3364 53.0429 46.9914 53.3927 44.9476 54.4717C 42.6594 55.6798 40.8926 57.6467 39.5342 59.6707C 38.7292 60.8712 38.071 62.5913 37.554 64.0705C 37.037 65.5496 36.6928 66.7701 36.6928 66.7701L 38.7847 67.3668C 38.7847 67.3668 39.1149 66.2031 39.6081 64.7921C 40.1014 63.3808 40.7931 61.7049 41.3448 60.8822C 42.5774 59.0456 44.1422 57.3574 45.9708 56.392C 47.5713 55.5471 49.5729 55.2186 51.5022 55.2596C 53.8105 55.3086 56.2259 55.5174 57.6036 56.7048C 58.8457 57.7756 59.5093 59.8614 59.6448 61.7791C 59.786 63.7762 59.1242 65.9682 58.0692 67.8007C 57.365 69.0239 55.7434 69.9346 54.33 71.4441C 53.4622 72.3711 51.9553 74.179 51.9553 74.179L 53.6316 75.5721C 53.6316 75.5721 55.1707 73.7327 55.9249 72.927L 55.9212 72.9248C 56.9966 71.7763 58.8432 70.8213 59.9553 68.8897C 61.1805 66.7615 61.9974 64.203 61.8158 61.6345C 61.6556 59.3669 60.9679 56.7423 59.0219 55.0649Z"/>
<path id="path21_fill" fill-rule="evenodd" d="M 33.1032 74.2977C 33.1032 74.2977 28.4727 79.7781 26.6187 83.1896C 25.5922 85.0766 23.9921 87.2878 24.1042 90.0036L 24.1005 90.0015C 24.2063 92.5722 25.3998 95.2095 27.4065 96.9009C 29.3022 98.4984 31.8945 99.0197 34.2034 98.8601C 36.8328 98.6786 39.349 97.456 41.2593 95.7679C 43.2599 93.9998 43.9885 91.4989 44.9801 89.621C 46.0513 87.5953 47.7729 83.6181 47.7729 83.6181L 45.775 82.7481C 45.775 82.7481 44.0246 86.7755 43.0572 88.604C 41.9312 90.7349 41.2093 92.9052 39.8117 94.1403C 38.2271 95.5408 36.0866 96.553 34.0492 96.6939C 32.2031 96.8214 30.1018 96.3371 28.8084 95.247C 27.3586 94.0253 26.3568 91.8549 26.2772 89.9237C 26.205 88.175 27.4267 86.2637 28.5323 84.2312C 30.1129 81.3226 34.7773 75.6947 34.7773 75.6947L 33.1032 74.2977Z"/>
<path id="path22_fill" fill-rule="evenodd" d="M 53.0115 59.2985C 52.762 59.1532 52.4652 59.1123 52.1864 59.1851C 51.9076 59.2579 51.6697 59.4384 51.525 59.6868L 50.2399 61.819C 50.1663 61.9408 50.1176 62.0759 50.0964 62.2167C 50.0752 62.3576 50.082 62.5014 50.1165 62.6399C 50.151 62.7783 50.2124 62.9088 50.2974 63.0238C 50.3823 63.1387 50.4891 63.236 50.6115 63.3099C 50.7339 63.3839 50.8697 63.433 51.011 63.4547C 51.1523 63.4765 51.2963 63.4703 51.435 63.4365C 51.5736 63.4026 51.7041 63.3419 51.8189 63.2577C 51.9338 63.1734 52.0308 63.0674 52.1045 62.9456L 53.3916 60.8097C 53.468 60.6866 53.5189 60.5491 53.541 60.4059C 53.5632 60.2626 53.5563 60.1165 53.5208 59.9757C 53.4853 59.8349 53.422 59.7023 53.3345 59.5861C 53.2469 59.4699 53.1374 59.3718 53.0115 59.2985Z"/>
<path id="path23_fill" fill-rule="evenodd" d="M 75.3886 74.9991C 75.258 74.9274 75.1142 74.8832 74.966 74.8691C 74.8178 74.855 74.6684 74.8714 74.5271 74.9172C 74.5271 74.9172 69.5945 76.4871 67.0709 77.7245C 65.3231 78.5817 63.3753 79.4742 61.7937 81.0029C 60.3976 82.3522 59.2376 84.0203 58.556 85.8792C 58.0682 87.2123 57.9719 88.6263 58.0701 89.9537C 58.1353 90.8349 58.4239 91.8259 58.6871 92.6711C 58.9503 93.5161 59.1968 94.1874 59.1968 94.1874C 59.2469 94.3213 59.3229 94.4442 59.4204 94.549C 59.518 94.6538 59.6353 94.7383 59.7655 94.798C 59.8957 94.8578 60.0363 94.8914 60.1793 94.897C 60.3222 94.9026 60.4648 94.8801 60.5988 94.8306C 60.7328 94.7812 60.8557 94.7058 60.9603 94.6089C 61.0649 94.512 61.1492 94.3955 61.2086 94.2659C 61.2679 94.1363 61.301 93.9961 61.306 93.8535C 61.311 93.7109 61.2876 93.5687 61.2375 93.4348C 61.2375 93.4348 61.0067 92.8192 60.7628 92.0365C 60.5191 91.2536 60.2744 90.2754 60.2395 89.8036C 60.1581 88.7022 60.2548 87.5813 60.6028 86.6305C 61.1549 85.125 62.1308 83.7005 63.312 82.559C 64.5461 81.3662 66.2695 80.537 68.0413 79.6681C 69.8609 78.7759 72.9604 77.7718 74.1055 77.3916C 74.4349 78.5966 75.4571 82.2785 75.8871 84.6427C 76.2328 86.5426 76.6776 88.3236 76.5408 89.9425C 76.4226 91.342 76.0852 92.7367 75.4162 93.8046C 74.8372 94.7284 73.8054 95.51 72.6868 96.2519C 71.432 97.0841 67.9044 98.4522 67.9044 98.4522C 67.7708 98.5021 67.6484 98.5778 67.5443 98.6751C 67.4402 98.7723 67.3565 98.889 67.2978 99.0188C 67.239 99.1485 67.2065 99.2888 67.2021 99.4313C 67.1977 99.5738 67.2215 99.7158 67.2722 99.8493C 67.3228 99.9829 67.3994 100.105 67.4973 100.209C 67.5952 100.314 67.7126 100.398 67.8429 100.457C 67.9732 100.516 68.1138 100.549 68.2567 100.554C 68.3995 100.559 68.5419 100.536 68.6755 100.486C 68.6755 100.486 72.0932 99.2569 73.8975 98.0602C 75.0701 97.2824 76.3807 96.3613 77.2605 94.9577C 78.195 93.466 78.5733 91.7468 78.7095 90.1338C 78.8881 88.0205 78.3517 86.0538 78.0261 84.2646C 77.4801 81.262 75.9156 75.6602 75.9156 75.6602C 75.8769 75.5202 75.8106 75.3892 75.7204 75.275C 75.6303 75.1609 75.5181 75.0658 75.3907 74.9954L 75.3886 74.9991Z"/>
<path id="path24_fill" fill-rule="evenodd" d="M 77.3535 65.6487C 74.9278 64.8021 72.3109 65.5188 70.267 66.5138C 67.9518 67.6408 66.1445 69.6275 64.9141 71.7526C 63.7973 73.6816 63.8936 75.7583 63.4366 77.2639L 63.4328 77.2617C 63.1122 78.3177 62.2888 80.5703 62.2888 80.5703L 64.3334 81.3255C 64.3334 81.3255 65.1457 79.1165 65.5145 77.9015C 66.1151 75.9227 66.093 74.063 66.8002 72.8416C 67.8597 71.0116 69.4272 69.3425 71.2272 68.4662C 72.9558 67.6247 75.094 67.1565 76.6424 67.6968C 78.3595 68.2963 79.748 70.2837 80.9446 72.2582C 81.9448 73.9085 82.6611 75.8062 82.7297 77.6147C 82.8079 79.6811 82.1282 81.8803 81.154 83.8661C 80.7174 84.7552 79.6119 86.1922 78.6363 87.325C 77.6609 88.4577 76.8182 89.3255 76.8182 89.3255L 78.3809 90.8387C 78.3809 90.8387 79.2658 89.9305 80.2883 88.7431C 81.3108 87.5558 82.4714 86.1257 83.1085 84.8283C 84.1821 82.6399 85.0021 80.1264 84.9042 77.5407C 84.8168 75.2312 83.9472 73.0254 82.8065 71.1433C 81.5845 69.1271 80.0462 66.5884 77.3535 65.6487Z"/>
<path id="path25_fill" fill-rule="evenodd" d="M 73.6568 97.7113L 71.6101 96.9598C 71.6101 96.9598 69.0683 103.813 67.3398 106.636C 66.1324 108.61 65.0878 110.624 63.5373 111.436C 61.825 112.333 59.4447 112.55 57.6617 111.905C 56.071 111.33 54.6009 109.752 53.7882 108.09C 52.8916 106.255 52.6978 103.896 53.1184 101.823C 53.4892 99.995 55.0079 98.2844 56.2903 96.2438C 57.3902 94.4918 60.0028 90.9622 60.0028 90.9622L 58.2504 89.667C 58.2504 89.667 55.6637 93.151 54.4459 95.091C 53.3154 96.8887 51.5139 98.7701 50.983 101.387C 50.4761 103.885 50.6756 106.675 51.8331 109.043C 52.8493 111.122 54.5968 113.107 56.9281 113.95C 59.3963 114.842 62.2771 114.557 64.5563 113.363L 64.5525 113.361C 66.9606 112.1 68.0754 109.609 69.1964 107.776C 71.2238 104.465 73.6546 97.7149 73.6546 97.7149L 73.6568 97.7113Z"/>
<path id="path26_fill" fill-rule="evenodd" d="M 76.6628 72.9536C 76.4083 72.8181 76.1108 72.7885 75.8355 72.8715C 75.5602 72.9545 75.3295 73.1431 75.1941 73.396L 73.9879 75.5787C 73.8492 75.8305 73.8166 76.1276 73.8974 76.4042C 73.9782 76.6808 74.1659 76.9144 74.4189 77.0538C 74.6719 77.1933 74.9696 77.2271 75.2465 77.1477C 75.5235 77.0682 75.7571 76.882 75.8958 76.6302L 77.0997 74.4514C 77.1719 74.3253 77.218 74.1859 77.2351 74.0416C 77.2522 73.8973 77.24 73.751 77.1992 73.6112C 77.1585 73.4714 77.0901 73.3411 76.998 73.228C 76.9059 73.1149 76.7917 73.0221 76.6628 72.9536Z"/>
<path id="path27_fill" fill-rule="evenodd" d="M 33.7391 80.8875C 33.6303 80.8312 33.5057 80.8131 33.3856 80.8361L 28.4241 81.7302C 28.2822 81.7559 28.1566 81.8368 28.075 81.9551C 27.9933 82.0734 27.9622 82.2194 27.9886 82.3611C 28.0149 82.5027 28.0965 82.6285 28.2154 82.7105C 28.3344 82.7924 28.4809 82.8241 28.6227 82.7984L 33.5846 81.9038C 33.6965 81.8844 33.7994 81.8305 33.8788 81.7496C 33.9582 81.6687 34.0101 81.5648 34.0271 81.4527C 34.0441 81.3406 34.0254 81.2259 33.9737 81.1246C 33.9219 81.0233 33.8402 80.9399 33.7391 80.8875Z"/>
<path id="path28_fill" fill-rule="evenodd" d="M 33.5482 82.7666C 33.4234 82.6996 33.2776 82.6835 33.1417 82.722L 26.5325 84.547C 26.4627 84.565 26.3971 84.5968 26.3398 84.6404C 26.2825 84.684 26.2345 84.7388 26.1986 84.8012C 26.1627 84.8636 26.1397 84.9326 26.1309 85.0041C 26.1221 85.0755 26.1277 85.1481 26.1473 85.2176C 26.1669 85.287 26.2002 85.3519 26.2452 85.4085C 26.2901 85.4651 26.346 85.5121 26.4094 85.547C 26.4727 85.5819 26.5423 85.604 26.6142 85.6118C 26.686 85.6196 26.7587 85.613 26.8278 85.5925L 33.437 83.7674C 33.5419 83.739 33.6357 83.6798 33.7063 83.5975C 33.7769 83.5153 33.821 83.4137 33.833 83.3059C 33.845 83.1981 33.8242 83.0892 33.7735 82.9929C 33.7228 82.8967 33.6442 82.8181 33.5482 82.7666Z"/>
<path id="path29_fill" fill-rule="evenodd" d="M 33.0436 85.1295C 32.9166 85.0702 32.7719 85.0619 32.6394 85.1063L 25.5242 87.4164C 25.3871 87.4611 25.2736 87.5583 25.2087 87.6867C 25.1438 87.8151 25.1327 87.9643 25.178 88.1013C 25.2233 88.2383 25.3214 88.3517 25.4504 88.4171C 25.5794 88.4824 25.7288 88.4942 25.866 88.4496L 32.9774 86.1373C 33.0816 86.1046 33.1734 86.0413 33.2407 85.9557C 33.308 85.8701 33.3479 85.7661 33.3551 85.6573C 33.3622 85.5485 33.3363 85.4399 33.2807 85.3458C 33.2251 85.2517 33.1425 85.1762 33.0436 85.1295Z"/>
<path id="path30_fill" fill-rule="evenodd" d="M 32.5573 87.503C 32.4281 87.445 32.2816 87.4395 32.1488 87.4874L 25.3815 89.7735C 25.3119 89.7948 25.2475 89.8297 25.1919 89.8764C 25.1363 89.9231 25.0907 89.9805 25.0579 90.0453C 25.025 90.11 25.0055 90.1808 25.0006 90.2532C 24.9957 90.3257 25.0053 90.3986 25.0292 90.4674C 25.053 90.5362 25.0904 90.5995 25.1391 90.6537C 25.1879 90.7079 25.247 90.7518 25.313 90.7828C 25.3791 90.8139 25.4506 90.8313 25.5234 90.8343C 25.5962 90.8373 25.6688 90.8255 25.7369 90.7999L 32.5006 88.5115C 32.6045 88.4778 32.6956 88.4139 32.7621 88.3276C 32.8287 88.2414 32.8676 88.137 32.8737 88.0282C 32.8798 87.9193 32.8529 87.8108 32.7965 87.7172C 32.74 87.6235 32.6567 87.5489 32.5573 87.503Z"/>
<path id="path31_fill" fill-rule="evenodd" d="M 32.5537 89.2705C 32.4824 89.2352 32.4043 89.2158 32.3248 89.2138C 32.2453 89.2118 32.1664 89.2274 32.0936 89.2591L 25.9121 91.8834C 25.8464 91.9112 25.7869 91.9516 25.7369 92.0025C 25.6869 92.0534 25.6476 92.1136 25.621 92.1797C 25.5945 92.2459 25.5813 92.3166 25.5822 92.3879C 25.583 92.4593 25.5979 92.53 25.6261 92.5957C 25.6543 92.6614 25.6952 92.7208 25.7464 92.7709C 25.7976 92.8209 25.8581 92.8606 25.9245 92.8874C 25.9909 92.9142 26.0619 92.9276 26.1334 92.9271C 26.2049 92.9265 26.2756 92.9118 26.3414 92.884L 32.5229 90.2597C 32.6198 90.2202 32.703 90.1536 32.7627 90.0679C 32.8223 89.9821 32.8557 89.8809 32.859 89.7764C 32.8622 89.6719 32.8352 89.5685 32.781 89.4788C 32.7269 89.389 32.6479 89.3167 32.5537 89.2705Z"/>
<path id="path32_fill" fill-rule="evenodd" d="M 32.3667 91.7042C 32.2952 91.67 32.217 91.6519 32.1378 91.6509C 32.0587 91.6499 31.9803 91.6662 31.9082 91.6986L 26.8682 93.8772C 26.8021 93.9051 26.7423 93.946 26.6922 93.9971C 26.6422 94.0483 26.6029 94.1088 26.5765 94.1753C 26.5501 94.2418 26.5372 94.313 26.5385 94.3847C 26.5399 94.4563 26.5554 94.5271 26.5842 94.5928C 26.6131 94.6586 26.6547 94.718 26.7067 94.7677C 26.7586 94.8174 26.8199 94.8564 26.8869 94.8825C 26.954 94.9085 27.0255 94.921 27.0973 94.9193C 27.1691 94.9176 27.2398 94.9017 27.3053 94.8726L 32.3417 92.6919C 32.4379 92.6516 32.5203 92.5846 32.5791 92.4986C 32.6378 92.4127 32.6705 92.3116 32.6732 92.2074C 32.6758 92.1033 32.6483 92.0004 32.5939 91.9112C 32.5396 91.8219 32.4607 91.7501 32.3667 91.7042Z"/>
<path id="path33_fill" fill-rule="evenodd" d="M 32.1489 94.0128C 32.0611 93.9692 31.9633 93.95 31.8656 93.9574C 31.768 93.9647 31.6743 93.9982 31.5944 94.0543L 29.2181 95.669C 29.099 95.75 29.0174 95.8748 28.991 96.0163C 28.9646 96.1578 28.9957 96.3042 29.0774 96.4233C 29.159 96.5424 29.2846 96.6245 29.4266 96.6515C 29.5685 96.6784 29.7151 96.6482 29.8341 96.5672L 32.2105 94.9526C 32.2904 94.9001 32.3548 94.8276 32.3973 94.7421C 32.4399 94.6567 32.4591 94.5613 32.4529 94.4659C 32.4466 94.3705 32.4151 94.2785 32.3618 94.1989C 32.3084 94.1193 32.235 94.0551 32.1489 94.0128Z"/>
<path id="path34_fill" fill-rule="evenodd" d="M 49.8156 56.0454C 49.6908 55.9784 49.5451 55.9623 49.4091 56.0007L 41.9254 57.9367C 41.8553 57.9536 41.7894 57.9843 41.7314 58.0269C 41.6734 58.0696 41.6245 58.1235 41.5876 58.1853C 41.5507 58.2471 41.5266 58.3156 41.5167 58.3869C 41.5067 58.4582 41.5111 58.5308 41.5295 58.6005C 41.548 58.6703 41.5801 58.7357 41.6241 58.7929C 41.6681 58.8502 41.7231 58.8983 41.7858 58.9343C 41.8485 58.9702 41.9177 58.9935 41.9893 59.0026C 42.061 59.0116 42.1338 59.0061 42.2033 58.9868L 49.6834 57.0487C 49.7903 57.0235 49.8869 56.9667 49.9605 56.8855C 50.0342 56.8042 50.0813 56.7025 50.0956 56.5938C 50.11 56.4851 50.091 56.3743 50.041 56.2763C 49.9911 56.1783 49.9123 56.0981 49.8156 56.0454Z"/>
<path id="path35_fill" fill-rule="evenodd" d="M 48.4277 58.3727C 48.3606 58.331 48.2853 58.3042 48.207 58.2945C 48.1287 58.2847 48.0493 58.2919 47.9742 58.3159L 39.975 60.7364C 39.9067 60.7569 39.8432 60.7907 39.788 60.8358C 39.7329 60.881 39.6873 60.9365 39.6537 60.9993C 39.6202 61.0622 39.5994 61.1311 39.5925 61.202C 39.5857 61.2729 39.5929 61.3446 39.6138 61.4129C 39.6348 61.4811 39.669 61.5445 39.7145 61.5996C 39.76 61.6548 39.8159 61.7006 39.879 61.7343C 39.9421 61.768 40.0112 61.789 40.0823 61.7961C 40.1534 61.8032 40.2252 61.7962 40.2935 61.7757L 48.2927 59.3552C 48.394 59.3265 48.4845 59.2693 48.5535 59.1901C 48.6224 59.1109 48.6668 59.0132 48.6811 58.9091C 48.6954 58.805 48.6791 58.6989 48.6341 58.6037C 48.5892 58.5084 48.5174 58.4282 48.4277 58.3727Z"/>
<path id="path36_fill" fill-rule="evenodd" d="M 46.889 61.0038C 46.7657 60.9337 46.6201 60.9143 46.4831 60.9496L 39.8436 62.5125C 39.7699 62.5242 39.6995 62.5512 39.6368 62.5913C 39.574 62.6314 39.5203 62.684 39.479 62.7458C 39.4376 62.8077 39.4096 62.8773 39.3964 62.9505C 39.3833 63.0238 39.3854 63.0991 39.4026 63.1716C 39.4199 63.2441 39.452 63.3123 39.4968 63.372C 39.5416 63.4318 39.5982 63.4817 39.6631 63.5188C 39.728 63.5558 39.7997 63.5794 39.874 63.5876C 39.9482 63.5959 40.0233 63.5888 40.0945 63.5668L 46.7343 62.0035C 46.8417 61.9807 46.9396 61.9259 47.015 61.8464C 47.0904 61.7668 47.1397 61.6664 47.1565 61.5581C 47.1733 61.4497 47.1568 61.3386 47.1091 61.2396C 47.0614 61.1405 46.9845 61.0587 46.889 61.0038Z"/>
<path id="path37_fill" fill-rule="evenodd" d="M 59.5566 95.7932C 59.4478 95.7369 59.3232 95.7189 59.2031 95.7419L 54.2416 96.6359C 54.0997 96.6616 53.9741 96.7425 53.8925 96.8609C 53.8108 96.9792 53.7797 97.1252 53.8061 97.2668C 53.8324 97.4084 53.914 97.5342 54.0329 97.6162C 54.1519 97.6982 54.2984 97.7298 54.4403 97.7041L 59.4021 96.8096C 59.5141 96.7902 59.617 96.7363 59.6963 96.6553C 59.7757 96.5744 59.8276 96.4706 59.8446 96.3585C 59.8616 96.2463 59.8429 96.1316 59.7912 96.0304C 59.7395 95.9291 59.6577 95.8457 59.5566 95.7932Z"/>
<path id="path38_fill" fill-rule="evenodd" d="M 59.3657 97.6723C 59.2409 97.6054 59.0951 97.5893 58.9592 97.6277L 52.35 99.4527C 52.2802 99.4708 52.2146 99.5025 52.1573 99.5462C 52.1 99.5898 52.052 99.6445 52.0161 99.7069C 51.9802 99.7693 51.9572 99.8383 51.9484 99.9098C 51.9396 99.9813 51.9452 100.054 51.9648 100.123C 51.9844 100.193 52.0177 100.258 52.0627 100.314C 52.1076 100.371 52.1635 100.418 52.2269 100.453C 52.2902 100.488 52.3598 100.51 52.4316 100.517C 52.5035 100.525 52.5762 100.519 52.6453 100.498L 59.2545 98.6731C 59.3594 98.6448 59.4532 98.5855 59.5238 98.5033C 59.5944 98.421 59.6385 98.3195 59.6505 98.2117C 59.6625 98.1038 59.6417 97.9949 59.591 97.8987C 59.5403 97.8025 59.4617 97.7238 59.3657 97.6723Z"/>
<path id="path39_fill" fill-rule="evenodd" d="M 58.861 100.035C 58.7341 99.9759 58.5893 99.9676 58.4569 100.012L 51.3417 102.322C 51.2738 102.344 51.2109 102.379 51.1568 102.426C 51.1026 102.472 51.0582 102.529 51.0261 102.592C 50.9611 102.721 50.9501 102.87 50.9954 103.007C 51.0407 103.144 51.1386 103.258 51.2677 103.323C 51.3967 103.388 51.5462 103.4 51.6834 103.355L 58.7949 101.043C 58.899 101.01 58.9908 100.947 59.0581 100.861C 59.1255 100.776 59.1654 100.672 59.1725 100.563C 59.1796 100.454 59.1537 100.346 59.0981 100.252C 59.0426 100.157 58.96 100.082 58.861 100.035Z"/>
<path id="path40_fill" fill-rule="evenodd" d="M 58.3748 102.409C 58.2456 102.351 58.0991 102.345 57.9663 102.393L 51.199 104.679C 51.1294 104.701 51.065 104.735 51.0094 104.782C 50.9538 104.829 50.9082 104.886 50.8754 104.951C 50.8425 105.016 50.823 105.086 50.8181 105.159C 50.8132 105.231 50.8228 105.304 50.8466 105.373C 50.8705 105.442 50.9079 105.505 50.9566 105.559C 51.0054 105.614 51.0645 105.658 51.1305 105.689C 51.1966 105.72 51.2681 105.737 51.3409 105.74C 51.4137 105.743 51.4863 105.731 51.5544 105.706L 58.3181 103.417C 58.422 103.384 58.5131 103.32 58.5796 103.233C 58.6462 103.147 58.6851 103.043 58.6912 102.934C 58.6973 102.825 58.6704 102.717 58.614 102.623C 58.5575 102.529 58.4742 102.455 58.3748 102.409Z"/>
<path id="path41_fill" fill-rule="evenodd" d="M 58.3712 104.176C 58.2999 104.141 58.2217 104.122 58.1423 104.12C 58.0628 104.118 57.9839 104.133 57.9111 104.165L 51.7296 106.789C 51.6639 106.817 51.6044 106.857 51.5544 106.908C 51.5044 106.959 51.4651 107.019 51.4385 107.085C 51.412 107.152 51.3988 107.222 51.3997 107.294C 51.4005 107.365 51.4154 107.436 51.4436 107.501C 51.4718 107.567 51.5127 107.627 51.5639 107.677C 51.6151 107.727 51.6755 107.766 51.742 107.793C 51.8084 107.82 51.8794 107.833 51.9509 107.833C 52.0224 107.832 52.0931 107.818 52.1589 107.79L 58.3404 105.165C 58.4373 105.126 58.5205 105.059 58.5801 104.974C 58.6398 104.888 58.6732 104.787 58.6765 104.682C 58.6797 104.578 58.6527 104.474 58.5985 104.385C 58.5443 104.295 58.4654 104.222 58.3712 104.176Z"/>
<path id="path42_fill" fill-rule="evenodd" d="M 58.1842 106.61C 58.1127 106.576 58.0345 106.558 57.9553 106.557C 57.8761 106.556 57.7978 106.572 57.7257 106.604L 52.6856 108.783C 52.6196 108.811 52.5598 108.852 52.5097 108.903C 52.4597 108.954 52.4204 109.015 52.394 109.081C 52.3676 109.148 52.3547 109.219 52.356 109.29C 52.3573 109.362 52.3729 109.433 52.4017 109.499C 52.4306 109.564 52.4722 109.624 52.5242 109.673C 52.5761 109.723 52.6374 109.762 52.7044 109.788C 52.7714 109.814 52.843 109.827 52.9148 109.825C 52.9866 109.823 53.0573 109.807 53.1228 109.778L 58.1592 107.598C 58.2554 107.557 58.3378 107.49 58.3966 107.404C 58.4553 107.318 58.488 107.217 58.4906 107.113C 58.4933 107.009 58.4658 106.906 58.4114 106.817C 58.3571 106.728 58.2782 106.656 58.1842 106.61Z"/>
<path id="path43_fill" fill-rule="evenodd" d="M 57.9665 108.919C 57.8786 108.875 57.7808 108.856 57.6832 108.863C 57.5856 108.87 57.4919 108.904 57.412 108.96L 55.0356 110.575C 54.9767 110.615 54.9262 110.666 54.8872 110.726C 54.8482 110.785 54.8214 110.852 54.8084 110.922C 54.7819 111.064 54.813 111.21 54.8947 111.329C 54.9764 111.448 55.1021 111.53 55.2441 111.557C 55.3861 111.584 55.5326 111.554 55.6517 111.473L 58.028 109.858C 58.1079 109.806 58.1723 109.733 58.2149 109.648C 58.2574 109.562 58.2766 109.467 58.2704 109.372C 58.2641 109.276 58.2327 109.184 58.1793 109.105C 58.126 109.025 58.0525 108.961 57.9665 108.919Z"/>
<path id="path44_fill" fill-rule="evenodd" d="M 132.741 167.499C 130.03 167.291 127.221 167.88 124.812 169.103C 121.959 170.553 119.318 172.793 117.691 175.631C 116.058 178.48 115.272 181.942 115.649 185.228C 116.1 189.156 117.742 193.285 120.754 196.06C 123.992 199.045 128.654 200.991 133.141 200.683C 137.696 200.371 142.061 197.738 144.924 194.337C 147.352 191.454 148.424 187.533 148.447 183.894C 148.462 179.778 147.521 175.058 144.469 171.897C 141.432 168.75 136.763 167.811 132.741 167.503L 132.741 167.499ZM 132.571 169.662C 136.365 169.953 140.503 170.917 142.895 173.396C 145.331 175.919 146.282 180.116 146.269 183.881C 146.248 187.096 145.253 190.575 143.257 192.945C 140.748 195.924 136.779 198.26 132.988 198.52C 129.252 198.776 125.042 197.061 122.234 194.473C 119.735 192.169 118.212 188.48 117.81 184.982C 117.492 182.214 118.179 179.146 119.58 176.702C 120.944 174.322 123.275 172.316 125.799 171.034C 127.844 169.995 130.296 169.488 132.571 169.662Z"/>
<path id="path45_fill" fill-rule="evenodd" d="M 134.077 153.813C 125.961 153.257 117.388 156.812 111.48 162.254C 106.037 167.268 102.996 174.842 102.168 182.044C 101.484 187.999 102.918 194.346 105.89 199.527C 108.838 204.666 113.672 208.773 118.899 211.427C 123.274 213.648 128.408 214.72 133.32 214.343C 140.79 213.771 149.342 211.995 154.777 206.368C 160.25 200.701 162.027 192.048 162 184.457C 161.959 177.796 159.978 170.615 155.598 165.416C 150.363 159.202 142.314 154.382 134.077 153.817L 134.077 153.813ZM 133.928 155.972C 141.403 156.484 149.046 161.012 153.926 166.805C 157.874 171.491 159.784 178.229 159.822 184.466C 159.848 191.706 158.065 199.836 153.207 204.865C 148.418 209.824 140.393 211.63 133.15 212.185C 128.674 212.527 123.901 211.533 119.89 209.496C 114.993 207.01 110.468 203.133 107.783 198.452C 105.044 193.675 103.709 187.726 104.334 182.29C 105.112 175.518 108.03 168.388 112.96 163.846C 118.437 158.8 126.564 155.467 133.928 155.972Z"/>
<path id="path46_fill" fill-rule="evenodd" d="M 119.439 157.737L 117.559 158.833L 124.638 170.89L 126.518 169.793L 119.439 157.737Z"/>
<path id="path47_fill" fill-rule="evenodd" d="M 145.907 158.364L 138.42 169.607L 140.232 170.805L 147.719 159.562L 145.907 158.364Z"/>
<path id="path48_fill" fill-rule="evenodd" d="M 155.917 168.193L 145.027 174.695L 146.15 176.554L 157.04 170.051L 155.917 168.193Z"/>
<path id="path49_fill" fill-rule="evenodd" d="M 146.554 189.457L 145.439 191.319L 158.235 198.905L 159.35 197.042L 146.554 189.457Z"/>
<path id="path50_fill" fill-rule="evenodd" d="M 141.577 196.39L 139.526 197.123L 144.427 210.669L 146.477 209.937L 141.577 196.39Z"/>
<path id="path51_fill" fill-rule="evenodd" d="M 123.412 197.161L 116.606 208.811L 118.486 209.899L 125.293 198.249L 123.412 197.161Z"/>
<path id="path52_fill" fill-rule="evenodd" d="M 118.376 190.121L 106.261 196.894L 107.324 198.786L 119.439 192.013L 118.376 190.121Z"/>
<path id="path53_fill" fill-rule="evenodd" d="M 107.367 168.798L 106.329 170.703L 117.627 176.799L 118.665 174.894L 107.367 168.798Z"/>
<path id="path54_fill" fill-rule="evenodd" d="M 109.064 172.638C 108.94 172.633 108.819 172.671 108.719 172.744L 104.159 175.995C 104.042 176.08 103.963 176.207 103.94 176.349C 103.916 176.491 103.951 176.636 104.036 176.753C 104.12 176.87 104.248 176.948 104.391 176.971C 104.534 176.995 104.68 176.96 104.797 176.876L 109.357 173.625C 109.451 173.56 109.523 173.467 109.561 173.359C 109.599 173.252 109.602 173.135 109.569 173.026C 109.536 172.917 109.47 172.82 109.379 172.751C 109.289 172.681 109.178 172.642 109.064 172.638Z"/>
<path id="path55_fill" fill-rule="evenodd" d="M 109.8 174.331C 109.658 174.329 109.52 174.382 109.417 174.478L 103.359 180.032C 103.307 180.081 103.264 180.139 103.234 180.204C 103.203 180.269 103.186 180.339 103.183 180.41C 103.18 180.481 103.192 180.552 103.216 180.62C 103.241 180.687 103.279 180.748 103.327 180.801C 103.376 180.853 103.435 180.896 103.5 180.926C 103.565 180.956 103.635 180.973 103.707 180.976C 103.779 180.979 103.85 180.967 103.918 180.943C 103.985 180.918 104.047 180.881 104.1 180.832L 110.157 175.278C 110.24 175.206 110.298 175.11 110.325 175.003C 110.352 174.897 110.345 174.784 110.307 174.682C 110.268 174.579 110.199 174.49 110.108 174.427C 110.018 174.365 109.91 174.332 109.8 174.331Z"/>
<path id="path56_fill" fill-rule="evenodd" d="M 110.642 176.702C 110.52 176.71 110.405 176.759 110.315 176.841L 102.487 183.682C 102.43 183.727 102.383 183.784 102.349 183.848C 102.315 183.913 102.294 183.983 102.287 184.056C 102.281 184.128 102.289 184.201 102.312 184.271C 102.334 184.34 102.371 184.404 102.419 184.459C 102.467 184.514 102.526 184.558 102.592 184.59C 102.657 184.622 102.729 184.641 102.802 184.644C 102.875 184.648 102.948 184.637 103.017 184.612C 103.086 184.587 103.149 184.548 103.202 184.498L 111.033 177.658C 111.122 177.584 111.185 177.484 111.213 177.373C 111.241 177.261 111.233 177.143 111.189 177.037C 111.146 176.93 111.069 176.84 110.971 176.78C 110.872 176.72 110.757 176.693 110.642 176.702Z"/>
<path id="path57_fill" fill-rule="evenodd" d="M 111.097 179.343C 110.956 179.34 110.819 179.391 110.714 179.486L 103.023 186.395C 102.916 186.491 102.852 186.626 102.845 186.77C 102.838 186.914 102.888 187.054 102.985 187.161C 103.082 187.268 103.218 187.332 103.362 187.339C 103.507 187.346 103.648 187.295 103.755 187.199L 111.446 180.29C 111.528 180.218 111.587 180.123 111.614 180.017C 111.641 179.912 111.635 179.8 111.597 179.698C 111.56 179.595 111.492 179.507 111.403 179.443C 111.313 179.38 111.207 179.345 111.097 179.343Z"/>
<path id="path58_fill" fill-rule="evenodd" d="M 111.871 181.985C 111.75 181.992 111.635 182.039 111.544 182.119L 103.24 189.231C 103.184 189.277 103.138 189.333 103.105 189.397C 103.071 189.461 103.051 189.531 103.045 189.603C 103.039 189.675 103.047 189.747 103.069 189.815C 103.092 189.884 103.127 189.947 103.175 190.002C 103.222 190.057 103.28 190.101 103.344 190.133C 103.409 190.166 103.48 190.185 103.552 190.189C 103.624 190.194 103.697 190.184 103.765 190.161C 103.834 190.137 103.897 190.1 103.951 190.052L 112.254 182.94C 112.342 182.867 112.405 182.768 112.433 182.658C 112.461 182.547 112.453 182.43 112.411 182.324C 112.369 182.218 112.294 182.128 112.197 182.067C 112.1 182.006 111.986 181.978 111.871 181.985Z"/>
<path id="path59_fill" fill-rule="evenodd" d="M 112.824 185.033C 112.702 185.039 112.585 185.086 112.493 185.167L 104.121 192.347C 104.011 192.441 103.944 192.575 103.934 192.718C 103.923 192.862 103.971 193.004 104.066 193.113C 104.16 193.222 104.295 193.289 104.439 193.299C 104.583 193.309 104.726 193.262 104.835 193.168L 113.207 185.988C 113.295 185.915 113.358 185.816 113.386 185.705C 113.414 185.595 113.406 185.478 113.364 185.372C 113.321 185.266 113.246 185.176 113.15 185.115C 113.053 185.054 112.939 185.026 112.824 185.033Z"/>
<path id="path60_fill" fill-rule="evenodd" d="M 113.445 188.419C 113.323 188.425 113.206 188.471 113.114 188.551L 105.15 195.189C 105.095 195.235 105.05 195.291 105.017 195.354C 104.983 195.417 104.963 195.486 104.956 195.557C 104.95 195.628 104.957 195.699 104.979 195.767C 105 195.835 105.034 195.898 105.08 195.953C 105.126 196.008 105.182 196.053 105.246 196.087C 105.309 196.12 105.378 196.14 105.45 196.146C 105.521 196.153 105.593 196.145 105.661 196.124C 105.729 196.103 105.793 196.069 105.848 196.023L 113.811 189.385C 113.901 189.314 113.966 189.216 113.997 189.105C 114.028 188.995 114.022 188.877 113.982 188.77C 113.941 188.663 113.867 188.571 113.771 188.508C 113.674 188.445 113.561 188.414 113.445 188.419Z"/>
<path id="path61_fill" fill-rule="evenodd" d="M 210.773 88.7418C 209.259 88.1569 207.99 87.779 207.99 87.779C 207.741 87.7045 207.473 87.7183 207.233 87.8182C 206.993 87.9181 206.795 88.0979 206.672 88.3272C 206.672 88.3272 206.18 89.2486 205.472 90.3036C 204.764 91.3587 203.772 92.5309 203.213 92.8815C 201.94 93.6792 200.041 93.7565 198.064 93.9064C 196.626 94.0157 193.075 93.6162 193.075 93.6162L 193.087 93.6212C 192.842 93.5881 192.592 93.6369 192.376 93.76C 192.161 93.883 191.992 94.0735 191.896 94.3021C 191.896 94.3021 188.95 101.636 187.434 105.258C 184.645 111.917 178.853 125.203 178.853 125.203C 178.793 125.341 178.761 125.49 178.76 125.641C 178.758 125.791 178.787 125.941 178.844 126.081C 178.901 126.22 178.986 126.347 179.093 126.453C 179.2 126.56 179.327 126.643 179.467 126.7L 205.387 137.106C 205.66 137.216 205.966 137.215 206.238 137.102C 206.511 136.99 206.729 136.776 206.845 136.505C 206.845 136.505 215.621 116.073 218.896 106.918C 219.856 104.234 220.541 101.112 219.818 98.1089C 219.142 95.299 217.323 92.8619 215.227 91.0702C 214.04 90.0554 212.293 89.3113 210.779 88.7258L 210.773 88.7418ZM 209.958 90.8468C 211.38 91.3965 213.042 92.1955 213.751 92.8007C 215.561 94.348 217.092 96.4638 217.618 98.6497C 218.177 100.971 217.646 103.702 216.762 106.173C 213.671 114.814 205.752 133.274 205.181 134.609L 181.374 125.056C 181.934 123.769 186.853 112.49 189.508 106.148C 190.938 102.734 193.324 96.7912 193.678 95.9101C 194.497 96.0097 196.529 96.2899 198.231 96.1608C 200.103 96.0187 202.414 96.0517 204.412 94.7994C 205.631 94.0353 206.568 92.7182 207.344 91.5627C 207.823 90.8488 207.928 90.6219 208.156 90.2231C 208.602 90.3633 208.978 90.4669 209.958 90.8468Z"/>
<path id="path62_fill" fill-rule="evenodd" d="M 195.054 131.693L 188.722 146L 185.103 144.835L 190.725 129.934L 188.613 129.135L 182.577 145.147C 182.523 145.29 182.498 145.443 182.505 145.596C 182.511 145.748 182.549 145.898 182.615 146.036C 182.682 146.174 182.775 146.297 182.89 146.397C 183.006 146.498 183.14 146.574 183.286 146.621L 188.995 148.461C 189.261 148.547 189.549 148.532 189.804 148.417C 190.059 148.303 190.262 148.098 190.375 147.843L 197.12 132.605L 195.054 131.693Z"/>
<path id="path63_fill" fill-rule="evenodd" d="M 216.844 106.416C 216.844 106.416 216.407 106.797 215.836 107.186C 215.265 107.574 214.495 107.893 214.388 107.9L 214.38 107.897C 214.347 107.907 213.895 107.698 213.289 107.257C 212.985 107.036 212.65 106.783 212.203 106.591C 211.753 106.408 211.101 106.29 210.494 106.547C 208.519 107.376 207.655 109.236 207.068 110.948C 206.481 112.66 206.06 114.368 205.326 115.436C 204.642 116.43 204.174 117.267 203.7 117.501C 202.978 117.856 201.961 117.928 201.624 117.712C 201.193 117.436 200.808 116.344 200.814 115.387C 200.819 114.692 201.191 113.936 201.739 113.023C 202.288 112.11 202.997 111.078 203.252 109.741C 203.428 108.817 203.788 107.473 203.076 106.153C 202.265 104.64 200.725 103.403 198.864 103.314C 197.119 103.23 195.995 104.474 195.205 105.179C 194.456 105.848 194.146 106.653 193.856 107.242C 193.565 107.831 193.337 108.153 193.118 108.269C 192.454 108.621 191.344 108.658 190.838 108.364C 190.768 108.336 190.232 107.606 189.939 106.889C 189.646 106.172 189.476 105.525 189.476 105.525L 187.291 106.087C 187.291 106.087 187.488 106.866 187.848 107.746C 188.208 108.626 188.609 109.67 189.694 110.306L 189.698 110.308C 191.138 111.151 192.845 110.966 194.172 110.264C 195.127 109.759 195.558 108.896 195.882 108.239C 196.206 107.581 196.467 107.078 196.709 106.862C 197.541 106.119 198.328 105.548 198.755 105.568C 199.537 105.606 200.648 106.393 201.09 107.219C 201.277 107.565 201.215 108.379 201.036 109.315C 200.895 110.057 200.385 110.891 199.807 111.855C 199.228 112.82 198.566 113.948 198.557 115.368C 198.548 116.772 198.847 118.611 200.404 119.609C 201.856 120.54 203.516 120.105 204.7 119.521C 206.133 118.815 206.665 117.469 207.186 116.712C 208.283 115.118 208.674 113.222 209.204 111.676C 209.725 110.156 210.29 109.141 211.336 108.675C 211.457 108.724 211.685 108.875 211.961 109.078C 212.529 109.49 213.294 110.232 214.533 110.15C 215.618 110.081 216.41 109.523 217.104 109.05C 217.799 108.577 218.329 108.112 218.329 108.112L 216.845 106.413L 216.844 106.416Z"/>
<path id="path64_fill" fill-rule="evenodd" d="M 190.15 112.333C 190.011 112.288 189.86 112.298 189.729 112.362L 186.156 114.028C 186.02 114.092 185.915 114.206 185.864 114.347C 185.813 114.488 185.82 114.643 185.883 114.779C 185.947 114.915 186.062 115.019 186.202 115.071C 186.343 115.122 186.498 115.115 186.634 115.051L 190.207 113.384C 190.311 113.338 190.398 113.261 190.457 113.163C 190.517 113.066 190.545 112.953 190.539 112.839C 190.533 112.725 190.492 112.616 190.423 112.526C 190.353 112.436 190.258 112.368 190.15 112.333Z"/>
<path id="path65_fill" fill-rule="evenodd" d="M 190.046 114.271C 189.906 114.227 189.754 114.238 189.623 114.304L 184.434 116.759C 184.362 116.787 184.297 116.83 184.243 116.885C 184.188 116.939 184.145 117.004 184.117 117.076C 184.088 117.148 184.075 117.225 184.077 117.302C 184.079 117.379 184.098 117.455 184.131 117.524C 184.164 117.594 184.21 117.657 184.268 117.708C 184.326 117.759 184.394 117.797 184.467 117.821C 184.541 117.845 184.618 117.853 184.695 117.846C 184.772 117.838 184.846 117.815 184.914 117.778L 190.103 115.323C 190.207 115.276 190.294 115.199 190.353 115.101C 190.413 115.004 190.441 114.891 190.435 114.777C 190.428 114.663 190.388 114.554 190.319 114.464C 190.249 114.374 190.154 114.306 190.046 114.271Z"/>
<path id="path66_fill" fill-rule="evenodd" d="M 189.872 116.789C 189.734 116.741 189.583 116.747 189.45 116.808L 182.844 119.752C 182.775 119.781 182.712 119.824 182.66 119.877C 182.607 119.931 182.566 119.994 182.538 120.064C 182.511 120.133 182.497 120.208 182.498 120.283C 182.5 120.357 182.516 120.431 182.546 120.5C 182.576 120.568 182.62 120.63 182.674 120.682C 182.729 120.733 182.793 120.773 182.863 120.8C 182.933 120.826 183.008 120.839 183.083 120.836C 183.157 120.833 183.231 120.816 183.299 120.784L 189.905 117.84C 190.01 117.796 190.099 117.721 190.16 117.625C 190.221 117.529 190.252 117.417 190.248 117.303C 190.244 117.19 190.206 117.08 190.139 116.988C 190.072 116.896 189.979 116.827 189.872 116.789Z"/>
<path id="path67_fill" fill-rule="evenodd" d="M 189.466 118.908C 189.328 118.86 189.177 118.866 189.044 118.927L 181.059 122.452C 180.991 122.481 180.929 122.524 180.878 122.578C 180.826 122.631 180.786 122.694 180.759 122.764C 180.732 122.833 180.719 122.907 180.72 122.981C 180.722 123.055 180.738 123.128 180.768 123.196C 180.798 123.264 180.841 123.326 180.895 123.377C 180.949 123.428 181.012 123.469 181.081 123.495C 181.151 123.522 181.225 123.535 181.299 123.533C 181.373 123.531 181.446 123.514 181.514 123.484L 189.499 119.959C 189.604 119.915 189.693 119.84 189.754 119.744C 189.815 119.648 189.846 119.536 189.842 119.422C 189.838 119.309 189.8 119.199 189.733 119.107C 189.666 119.016 189.573 118.946 189.466 118.908Z"/>
<path id="path68_fill" fill-rule="evenodd" d="M 189.158 121.372C 189.02 121.32 188.868 121.325 188.734 121.384L 180.368 124.907C 180.299 124.934 180.235 124.976 180.181 125.028C 180.128 125.081 180.085 125.143 180.056 125.213C 180.027 125.282 180.012 125.356 180.012 125.432C 180.012 125.507 180.027 125.581 180.056 125.65C 180.085 125.72 180.128 125.782 180.182 125.835C 180.236 125.887 180.299 125.928 180.369 125.956C 180.439 125.984 180.514 125.997 180.589 125.995C 180.664 125.994 180.738 125.977 180.807 125.946L 189.172 122.424C 189.277 122.382 189.368 122.308 189.431 122.213C 189.494 122.119 189.527 122.007 189.525 121.893C 189.524 121.779 189.488 121.668 189.422 121.575C 189.357 121.482 189.264 121.411 189.158 121.372Z"/>
<path id="path69_fill" fill-rule="evenodd" d="M 189.156 123.351C 189.016 123.309 188.865 123.323 188.735 123.389L 183.034 126.169C 182.961 126.197 182.894 126.239 182.838 126.294C 182.782 126.35 182.739 126.416 182.71 126.489C 182.681 126.562 182.668 126.64 182.671 126.718C 182.674 126.796 182.693 126.873 182.727 126.944C 182.762 127.014 182.81 127.077 182.87 127.127C 182.93 127.178 183 127.215 183.075 127.238C 183.15 127.26 183.23 127.266 183.307 127.256C 183.385 127.246 183.46 127.219 183.527 127.179L 189.228 124.399C 189.331 124.351 189.416 124.272 189.474 124.174C 189.531 124.076 189.557 123.963 189.549 123.85C 189.542 123.737 189.5 123.629 189.429 123.54C 189.359 123.451 189.264 123.385 189.156 123.351Z"/>
<path id="path70_fill" fill-rule="evenodd" d="M 189.777 125.356C 189.636 125.314 189.484 125.33 189.355 125.398L 185.702 127.261C 185.568 127.329 185.467 127.447 185.421 127.59C 185.374 127.732 185.386 127.888 185.454 128.021C 185.522 128.155 185.641 128.256 185.783 128.303C 185.926 128.349 186.081 128.337 186.215 128.269L 189.867 126.407C 189.97 126.357 190.056 126.277 190.112 126.177C 190.169 126.078 190.194 125.964 190.184 125.85C 190.174 125.736 190.13 125.628 190.057 125.539C 189.984 125.451 189.887 125.387 189.777 125.356Z"/>
<path id="path71_fill" fill-rule="evenodd" d="M 166.96 14.151C 163.683 12.1637 159.529 12.5395 156.16 13.3568C 152.726 14.1895 149.243 16.013 146.994 18.9082C 144.136 22.5869 141.911 27.7175 142.961 32.5468L 142.956 32.5452C 144.191 38.227 148.78 43.5766 154.305 45.4846C 159.432 47.2551 165.685 45.8148 169.901 42.5671C 173.816 39.552 176.443 34.3112 176.186 29.327C 175.877 23.3194 172.082 17.2563 166.96 14.151ZM 165.789 16.0797C 170.195 18.7512 173.667 24.3331 173.93 29.4418C 174.14 33.5192 171.797 38.2586 168.522 40.7812C 164.929 43.5484 159.24 44.799 155.041 43.3497C 150.417 41.752 146.206 36.8718 145.163 32.0708C 144.333 28.252 146.203 23.6037 148.773 20.2957C 150.601 17.9426 153.659 16.2906 156.689 15.5559C 159.777 14.807 163.381 14.6249 165.787 16.0838L 165.789 16.0797Z"/>
<path id="path72_fill" fill-rule="evenodd" d="M 150.722 27.7562C 150.555 27.697 150.377 27.6779 150.201 27.7003C 150.025 27.7228 149.858 27.7861 149.711 27.8854C 149.565 27.9846 149.444 28.117 149.358 28.2717C 149.272 28.4264 149.223 28.5991 149.217 28.776C 149.092 31.0262 150.018 33.2332 151.306 34.9953C 152.556 36.7068 154.354 38.579 156.797 39.0904C 160.498 39.8649 164.736 38.8711 167.409 36.376C 167.628 36.1718 167.756 35.889 167.767 35.5899C 167.777 35.2907 167.668 34.9997 167.464 34.7809C 167.259 34.5621 166.976 34.4335 166.677 34.4232C 166.378 34.4129 166.087 34.5219 165.868 34.7261C 163.888 36.5751 160.2 37.4979 157.259 36.8825C 155.741 36.5649 154.214 35.1483 153.13 33.6641C 152.08 32.2279 151.386 30.4199 151.47 28.901C 151.488 28.6546 151.424 28.4092 151.289 28.2024C 151.154 27.9956 150.955 27.8388 150.722 27.7562Z"/>
<path id="path73_fill" fill-rule="evenodd" d="M 167.091 25.426C 167.493 25.5262 167.859 25.8926 167.991 26.2866C 168.113 26.6531 168.037 27.1227 167.804 27.4313C 167.621 27.6727 167.284 27.8017 166.982 27.8178C 166.45 27.8466 165.749 27.7509 165.47 27.296C 165.21 26.8734 165.346 26.1951 165.673 25.8211C 165.995 25.4512 166.614 25.3067 167.091 25.426Z"/>
<path id="path74_fill" fill-rule="evenodd" d="M 155.89 23.9022C 156.256 24.0992 156.773 24.0739 157.135 23.8711C 157.473 23.6827 157.732 23.284 157.767 22.899C 157.794 22.5973 157.632 22.2753 157.419 22.0599C 157.045 21.6804 156.463 21.2799 155.95 21.4286C 155.473 21.5663 155.118 22.1595 155.107 22.6556C 155.097 23.1461 155.458 23.6701 155.89 23.9022Z"/>
<path id="path75_fill" fill-rule="evenodd" d="M 170.918 0.0584258C 170.635 -0.0364859 170.325 -0.015131 170.058 0.117893C 169.79 0.250916 169.586 0.48471 169.49 0.767938L 167.169 7.35565C 167.119 7.49556 167.097 7.64405 167.104 7.79251C 167.111 7.94097 167.148 8.08653 167.212 8.22082C 167.275 8.3551 167.365 8.47529 167.476 8.57485C 167.586 8.6744 167.715 8.75122 167.855 8.80081C 167.995 8.85041 168.144 8.87184 168.292 8.86388C 168.441 8.85592 168.586 8.81871 168.72 8.75441C 168.854 8.69012 168.974 8.60008 169.073 8.48929C 169.172 8.3785 169.249 8.24914 169.298 8.10881L 171.619 1.52123C 171.672 1.37937 171.695 1.22834 171.688 1.07724C 171.681 0.926136 171.644 0.778045 171.578 0.641643C 171.513 0.505241 171.421 0.383326 171.307 0.28324C 171.194 0.183155 171.062 0.106333 170.918 0.0584258Z"/>
<path id="path76_fill" fill-rule="evenodd" d="M 151.388 50.7275C 151.104 50.6336 150.794 50.6563 150.527 50.7904C 150.26 50.9245 150.057 51.1591 149.963 51.4427L 147.87 57.4386C 147.82 57.5787 147.799 57.7272 147.807 57.8756C 147.815 58.024 147.852 58.1692 147.917 58.3032C 147.981 58.4372 148.071 58.5572 148.182 58.6563C 148.293 58.7553 148.422 58.8317 148.562 58.8808C 148.702 58.9298 148.851 58.9506 148.999 58.9421C 149.148 58.9336 149.293 58.8958 149.427 58.831C 149.561 58.7662 149.68 58.6757 149.779 58.5646C 149.878 58.4535 149.953 58.324 150.002 58.1835L 152.094 52.1876C 152.146 52.0456 152.169 51.8945 152.162 51.7434C 152.154 51.5923 152.116 51.4442 152.05 51.3081C 151.984 51.1719 151.892 51.0504 151.778 50.9508C 151.664 50.8511 151.531 50.7748 151.388 50.7275Z"/>
<path id="path77_fill" fill-rule="evenodd" d="M 188.531 39.2495C 188.507 39.2391 188.482 39.2296 188.457 39.2209L 181.868 36.8995C 181.727 36.8407 181.575 36.8115 181.421 36.8135C 181.268 36.8156 181.116 36.8491 180.976 36.9117C 180.836 36.9743 180.71 37.0646 180.606 37.1774C 180.502 37.2903 180.423 37.4231 180.372 37.5678C 180.321 37.7126 180.3 37.8664 180.311 38.0194C 180.321 38.1725 180.363 38.3217 180.433 38.4581C 180.503 38.5946 180.6 38.7151 180.719 38.8127C 180.837 38.9103 180.974 38.9827 181.122 39.0255L 187.71 41.347C 187.988 41.4513 188.296 41.4421 188.567 41.3214C 188.838 41.2007 189.05 40.9782 189.158 40.702C 189.266 40.4257 189.261 40.1181 189.144 39.8456C 189.027 39.573 188.808 39.3573 188.533 39.2454L 188.531 39.2495Z"/>
<path id="path78_fill" fill-rule="evenodd" d="M 137.85 19.7195C 137.826 19.7091 137.801 19.6995 137.776 19.6909L 131.78 17.5984C 131.638 17.5404 131.485 17.512 131.332 17.5147C 131.179 17.5175 131.027 17.5515 130.888 17.6146C 130.748 17.6777 130.622 17.7685 130.519 17.8817C 130.416 17.9949 130.336 18.1281 130.286 18.273C 130.236 18.4179 130.216 18.5715 130.227 18.7244C 130.238 18.8774 130.28 19.0267 130.351 19.1628C 130.421 19.299 130.519 19.4193 130.638 19.5164C 130.756 19.6135 130.894 19.6854 131.041 19.7277L 137.038 21.8201C 137.316 21.9232 137.623 21.9127 137.894 21.7908C 138.164 21.669 138.376 21.4457 138.483 21.1692C 138.59 20.8926 138.583 20.5851 138.465 20.313C 138.347 20.041 138.127 19.8263 137.852 19.7154L 137.85 19.7195Z"/>
<path id="path79_fill" fill-rule="evenodd" d="M 187.89 16.0427C 187.74 15.9775 187.577 15.9457 187.413 15.95C 187.248 15.9543 187.087 15.9944 186.94 16.0674L 180.639 19.0881C 180.498 19.1478 180.371 19.2352 180.266 19.3453C 180.16 19.4554 180.078 19.5859 180.024 19.7287C 179.97 19.8715 179.946 20.0236 179.952 20.1761C 179.959 20.3285 179.997 20.4782 180.063 20.6157C 180.129 20.7533 180.222 20.876 180.337 20.9765C 180.452 21.0769 180.586 21.153 180.731 21.2001C 180.876 21.2473 181.03 21.2644 181.182 21.2506C 181.334 21.2369 181.481 21.1926 181.615 21.1202L 187.916 18.1035C 188.114 18.0123 188.281 17.8657 188.397 17.6814C 188.514 17.4971 188.574 17.283 188.572 17.065C 188.569 16.8471 188.503 16.6345 188.382 16.4531C 188.261 16.2716 188.09 16.1291 187.89 16.0427Z"/>
<path id="path80_fill" fill-rule="evenodd" d="M 138.246 38.0628C 138.095 37.9979 137.931 37.967 137.767 37.972C 137.602 37.9769 137.441 38.0178 137.294 38.0916L 131.576 40.8511C 131.442 40.9155 131.323 41.0056 131.224 41.1162C 131.125 41.2268 131.049 41.3558 131 41.4958C 130.951 41.6357 130.931 41.7839 130.939 41.932C 130.947 42.08 130.985 42.2248 131.049 42.3583C 131.114 42.4919 131.204 42.6115 131.314 42.7102C 131.425 42.8089 131.554 42.8849 131.694 42.9338C 131.834 42.9827 131.982 43.0034 132.13 42.995C 132.278 42.9866 132.423 42.9491 132.557 42.8847L 138.275 40.1252C 138.473 40.0337 138.641 39.8867 138.757 39.702C 138.874 39.5173 138.934 39.3027 138.931 39.0845C 138.928 38.8662 138.861 38.6534 138.74 38.4721C 138.618 38.2908 138.447 38.1486 138.246 38.0628Z"/>
<path id="path81_fill" fill-rule="evenodd" d="M 147.72 0.720217C 147.508 0.645426 147.278 0.635534 147.061 0.691909C 146.843 0.748283 146.647 0.868259 146.499 1.03655C 146.35 1.20485 146.254 1.41391 146.225 1.63667C 146.196 1.85942 146.233 2.08592 146.333 2.28709L 149.351 8.58679C 149.415 8.7205 149.505 8.84013 149.615 8.93916C 149.725 9.0382 149.854 9.11472 149.994 9.16399C 150.134 9.21327 150.282 9.23435 150.43 9.22636C 150.578 9.21838 150.723 9.18137 150.857 9.11734C 150.99 9.05332 151.11 8.96352 151.209 8.8532C 151.308 8.74287 151.385 8.61435 151.434 8.47453C 151.483 8.33472 151.504 8.18654 151.496 8.03851C 151.488 7.89048 151.451 7.74541 151.387 7.61171L 148.37 1.31202C 148.306 1.1749 148.216 1.05178 148.105 0.950132C 147.993 0.848487 147.862 0.770339 147.72 0.720217Z"/>
<path id="path82_fill" fill-rule="evenodd" d="M 169.743 50.3559C 169.531 50.282 169.302 50.2731 169.085 50.33C 168.868 50.3869 168.673 50.5072 168.525 50.6756C 168.376 50.8439 168.281 51.0526 168.252 51.275C 168.223 51.4975 168.261 51.7235 168.361 51.9244L 171.124 57.6483C 171.184 57.7884 171.272 57.9148 171.382 58.02C 171.493 58.1253 171.623 58.2073 171.766 58.2607C 171.909 58.314 172.061 58.3378 172.214 58.3307C 172.366 58.3236 172.516 58.2855 172.653 58.2191C 172.79 58.1526 172.913 58.0592 173.013 57.9441C 173.113 57.8291 173.189 57.6949 173.235 57.5497C 173.282 57.4045 173.299 57.2514 173.285 57.0995C 173.271 56.9476 173.226 56.8 173.154 56.6659L 170.393 50.9477C 170.33 50.8106 170.24 50.6875 170.128 50.5858C 170.016 50.4842 169.885 50.406 169.743 50.3559Z"/>
<path id="path83_fill" fill-rule="evenodd" d="M 154.015 17.9617C 153.913 17.9272 153.803 17.9223 153.698 17.9481L 147.312 19.3908C 147.24 19.4072 147.172 19.4375 147.111 19.4803C 147.05 19.5231 146.998 19.5776 146.959 19.6404C 146.919 19.7032 146.892 19.7731 146.88 19.8463C 146.867 19.9195 146.869 19.9944 146.885 20.0668C 146.902 20.1393 146.932 20.2077 146.975 20.2684C 147.018 20.3291 147.072 20.3807 147.135 20.4204C 147.198 20.46 147.268 20.4869 147.341 20.4995C 147.414 20.5121 147.489 20.5102 147.562 20.4938L 153.945 19.0454C 154.065 19.0197 154.174 18.9553 154.254 18.8622C 154.334 18.7691 154.382 18.6525 154.39 18.5299C 154.398 18.4072 154.365 18.2854 154.298 18.1828C 154.23 18.0803 154.13 18.0026 154.015 17.9617Z"/>
<path id="path84_fill" fill-rule="evenodd" d="M 151.944 20.8946C 151.826 20.8474 151.694 20.8418 151.572 20.8789L 145.247 22.6663C 145.102 22.707 144.98 22.8035 144.907 22.9343C 144.834 23.0651 144.816 23.2194 144.856 23.3636C 144.897 23.5079 144.993 23.6301 145.124 23.7033C 145.255 23.7765 145.41 23.7947 145.554 23.754L 151.879 21.9665C 151.995 21.9366 152.098 21.871 152.173 21.779C 152.249 21.687 152.294 21.5733 152.301 21.4544C 152.308 21.3354 152.277 21.2173 152.213 21.1168C 152.149 21.0164 152.055 20.9382 151.944 20.8946Z"/>
<path id="path85_fill" fill-rule="evenodd" d="M 150.054 24.0576C 149.936 24.0129 149.805 24.0095 149.685 24.0478L 145.051 25.4313C 144.908 25.4741 144.787 25.5721 144.716 25.704C 144.644 25.8359 144.628 25.9908 144.671 26.1345C 144.714 26.2782 144.812 26.399 144.944 26.4704C 145.076 26.5418 145.23 26.558 145.374 26.5153L 150.007 25.1317C 150.123 25.1002 150.225 25.033 150.299 24.9396C 150.374 24.8462 150.417 24.7314 150.422 24.612C 150.427 24.4926 150.394 24.3748 150.328 24.2752C 150.262 24.1757 150.166 24.099 150.054 24.0576Z"/>
<path id="path86_fill" fill-rule="evenodd" d="M 148.93 26.5719C 148.812 26.5272 148.681 26.5235 148.561 26.5618L 143.927 27.9454C 143.784 27.9882 143.663 28.0864 143.591 28.2183C 143.52 28.3502 143.504 28.505 143.547 28.6488C 143.59 28.7925 143.688 28.9135 143.82 28.985C 143.951 29.0564 144.106 29.0723 144.25 29.0296L 148.883 27.646C 148.999 27.6145 149.101 27.5474 149.176 27.454C 149.25 27.3605 149.293 27.2458 149.298 27.1264C 149.304 27.0069 149.271 26.8889 149.204 26.7893C 149.138 26.6898 149.042 26.6132 148.93 26.5719Z"/>
<path id="path87_fill" fill-rule="evenodd" d="M 148.201 29.2387C 148.083 29.194 147.952 29.1907 147.832 29.229L 143.198 30.6125C 143.055 30.6553 142.934 30.7533 142.863 30.8852C 142.791 31.017 142.775 31.1719 142.818 31.3157C 142.861 31.4594 142.959 31.5802 143.091 31.6516C 143.223 31.723 143.377 31.7392 143.521 31.6964L 148.154 30.3129C 148.27 30.2814 148.372 30.2142 148.446 30.1208C 148.521 30.0274 148.564 29.9125 148.569 29.7931C 148.574 29.6737 148.541 29.5559 148.475 29.4564C 148.409 29.3569 148.313 29.2802 148.201 29.2387Z"/>
<path id="path88_fill" fill-rule="evenodd" d="M 148.196 31.3778C 148.077 31.3331 147.947 31.3295 147.827 31.3678L 143.643 32.6038C 143.567 32.6199 143.495 32.6517 143.431 32.6971C 143.368 32.7424 143.315 32.8003 143.275 32.8673C 143.235 32.9342 143.209 33.0088 143.2 33.0861C 143.19 33.1633 143.197 33.2417 143.219 33.3164C 143.241 33.3911 143.278 33.4604 143.329 33.5199C 143.379 33.5794 143.441 33.6278 143.511 33.6621C 143.581 33.6965 143.657 33.7161 143.735 33.7195C 143.813 33.723 143.89 33.7103 143.963 33.6823L 148.147 32.4465C 148.26 32.414 148.361 32.3466 148.434 32.254C 148.507 32.1613 148.549 32.048 148.555 31.9301C 148.56 31.8121 148.528 31.6954 148.464 31.5964C 148.4 31.4974 148.306 31.4207 148.196 31.3778Z"/>
<path id="path89_fill" fill-rule="evenodd" d="M 148.843 33.3102C 148.723 33.2641 148.591 33.2601 148.469 33.2989L 144.285 34.5349C 144.214 34.5556 144.147 34.5902 144.089 34.6366C 144.032 34.6831 143.983 34.7405 143.948 34.8057C 143.912 34.8708 143.89 34.9422 143.882 35.0161C 143.874 35.0899 143.88 35.1648 143.901 35.2361C 143.922 35.3073 143.957 35.3736 144.004 35.4314C 144.05 35.4892 144.108 35.5372 144.173 35.5726C 144.239 35.6081 144.31 35.6302 144.384 35.6379C 144.458 35.6456 144.533 35.6387 144.604 35.6175L 148.788 34.3815C 148.902 34.3501 149.004 34.2834 149.078 34.1909C 149.153 34.0983 149.196 33.9849 149.202 33.8663C 149.208 33.7477 149.177 33.6301 149.112 33.5305C 149.048 33.4308 148.954 33.3532 148.843 33.3102Z"/>
<path id="path90_fill" fill-rule="evenodd" d="M 149.676 35.0791C 149.571 35.0501 149.461 35.0518 149.357 35.084L 145.169 36.3184C 145.025 36.3612 144.905 36.4594 144.833 36.5913C 144.762 36.7232 144.746 36.878 144.788 37.0218C 144.831 37.1656 144.929 37.2866 145.061 37.358C 145.193 37.4294 145.348 37.4454 145.492 37.4026L 149.676 36.1666C 149.794 36.1335 149.899 36.0624 149.973 35.9643C 150.048 35.8661 150.088 35.7464 150.088 35.6232C 150.088 35.5 150.048 35.3801 149.973 35.2819C 149.899 35.1838 149.794 35.1122 149.676 35.0791Z"/>
<path id="path91_fill" fill-rule="evenodd" d="M 151.05 36.9999C 150.931 36.9537 150.799 36.9496 150.677 36.9883L 146.493 38.2243C 146.417 38.2404 146.345 38.2723 146.281 38.3176C 146.218 38.363 146.165 38.4209 146.125 38.4878C 146.085 38.5547 146.059 38.6293 146.05 38.7066C 146.04 38.7839 146.047 38.8623 146.069 38.9369C 146.091 39.0116 146.128 39.0809 146.179 39.1404C 146.229 39.1999 146.291 39.2483 146.361 39.2827C 146.431 39.317 146.507 39.3366 146.585 39.3401C 146.663 39.3435 146.74 39.3308 146.813 39.3028L 151.001 38.0684C 151.114 38.0358 151.215 37.9683 151.288 37.8757C 151.361 37.7831 151.403 37.67 151.409 37.5521C 151.414 37.4342 151.382 37.3176 151.318 37.2187C 151.254 37.1197 151.16 37.0428 151.05 36.9999Z"/>
<path id="path92_fill" fill-rule="evenodd" d="M 137.967 275.69C 137.797 275.618 137.612 275.589 137.428 275.606C 137.244 275.622 137.067 275.683 136.912 275.784C 136.912 275.784 127.559 281.821 123.515 286.137C 119.333 290.6 115.654 295.748 113.228 301.432C 111.378 305.768 109.954 312.38 108.953 317.976C 107.953 323.573 107.398 328.132 107.398 328.132C 107.367 328.382 107.422 328.636 107.554 328.852C 107.685 329.068 107.885 329.234 108.121 329.323L 117.047 332.686C 117.257 332.765 117.485 332.779 117.704 332.728C 117.922 332.677 118.119 332.561 118.272 332.397L 124.69 325.453C 124.711 325.43 124.73 325.407 124.75 325.383C 124.75 325.383 131.221 317.222 133.594 312.219C 136.062 307.019 137.74 301.397 138.59 295.712C 139.566 289.184 138.655 276.649 138.655 276.649C 138.64 276.441 138.568 276.242 138.446 276.073C 138.325 275.904 138.159 275.771 137.967 275.69ZM 136.49 278.82C 136.65 281.578 137.114 290.334 136.36 295.378C 135.542 300.848 133.922 306.262 131.554 311.251C 129.471 315.641 123.005 323.945 122.986 323.969L 117.129 330.305L 109.769 327.534C 109.855 326.846 110.272 323.425 111.175 318.373C 112.164 312.843 113.622 306.261 115.306 302.315C 117.601 296.937 121.118 291.989 125.16 287.676C 128.141 284.495 134.28 280.308 136.49 278.82Z"/>
<path id="path93_fill" fill-rule="evenodd" d="M 135.912 277.235L 112.101 329.935L 114.153 330.875L 137.965 278.175L 135.912 277.235Z"/>
<path id="path94_fill" fill-rule="evenodd" d="M 167.368 293.276C 167.177 293.191 166.967 293.161 166.76 293.188C 166.76 293.188 157.933 294.344 153.431 295.704C 148.833 297.093 144.194 298.799 140.024 301.394C 137.4 303.027 133.597 306.93 133.597 306.93C 133.493 307.035 133.41 307.16 133.354 307.297C 133.298 307.434 133.27 307.581 133.27 307.729C 133.271 307.878 133.301 308.024 133.358 308.161C 133.416 308.297 133.499 308.421 133.604 308.526C 133.71 308.63 133.835 308.713 133.972 308.769C 134.109 308.825 134.256 308.853 134.404 308.853C 134.552 308.852 134.699 308.822 134.836 308.765C 134.972 308.708 135.096 308.624 135.201 308.519C 135.201 308.519 139.187 304.573 141.216 303.31C 145.123 300.879 149.575 299.226 154.085 297.863C 157.431 296.853 162.63 296.158 164.833 295.842C 163.731 298.132 159.046 307.955 155.587 313.489C 154.184 315.735 152.799 317.947 151.044 319.682C 146.973 323.709 142.048 326.941 136.966 329.788C 133.801 331.561 127.322 333.891 126.441 334.211L 121.442 328.212C 121.35 328.089 121.234 327.986 121.101 327.909C 120.968 327.832 120.821 327.784 120.669 327.766C 120.516 327.748 120.362 327.761 120.215 327.805C 120.068 327.848 119.931 327.922 119.813 328.02C 119.696 328.118 119.599 328.24 119.53 328.377C 119.461 328.513 119.42 328.663 119.41 328.816C 119.401 328.969 119.423 329.123 119.474 329.267C 119.526 329.411 119.607 329.544 119.711 329.656L 125.246 336.294C 125.394 336.471 125.592 336.599 125.814 336.66C 126.036 336.721 126.271 336.712 126.489 336.636C 126.489 336.636 134.252 333.898 138.071 331.758C 143.247 328.859 148.345 325.524 152.633 321.284C 154.642 319.297 156.1 316.928 157.501 314.686C 161.536 308.229 167.93 294.796 167.93 294.796C 167.996 294.66 168.033 294.511 168.04 294.36C 168.047 294.209 168.023 294.059 167.971 293.917C 167.918 293.775 167.838 293.645 167.734 293.535C 167.631 293.425 167.506 293.337 167.368 293.276Z"/>
<path id="path95_fill" fill-rule="evenodd" d="M 150.527 307.541C 150.509 307.532 150.49 307.523 150.471 307.516L 138.85 302.835L 138.009 304.926L 149.089 309.39L 151.588 319.881L 153.785 319.36L 151.149 308.301C 151.11 308.135 151.034 307.98 150.926 307.848C 150.819 307.715 150.683 307.609 150.529 307.537L 150.527 307.541Z"/>
<path id="path96_fill" fill-rule="evenodd" d="M 145.994 298.69L 145.016 300.72L 154.681 305.359L 156.139 313.065L 158.358 312.645L 156.793 304.38C 156.76 304.206 156.686 304.042 156.579 303.902C 156.471 303.762 156.332 303.649 156.173 303.572L 145.994 298.69Z"/>
<path id="path97_fill" fill-rule="evenodd" d="M 128.184 288.827C 128.108 288.798 128.025 288.786 127.943 288.793C 127.861 288.799 127.782 288.823 127.71 288.863L 117.507 294.361C 117.438 294.394 117.377 294.44 117.327 294.497C 117.277 294.555 117.239 294.621 117.216 294.694C 117.192 294.766 117.184 294.842 117.19 294.918C 117.197 294.994 117.219 295.067 117.255 295.134C 117.291 295.201 117.34 295.26 117.399 295.308C 117.458 295.356 117.526 295.391 117.599 295.411C 117.673 295.432 117.749 295.438 117.824 295.428C 117.9 295.418 117.972 295.393 118.038 295.355L 128.246 289.859C 128.343 289.809 128.424 289.732 128.478 289.637C 128.533 289.542 128.558 289.433 128.551 289.324C 128.545 289.214 128.507 289.109 128.442 289.021C 128.376 288.933 128.287 288.865 128.184 288.827Z"/>
<path id="path98_fill" fill-rule="evenodd" d="M 126.092 293.574C 126.016 293.542 125.934 293.527 125.852 293.529C 125.77 293.532 125.69 293.552 125.617 293.589L 115.827 298.398C 115.76 298.431 115.701 298.476 115.652 298.532C 115.603 298.587 115.565 298.652 115.541 298.723C 115.517 298.793 115.507 298.867 115.512 298.941C 115.517 299.015 115.536 299.087 115.569 299.154C 115.602 299.221 115.647 299.28 115.703 299.329C 115.759 299.378 115.824 299.416 115.894 299.439C 115.964 299.463 116.038 299.473 116.112 299.468C 116.186 299.464 116.259 299.444 116.325 299.412L 126.115 294.603C 126.213 294.556 126.296 294.482 126.353 294.389C 126.41 294.297 126.439 294.19 126.436 294.081C 126.434 293.973 126.4 293.867 126.339 293.777C 126.277 293.687 126.192 293.616 126.092 293.574Z"/>
<path id="path99_fill" fill-rule="evenodd" d="M 123.275 298.872C 123.199 298.843 123.117 298.83 123.036 298.836C 122.954 298.841 122.875 298.864 122.803 298.903L 112.678 304.213C 112.545 304.283 112.446 304.402 112.401 304.545C 112.356 304.688 112.37 304.843 112.44 304.975C 112.509 305.108 112.628 305.208 112.771 305.253C 112.914 305.297 113.069 305.284 113.202 305.214L 123.329 299.9C 123.425 299.85 123.506 299.774 123.56 299.679C 123.614 299.585 123.64 299.477 123.634 299.369C 123.629 299.26 123.592 299.155 123.528 299.067C 123.464 298.979 123.377 298.911 123.275 298.872Z"/>
<path id="path100_fill" fill-rule="evenodd" d="M 121.477 303.639C 121.401 303.609 121.318 303.596 121.236 303.601C 121.154 303.606 121.073 303.63 121.001 303.669L 112.452 308.152C 112.386 308.187 112.327 308.234 112.28 308.291C 112.232 308.348 112.197 308.413 112.174 308.484C 112.152 308.555 112.144 308.629 112.151 308.703C 112.157 308.777 112.179 308.849 112.213 308.915C 112.247 308.98 112.294 309.039 112.351 309.086C 112.408 309.134 112.474 309.17 112.545 309.192C 112.616 309.214 112.69 309.222 112.764 309.215C 112.838 309.209 112.91 309.187 112.975 309.153L 121.526 304.666C 121.623 304.616 121.703 304.54 121.757 304.446C 121.811 304.353 121.837 304.245 121.832 304.137C 121.827 304.029 121.791 303.924 121.728 303.836C 121.665 303.748 121.578 303.679 121.477 303.639Z"/>
<path id="path101_fill" fill-rule="evenodd" d="M 118.795 309.209C 118.72 309.177 118.638 309.162 118.556 309.165C 118.474 309.167 118.394 309.188 118.32 309.224L 110.667 312.911C 110.532 312.976 110.429 313.092 110.38 313.233C 110.331 313.375 110.34 313.53 110.405 313.665C 110.471 313.8 110.587 313.903 110.729 313.952C 110.87 314.001 111.025 313.992 111.16 313.927L 118.809 310.239C 118.908 310.193 118.991 310.12 119.049 310.027C 119.107 309.935 119.137 309.829 119.135 309.72C 119.134 309.611 119.101 309.505 119.041 309.414C 118.98 309.324 118.895 309.253 118.795 309.209Z"/>
<path id="path102_fill" fill-rule="evenodd" d="M 116.539 314.757C 116.403 314.698 116.25 314.696 116.112 314.749L 110.36 316.879C 110.289 316.904 110.224 316.943 110.168 316.993C 110.112 317.043 110.067 317.104 110.035 317.172C 110.003 317.24 109.985 317.313 109.982 317.388C 109.979 317.463 109.991 317.538 110.017 317.608C 110.043 317.679 110.083 317.743 110.134 317.798C 110.185 317.852 110.247 317.896 110.315 317.927C 110.384 317.958 110.457 317.975 110.532 317.976C 110.607 317.978 110.682 317.965 110.752 317.938L 116.504 315.807C 116.612 315.77 116.705 315.7 116.772 315.609C 116.84 315.517 116.878 315.407 116.881 315.293C 116.885 315.18 116.854 315.067 116.793 314.972C 116.732 314.876 116.643 314.801 116.539 314.757Z"/>
</defs>
</svg>
