<svg width="51" height="53" viewBox="0 0 51 53" version="1.1" xmlns="http://www.w3.org/2000/svg" xmlns:xlink="http://www.w3.org/1999/xlink">
<title>sandalhas</title>
<desc>Created using Figma</desc>
<g id="Canvas" transform="translate(-745 -868)">
<g id="sandalhas">
<use xlink:href="#path0_fill" transform="translate(745 868)" fill="#1188EE"/>
<use xlink:href="#path1_fill" transform="translate(745 868)" fill="#1188EE"/>
<use xlink:href="#path2_fill" transform="translate(745 868)" fill="#1188EE"/>
<use xlink:href="#path3_fill" transform="translate(745 868)" fill="#1188EE"/>
<use xlink:href="#path4_fill" transform="translate(745 868)" fill="#1188EE"/>
<use xlink:href="#path5_fill" transform="translate(745 868)" fill="#1188EE"/>
<use xlink:href="#path6_fill" transform="translate(745 868)" fill="#1188EE"/>
<use xlink:href="#path7_fill" transform="translate(745 868)" fill="#1188EE"/>
<use xlink:href="#path8_fill" transform="translate(745 868)" fill="#1188EE"/>
<use xlink:href="#path9_fill" transform="translate(745 868)" fill="#1188EE"/>
<use xlink:href="#path10_fill" transform="translate(745 868)" fill="#1188EE"/>
<use xlink:href="#path11_fill" transform="translate(745 868)" fill="#1188EE"/>
<use xlink:href="#path12_fill" transform="translate(745 868)" fill="#1188EE"/>
<use xlink:href="#path13_fill" transform="translate(745 868)" fill="#1188EE"/>
<use xlink:href="#path14_fill" transform="translate(745 868)" fill="#1188EE"/>
<use xlink:href="#path15_fill" transform="translate(745 868)" fill="#1188EE"/>
<use xlink:href="#path16_fill" transform="translate(745 868)" fill="#1188EE"/>
<use xlink:href="#path17_fill" transform="translate(745 868)" fill="#1188EE"/>
<use xlink:href="#path18_fill" transform="translate(745 868)" fill="#1188EE"/>
<use xlink:href="#path19_fill" transform="translate(745 868)" fill="#1188EE"/>
<use xlink:href="#path20_fill" transform="translate(745 868)" fill="#1188EE"/>
<use xlink:href="#path21_fill" transform="translate(745 868)" fill="#1188EE"/>
<use xlink:href="#path22_fill" transform="translate(745 868)" fill="#1188EE"/>
<use xlink:href="#path23_fill" transform="translate(745 868)" fill="#1188EE"/>
<use xlink:href="#path24_fill" transform="translate(745 868)" fill="#1188EE"/>
</g>
</g>
<defs>
<path id="path0_fill" fill-rule="evenodd" d="M 11.6366 9.19506C 11.4882 9.18997 11.3403 9.21528 11.202 9.26914C 11.0638 9.323 10.938 9.40434 10.8326 9.50832C 10.8326 9.50832 6.67674 13.5773 4.70267 15.9047C 3.52607 17.2914 2.07819 18.7264 1.17617 20.6459C 0.48766 22.1108 -0.0443673 23.7889 0.0190998 25.5479C 0.0792608 27.2034 0.753661 28.6567 1.38035 29.9166C 2.34454 31.8551 4.6899 34.6282 4.6899 34.6282C 4.78067 34.7382 4.89233 34.8293 5.01852 34.8964C 5.14471 34.9636 5.28296 35.0055 5.42537 35.0195C 5.56777 35.0334 5.71155 35.0192 5.84849 34.9779C 5.98543 34.9366 6.11285 34.8688 6.22347 34.7784C 6.33409 34.6881 6.42574 34.577 6.4932 34.4514C 6.56065 34.3258 6.60259 34.1883 6.61661 34.0466C 6.63063 33.9049 6.61646 33.7617 6.57491 33.6254C 6.53336 33.4891 6.46525 33.3624 6.37446 33.2524C 6.37446 33.2524 4.00353 30.3038 3.3329 28.9557C 2.73512 27.7538 2.23245 26.5613 2.19285 25.4717C 2.14742 24.2125 2.5526 22.8357 3.14999 21.5645C 3.84095 20.0941 5.11668 18.7742 6.36595 17.3016C 7.92049 15.4691 10.6466 12.7917 11.5345 11.9128C 12.3361 12.8146 14.5182 15.2339 15.648 16.9164C 16.7479 18.5548 17.8259 20.1346 18.2982 21.7846C 18.7504 23.3638 18.8834 25.0857 18.6087 26.6655C 18.4346 27.6629 17.958 28.6817 17.3368 29.5949C 17.0707 29.9861 16.3697 30.7108 15.7671 31.267C 15.1646 31.8229 14.6568 32.2406 14.6568 32.2406C 14.5465 32.3315 14.4552 32.4432 14.3882 32.5692C 14.3212 32.6952 14.2798 32.8332 14.2664 32.9751C 14.253 33.117 14.2677 33.2601 14.3099 33.3963C 14.3521 33.5325 14.4208 33.659 14.5121 33.7688C 14.6035 33.8786 14.7156 33.9696 14.8423 34.0363C 14.9689 34.103 15.1074 34.1441 15.25 34.1575C 15.3927 34.1708 15.5365 34.1561 15.6734 34.1141C 15.8103 34.0721 15.9375 34.0036 16.0479 33.9127C 16.0479 33.9127 16.597 33.4546 17.2475 32.8544C 17.8979 32.2541 18.6434 31.5404 19.1405 30.8098C 19.8893 29.7094 20.5129 28.4364 20.757 27.038C 21.0961 25.0874 20.9256 23.0628 20.3911 21.1962C 19.7858 19.0815 18.5452 17.3347 17.4602 15.7184C 15.8934 13.385 12.4065 9.55912 12.4065 9.55912C 12.309 9.45081 12.1906 9.36323 12.0583 9.30142C 11.926 9.23961 11.7826 9.20506 11.6366 9.19956L 11.6366 9.19506Z"/>
<path id="path1_fill" fill-rule="evenodd" d="M 14.593 0.114836C 11.7912 -0.417694 9.18943 1.01171 7.1231 2.14677C 5.19413 3.20642 3.33817 4.68191 2.10772 6.6382C 0.730044 8.82858 0.183478 11.4153 0.019048 13.8474C -0.0778799 15.2895 0.212131 17.1083 0.503995 18.6478C 0.795859 20.1873 1.10805 21.4163 1.10805 21.4163L 3.218 20.8872C 3.218 20.8872 2.92216 19.7143 2.64372 18.2456C 2.36527 16.7768 2.12638 14.9796 2.1928 13.9913C 2.342 11.7844 2.85303 9.54003 3.95392 7.78964C 4.9176 6.25772 6.48675 4.97241 8.17807 4.04325C 10.2016 2.93159 12.3978 1.90472 14.1846 2.24414C 15.7957 2.55039 17.4134 4.02496 18.4896 5.618C 19.6103 7.27693 20.1332 9.50617 20.1358 11.6207C 20.1375 13.0321 19.1886 14.6315 18.7193 16.6455C 18.4312 17.8822 18.0301 20.2014 18.0301 20.2014L 20.1784 20.5697C 20.1784 20.5697 20.5916 18.2071 20.842 17.1323L 20.8376 17.1323C 21.1947 15.6 22.3164 13.8496 22.3137 11.6207C 22.3107 9.16502 21.7388 6.54089 20.2974 4.40731C 19.0248 2.52362 17.117 0.594482 14.593 0.114836Z"/>
<path id="path2_fill" fill-rule="evenodd" d="M 1.76316 29.7302C 1.76316 29.7302 0.493169 36.7917 0.593334 40.6731C 0.64786 42.8205 0.367727 45.5355 1.82272 47.8314L 1.81847 47.8314C 3.19547 50.0049 5.54768 51.6921 8.13129 52.1535C 10.5717 52.5892 13.0774 51.7444 14.9971 50.4518C 17.1835 48.9799 18.7513 46.663 19.5616 44.2459C 20.4101 41.7144 19.7907 39.1842 19.7105 37.0621C 19.6253 34.7723 19.1277 30.4671 19.1277 30.4671L 16.9624 30.7126C 16.9624 30.7126 17.4602 35.0756 17.5367 37.1428C 17.627 39.5513 18.087 41.7917 17.4942 43.5601C 16.8221 45.5654 15.4745 47.5122 13.7805 48.6529C 12.2455 49.6863 10.1835 50.3176 8.5184 50.0203C 6.65191 49.6871 4.69917 48.3085 3.66468 46.6758C 2.72778 45.1974 2.83009 42.9314 2.77135 40.6183C 2.68595 37.3091 3.91141 30.103 3.91141 30.103L 1.76316 29.7302Z"/>
<path id="path3_fill" fill-rule="evenodd" d="M 11.5047 6.78642C 11.2158 6.78532 10.9384 6.89827 10.7334 7.10073C 10.5284 7.30319 10.4125 7.57846 10.4114 7.86588L 10.3646 10.355C 10.3618 10.4973 10.3871 10.6386 10.4392 10.7712C 10.4913 10.9038 10.5691 11.0249 10.6682 11.1276C 10.7673 11.2302 10.8857 11.3126 11.0168 11.3697C 11.1478 11.4267 11.2888 11.4576 11.4319 11.4604C 11.5749 11.4633 11.717 11.4379 11.8503 11.3861C 11.9835 11.3342 12.1051 11.2569 12.2083 11.1583C 12.3114 11.0596 12.394 10.9418 12.4514 10.8114C 12.5088 10.681 12.5398 10.5407 12.5426 10.3984L 12.5894 7.90504C 12.594 7.76025 12.5693 7.61581 12.5169 7.48066C 12.4645 7.34552 12.3854 7.2224 12.2843 7.1182C 12.1831 7.01399 12.062 6.93083 11.9281 6.87399C 11.7942 6.81716 11.6503 6.78693 11.5047 6.78642Z"/>
<path id="path4_fill" fill-rule="evenodd" d="M 38.734 9.19498C 38.5851 9.19821 38.4384 9.23179 38.3031 9.29367C 38.1677 9.35556 38.0465 9.44447 37.9471 9.55481C 37.9471 9.55481 34.4602 13.3807 32.8934 15.7141C 31.8083 17.3303 30.5678 19.0772 29.9625 21.1919C 29.428 23.0585 29.2575 25.083 29.5966 27.0337C 29.8407 28.4321 30.4643 29.7048 31.2131 30.8052C 31.7101 31.5359 32.4557 32.2498 33.1061 32.8501C 33.7566 33.4503 34.3057 33.9084 34.3057 33.9084C 34.416 33.9993 34.5433 34.0678 34.6802 34.1098C 34.8171 34.1517 34.9609 34.1663 35.1035 34.1529C 35.2461 34.1395 35.3847 34.0984 35.5113 34.0317C 35.6379 33.9651 35.7501 33.8743 35.8415 33.7645C 35.9328 33.6547 36.0015 33.5279 36.0437 33.3917C 36.0858 33.2555 36.1006 33.1124 36.0872 32.9705C 36.0737 32.8286 36.0323 32.6906 35.9654 32.5647C 35.8984 32.4387 35.8071 32.3272 35.6967 32.2363C 35.6967 32.2363 35.189 31.8186 34.5865 31.2627C 33.9839 30.7065 33.2829 29.9818 33.0168 29.5906C 32.3956 28.6774 31.9189 27.6584 31.7448 26.6609C 31.4702 25.0811 31.6032 23.3595 32.0554 21.7803C 32.5277 20.1303 33.6057 18.5505 34.7056 16.9121C 35.8354 15.2296 38.0175 12.8103 38.8191 11.9085C 39.7069 12.7873 42.4331 15.4648 43.9876 17.2973C 45.2369 18.7699 46.5126 20.0898 47.2036 21.5602C 47.801 22.8314 48.2062 24.2079 48.1607 25.4672C 48.1211 26.5567 47.6185 27.7495 47.0207 28.9513C 46.3501 30.2995 43.9791 33.2481 43.9791 33.2481C 43.8883 33.3581 43.8202 33.4848 43.7787 33.6211C 43.7372 33.7574 43.723 33.9003 43.737 34.042C 43.751 34.1838 43.793 34.3215 43.8604 34.4471C 43.9279 34.5727 44.0195 34.6838 44.1302 34.7741C 44.2408 34.8645 44.3682 34.932 44.5051 34.9734C 44.642 35.0147 44.7858 35.0289 44.9282 35.0149C 45.0706 35.0009 45.2089 34.9593 45.3351 34.8921C 45.4612 34.825 45.5729 34.7337 45.6637 34.6236C 45.6637 34.6236 48.009 31.8505 48.9732 29.912C 49.5999 28.6521 50.2743 27.1991 50.3345 25.5436C 50.398 23.7846 49.8659 22.1065 49.1774 20.6416C 48.2754 18.7221 46.8275 17.2871 45.6509 15.9004C 43.6768 13.573 39.521 9.50401 39.521 9.50401C 39.4175 9.40211 39.2946 9.3218 39.1594 9.26801C 39.0242 9.21421 38.8796 9.18796 38.734 9.19075L 38.734 9.19498Z"/>
<path id="path5_fill" fill-rule="evenodd" d="M 35.7605 0.114836C 33.2364 0.594482 31.3285 2.52362 30.0559 4.40731C 28.6145 6.54089 28.0426 9.16502 28.0396 11.6207C 28.037 13.8496 29.1586 15.6 29.5157 17.1323L 29.5113 17.1323C 29.7617 18.2071 30.175 20.5697 30.175 20.5697L 32.3232 20.2014C 32.3232 20.2014 31.9221 17.8822 31.6341 16.6455C 31.1648 14.6315 30.2158 13.0321 30.2175 11.6207C 30.2201 9.50617 30.743 7.27693 31.8638 5.618C 32.94 4.02496 34.5576 2.55039 36.1687 2.24414C 37.9555 1.90472 40.1517 2.93159 42.1753 4.04325C 43.8666 4.97241 45.4357 6.25772 46.3994 7.78964C 47.5003 9.54003 48.0113 11.7844 48.1605 13.9913C 48.227 14.9796 47.9881 16.7768 47.7096 18.2456C 47.4312 19.7143 47.1353 20.8872 47.1353 20.8872L 49.2453 21.4163C 49.2453 21.4163 49.5575 20.1873 49.8493 18.6478C 50.1412 17.1083 50.4312 15.2895 50.3343 13.8474C 50.1698 11.4153 49.6233 8.82858 48.2456 6.6382C 47.0152 4.68191 45.1592 3.20642 43.2302 2.14677C 41.1639 1.01171 38.5623 -0.417694 35.7605 0.114836Z"/>
<path id="path6_fill" fill-rule="evenodd" d="M 48.5904 29.7302L 46.4421 30.1028C 46.4421 30.1028 47.6676 37.3089 47.5822 40.618C 47.5234 42.9311 47.6258 45.1974 46.6889 46.6758C 45.6544 48.3085 43.7016 49.6869 41.8351 50.02C 40.17 50.3174 38.108 49.6861 36.573 48.6527C 34.879 47.512 33.5315 45.5654 32.8594 43.5601C 32.2666 41.7917 32.7265 39.551 32.8168 37.1426C 32.8933 35.0753 33.3911 30.7123 33.3911 30.7123L 31.2259 30.4668C 31.2259 30.4668 30.7278 34.7774 30.6431 37.0664C 30.5629 39.1885 29.9434 41.7186 30.792 44.2501C 31.6022 46.6672 33.1701 48.9839 35.3564 50.4557C 37.2762 51.7484 39.7818 52.5934 42.2222 52.1578C 44.8059 51.6963 47.1581 50.0089 48.5351 47.8354L 48.5307 47.8354C 49.9857 45.5395 49.7056 42.8245 49.7601 40.677C 49.8603 36.7957 48.5903 29.7345 48.5903 29.7345L 48.5904 29.7302Z"/>
<path id="path7_fill" fill-rule="evenodd" d="M 38.8148 6.78636C 38.5267 6.79632 38.2542 6.91946 38.0573 7.12898C 37.8603 7.3385 37.7549 7.61716 37.7641 7.90392L 37.8109 10.3973C 37.8166 10.6847 37.9369 10.9582 38.1452 11.1574C 38.3535 11.3566 38.6328 11.465 38.9216 11.4593C 39.2105 11.4535 39.4852 11.334 39.6853 11.1267C 39.8854 10.9194 39.9946 10.6413 39.9889 10.3539L 39.9421 7.86503C 39.9416 7.7198 39.9118 7.57604 39.8544 7.4425C 39.7971 7.30896 39.7133 7.18841 39.6082 7.08771C 39.503 6.987 39.3786 6.90839 39.2423 6.85647C 39.106 6.80455 38.9606 6.78126 38.8148 6.78636Z"/>
<path id="path8_fill" fill-rule="evenodd" d="M 5.60873 35.1192C 5.48633 35.1248 5.36943 35.1715 5.27692 35.2515L 1.42712 38.5065C 1.31712 38.5997 1.24882 38.7326 1.23725 38.8759C 1.22568 39.0192 1.27178 39.1611 1.36542 39.2706C 1.45906 39.3801 1.59256 39.4483 1.73656 39.4598C 1.88056 39.4713 2.02326 39.4254 2.13327 39.3323L 5.98307 36.0767C 6.07035 36.0039 6.13251 35.9057 6.16079 35.796C 6.18907 35.6862 6.18206 35.5703 6.14074 35.4647C 6.09942 35.3591 6.02587 35.2691 5.93044 35.2073C 5.835 35.1454 5.72249 35.1141 5.60873 35.1192Z"/>
<path id="path9_fill" fill-rule="evenodd" d="M 6.38294 36.842C 6.24138 36.8464 6.1071 36.9053 6.00859 37.0066L 1.19741 41.8917C 1.14592 41.9423 1.10507 42.0026 1.07723 42.069C 1.0494 42.1354 1.03514 42.2068 1.0353 42.2788C 1.03545 42.3508 1.05002 42.422 1.07814 42.4883C 1.10626 42.5547 1.14737 42.6147 1.19908 42.6651C 1.25079 42.7154 1.31205 42.755 1.3793 42.7815C 1.44654 42.808 1.51842 42.8208 1.59073 42.8193C 1.66305 42.8179 1.73435 42.8022 1.80048 42.773C 1.8666 42.7439 1.92623 42.7018 1.97588 42.6495L 6.78706 37.7644C 6.8637 37.6873 6.91535 37.5891 6.93536 37.4826C 6.95536 37.376 6.94279 37.266 6.89928 37.1667C 6.85576 37.0673 6.7833 36.9833 6.69126 36.9254C 6.59921 36.8674 6.49181 36.8386 6.38294 36.842Z"/>
<path id="path10_fill" fill-rule="evenodd" d="M 7.12737 39.1406C 6.98779 39.1528 6.85829 39.2179 6.76578 39.3227L 1.75892 44.8809C 1.66248 44.9881 1.61279 45.129 1.62078 45.2727C 1.62877 45.4164 1.69377 45.5511 1.8015 45.6471C 1.90924 45.7431 2.05087 45.7923 2.19525 45.7844C 2.33963 45.7765 2.47494 45.7119 2.57142 45.6047L 7.57403 40.0465C 7.64789 39.9662 7.69569 39.8654 7.71121 39.7576C 7.72673 39.6498 7.70924 39.5398 7.66102 39.442C 7.6128 39.3442 7.53609 39.2632 7.4409 39.2094C 7.34571 39.1557 7.23645 39.1317 7.12737 39.1406Z"/>
<path id="path11_fill" fill-rule="evenodd" d="M 7.89301 41.4393C 7.75215 41.4537 7.62245 41.5221 7.53143 41.6301L 2.81383 46.9936C 2.76425 47.0468 2.72592 47.1092 2.70112 47.1774C 2.67632 47.2457 2.66555 47.3182 2.66945 47.3907C 2.67335 47.4632 2.69184 47.5342 2.72383 47.5994C 2.75581 47.6647 2.80064 47.723 2.85564 47.7706C 2.91065 47.8183 2.97472 47.8544 3.04405 47.877C 3.11337 47.8995 3.18654 47.908 3.25922 47.9018C 3.33189 47.8957 3.40259 47.8751 3.46711 47.8413C 3.53164 47.8074 3.58867 47.7609 3.63483 47.7047L 8.34818 42.341C 8.42131 42.2599 8.46819 42.159 8.48271 42.051C 8.49723 41.9431 8.47871 41.8333 8.42957 41.7359C 8.38043 41.6386 8.30295 41.5581 8.20723 41.5052C 8.11152 41.4523 8.00202 41.4293 7.89301 41.4393Z"/>
<path id="path12_fill" fill-rule="evenodd" d="M 8.77365 42.9718C 8.69422 42.9769 8.61688 42.9992 8.54706 43.0372C 8.47724 43.0752 8.41664 43.1281 8.36952 43.192L 4.3283 48.5554C 4.28528 48.6124 4.25396 48.6772 4.23613 48.7462C 4.2183 48.8152 4.21431 48.887 4.22438 48.9576C 4.23445 49.0282 4.25839 49.096 4.29483 49.1573C 4.33127 49.2187 4.37949 49.2725 4.43675 49.3153C 4.49401 49.3581 4.55918 49.3891 4.62855 49.4068C 4.69791 49.4246 4.77011 49.4288 4.84101 49.4188C 4.91192 49.4087 4.98015 49.3849 5.0418 49.3486C 5.10346 49.3124 5.15733 49.2643 5.20035 49.2074L 9.24158 43.8439C 9.30573 43.7612 9.34452 43.6619 9.35329 43.5579C 9.36205 43.4538 9.34042 43.3494 9.29099 43.2573C 9.24155 43.1652 9.16643 43.0891 9.07465 43.0385C 8.98287 42.9879 8.87834 42.9647 8.77365 42.9718Z"/>
<path id="path13_fill" fill-rule="evenodd" d="M 9.82856 45.173C 9.74952 45.1791 9.67278 45.2025 9.60371 45.2412C 9.53465 45.28 9.47492 45.3332 9.42869 45.3973L 6.15317 49.8041C 6.10996 49.8613 6.07855 49.9266 6.06078 49.9959C 6.04301 50.0653 6.03922 50.1373 6.04962 50.2081C 6.06003 50.2789 6.08443 50.347 6.12142 50.4084C 6.1584 50.4698 6.20724 50.5233 6.26511 50.5658C 6.32298 50.6083 6.38874 50.639 6.45858 50.656C 6.52843 50.6731 6.60098 50.6763 6.67205 50.6653C 6.74311 50.6543 6.81129 50.6294 6.87264 50.592C 6.93399 50.5547 6.9873 50.5055 7.02948 50.4476L 10.3007 46.0408C 10.3639 45.9578 10.4017 45.8586 10.4097 45.7548C 10.4176 45.651 10.3954 45.5471 10.3456 45.4555C 10.2958 45.364 10.2205 45.2887 10.1288 45.2386C 10.0372 45.1885 9.93291 45.1657 9.82856 45.173Z"/>
<path id="path14_fill" fill-rule="evenodd" d="M 10.7942 47.2811C 10.6964 47.2874 10.6021 47.3196 10.5212 47.3748C 10.4403 47.4299 10.3759 47.5058 10.3348 47.5944L 9.08415 50.1809C 9.02156 50.3105 9.0133 50.4594 9.06117 50.5952C 9.10904 50.7309 9.20913 50.8422 9.33942 50.9045C 9.46972 50.9668 9.61954 50.9751 9.75595 50.9275C 9.89236 50.8799 10.0042 50.7804 10.0668 50.6507L 11.3175 48.0643C 11.3604 47.9789 11.3799 47.8838 11.3741 47.7886C 11.3682 47.6933 11.3371 47.6011 11.284 47.5216C 11.2309 47.4421 11.1577 47.3781 11.0716 47.3359C 10.9856 47.2936 10.8899 47.2747 10.7942 47.2811Z"/>
<path id="path15_fill" fill-rule="evenodd" d="M 7.11034 5.56704C 6.96879 5.57142 6.83451 5.63035 6.736 5.73161L 1.22292 11.1501C 1.17065 11.1998 1.12885 11.2593 1.09995 11.3253C 1.07106 11.3912 1.05565 11.4623 1.05463 11.5343C 1.05361 11.6062 1.06699 11.6776 1.094 11.7443C 1.121 11.8111 1.1611 11.8718 1.21193 11.9229C 1.26277 11.9741 1.32333 12.0146 1.39009 12.0423C 1.45685 12.0699 1.52847 12.084 1.60077 12.0838C 1.67307 12.0836 1.7446 12.0692 1.81119 12.0412C 1.87778 12.0132 1.9381 11.972 1.98862 11.9206L 7.49745 6.50205C 7.57752 6.42678 7.63276 6.32929 7.6559 6.22213C 7.67903 6.11497 7.66897 6.00335 7.62704 5.902C 7.58511 5.80064 7.51328 5.71424 7.42103 5.65435C 7.32878 5.59447 7.22045 5.5644 7.11034 5.56704Z"/>
<path id="path16_fill" fill-rule="evenodd" d="M 7.07203 8.27652C 6.99308 8.27397 6.91452 8.28842 6.8418 8.31911C 6.76907 8.3498 6.70393 8.3958 6.65089 8.45405L 0.933621 14.5499C 0.884731 14.6018 0.846607 14.6629 0.821429 14.7295C 0.79625 14.7961 0.784509 14.8671 0.786875 14.9383C 0.789241 15.0094 0.805668 15.0795 0.835219 15.1444C 0.864769 15.2092 0.906865 15.2677 0.9591 15.3163C 1.01134 15.365 1.07269 15.4027 1.13966 15.4277C 1.20662 15.4528 1.27789 15.4645 1.3494 15.4621C 1.4209 15.4598 1.49123 15.4434 1.55638 15.414C 1.62154 15.3846 1.68023 15.3427 1.7291 15.2907L 7.44637 9.19486C 7.51976 9.11942 7.56954 9.02462 7.58966 8.92155C 7.60979 8.81849 7.59939 8.71168 7.55974 8.61438C 7.52008 8.51708 7.45288 8.43335 7.3663 8.37335C 7.27972 8.31335 7.17748 8.27978 7.07203 8.27652Z"/>
<path id="path17_fill" fill-rule="evenodd" d="M 7.05504 11.3244C 6.91324 11.3254 6.77741 11.3814 6.67644 11.4805L 1.70786 16.1537C 1.64996 16.2007 1.6024 16.2593 1.56815 16.3254C 1.5339 16.3915 1.5137 16.4639 1.50879 16.5381C 1.50388 16.6124 1.51438 16.6867 1.53963 16.7567C 1.56488 16.8267 1.60434 16.8909 1.65555 16.9451C 1.70677 16.9992 1.76864 17.0422 1.83732 17.0715C 1.90599 17.1009 1.98001 17.1158 2.05475 17.1154C 2.12948 17.1151 2.20335 17.0997 2.27175 17.0697C 2.34014 17.0397 2.4016 16.996 2.4523 16.9414L 7.42088 12.2676C 7.50255 12.1942 7.55993 12.0977 7.58544 11.9911C 7.61095 11.8846 7.6034 11.773 7.56378 11.6707C 7.52416 11.5685 7.45433 11.4805 7.36351 11.4186C 7.27269 11.3567 7.16514 11.3243 7.05504 11.3244Z"/>
<path id="path18_fill" fill-rule="evenodd" d="M 35.4202 35.1192C 35.2978 35.1248 35.1809 35.1715 35.0884 35.2515L 31.2386 38.5065C 31.1286 38.5997 31.0603 38.7326 31.0487 38.8759C 31.0372 39.0192 31.0833 39.1611 31.1769 39.2706C 31.2705 39.3801 31.404 39.4483 31.548 39.4598C 31.6921 39.4713 31.8348 39.4255 31.9448 39.3323L 35.7946 36.0767C 35.8819 36.0039 35.944 35.9057 35.9723 35.796C 36.0006 35.6862 35.9936 35.5703 35.9522 35.4647C 35.9109 35.3591 35.8374 35.2691 35.7419 35.2073C 35.6465 35.1454 35.534 35.1141 35.4202 35.1192Z"/>
<path id="path19_fill" fill-rule="evenodd" d="M 36.1944 36.842C 36.0529 36.8464 35.9186 36.9053 35.8201 37.0066L 31.0089 41.8917C 30.9574 41.9423 30.9165 42.0026 30.8887 42.069C 30.8609 42.1354 30.8466 42.2068 30.8468 42.2788C 30.8469 42.3508 30.8615 42.422 30.8896 42.4883C 30.9177 42.5547 30.9588 42.6147 31.0106 42.6651C 31.0623 42.7154 31.1235 42.755 31.1908 42.7815C 31.258 42.808 31.3299 42.8208 31.4022 42.8193C 31.4745 42.8179 31.5458 42.8022 31.6119 42.773C 31.6781 42.7439 31.7377 42.7018 31.7873 42.6495L 36.5985 37.7644C 36.6752 37.6873 36.7268 37.5891 36.7468 37.4826C 36.7668 37.376 36.7543 37.266 36.7108 37.1667C 36.6672 37.0673 36.5948 36.9833 36.5027 36.9254C 36.4107 36.8674 36.3033 36.8386 36.1944 36.842Z"/>
<path id="path20_fill" fill-rule="evenodd" d="M 36.9388 39.1406C 36.7992 39.1528 36.6697 39.2179 36.5772 39.3227L 31.5703 44.8809C 31.5226 44.9339 31.4858 44.9959 31.4621 45.0631C 31.4383 45.1304 31.4282 45.2015 31.4321 45.2727C 31.4401 45.4164 31.5051 45.5511 31.6128 45.6471C 31.7206 45.7431 31.8622 45.7926 32.0066 45.7846C 32.151 45.7767 32.2864 45.712 32.3828 45.6047L 37.3854 40.0465C 37.4593 39.9662 37.5071 39.8654 37.5226 39.7576C 37.5381 39.6498 37.5206 39.5398 37.4724 39.442C 37.4242 39.3442 37.3475 39.2632 37.2523 39.2094C 37.1571 39.1557 37.0479 39.1317 36.9388 39.1406Z"/>
<path id="path21_fill" fill-rule="evenodd" d="M 37.7045 41.4393C 37.5636 41.4537 37.4339 41.5221 37.3429 41.6301L 32.6253 46.9936C 32.5757 47.0468 32.5374 47.1092 32.5126 47.1774C 32.4878 47.2457 32.477 47.3182 32.4809 47.3907C 32.4848 47.4632 32.5033 47.5342 32.5353 47.5994C 32.5673 47.6647 32.6121 47.723 32.6671 47.7706C 32.7221 47.8183 32.7862 47.8544 32.8555 47.877C 32.9249 47.8995 32.998 47.908 33.0707 47.9018C 33.1434 47.8957 33.2141 47.8751 33.2786 47.8413C 33.3431 47.8074 33.4002 47.7609 33.4463 47.7047L 38.1597 42.341C 38.2328 42.2599 38.2797 42.159 38.2942 42.051C 38.3087 41.9431 38.2902 41.8333 38.2411 41.7359C 38.1919 41.6386 38.1144 41.5581 38.0187 41.5052C 37.923 41.4523 37.8135 41.4293 37.7045 41.4393Z"/>
<path id="path22_fill" fill-rule="evenodd" d="M 38.5851 42.9718C 38.5057 42.9769 38.4284 42.9992 38.3585 43.0372C 38.2887 43.0752 38.2281 43.1281 38.181 43.192L 34.1398 48.5554C 34.0968 48.6124 34.0654 48.6772 34.0476 48.7462C 34.0298 48.8152 34.0258 48.887 34.0359 48.9576C 34.0459 49.0282 34.0699 49.096 34.1063 49.1573C 34.1427 49.2187 34.191 49.2725 34.2482 49.3153C 34.3055 49.3581 34.3707 49.3891 34.44 49.4068C 34.5094 49.4246 34.5816 49.4288 34.6525 49.4188C 34.7234 49.4087 34.7916 49.3849 34.8533 49.3486C 34.9149 49.3124 34.9688 49.2643 35.0118 49.2074L 39.0531 43.8439C 39.1172 43.7612 39.156 43.6619 39.1648 43.5579C 39.1735 43.4538 39.1519 43.3494 39.1025 43.2573C 39.053 43.1652 38.9779 43.0891 38.8861 43.0385C 38.7943 42.9879 38.6898 42.9647 38.5851 42.9718Z"/>
<path id="path23_fill" fill-rule="evenodd" d="M 39.64 45.173C 39.561 45.1791 39.4842 45.2025 39.4152 45.2412C 39.3461 45.28 39.2864 45.3332 39.2402 45.3973L 35.9646 49.8041C 35.9214 49.8613 35.89 49.9266 35.8723 49.9959C 35.8545 50.0653 35.8507 50.1373 35.8611 50.2081C 35.8715 50.2789 35.8959 50.347 35.9329 50.4084C 35.9699 50.4698 36.0187 50.5233 36.0766 50.5658C 36.1345 50.6083 36.2002 50.639 36.2701 50.656C 36.3399 50.6731 36.4124 50.6763 36.4835 50.6653C 36.5546 50.6543 36.6228 50.6294 36.6841 50.592C 36.7455 50.5547 36.7988 50.5055 36.8409 50.4476L 40.1122 46.0408C 40.1754 45.9578 40.2132 45.8586 40.2211 45.7548C 40.2291 45.651 40.2068 45.5471 40.157 45.4555C 40.1072 45.364 40.032 45.2887 39.9403 45.2386C 39.8486 45.1885 39.7444 45.1657 39.64 45.173Z"/>
<path id="path24_fill" fill-rule="evenodd" d="M 40.6057 47.2811C 40.5079 47.2874 40.4136 47.3196 40.3327 47.3748C 40.2519 47.4299 40.1875 47.5058 40.1463 47.5944L 38.8957 50.1809C 38.8647 50.2451 38.8467 50.3148 38.8427 50.3859C 38.8388 50.457 38.8489 50.5282 38.8726 50.5954C 38.9205 50.7312 39.0206 50.8424 39.1509 50.9047C 39.2812 50.967 39.4311 50.9751 39.5675 50.9275C 39.7039 50.8799 39.8157 50.7804 39.8783 50.6507L 41.129 48.0643C 41.1719 47.9789 41.1914 47.8838 41.1856 47.7886C 41.1797 47.6933 41.1486 47.6011 41.0955 47.5216C 41.0424 47.4421 40.9692 47.3781 40.8832 47.3359C 40.7972 47.2936 40.7015 47.2747 40.6057 47.2811Z"/>
</defs>
</svg>
