<svg width="9888" height="8953" viewBox="0 0 9888 8953" fill="none" xmlns="http://www.w3.org/2000/svg">
<path d="M8040.74 3602C7514.35 3208.49 6689.88 2836.34 5778.75 2580.97C4949.16 2348.46 4140.01 2236.2 3500.17 2264.87L3496.84 2190.46C4144.3 2161.47 4961.85 2274.67 5798.86 2509.26C6718.48 2767 7551.88 3143.55 8085.35 3542.35L8040.74 3602Z" fill="#3F3D56"/>
<path d="M7986.1 3905.1C7986.57 4253.74 7913.47 4598.56 7771.59 4917.04C7759.75 4943.7 7747.41 4970.11 7734.57 4996.28C7487.8 5501.7 7077.05 5908.6 6569.31 6150.6C6061.57 6392.6 5486.81 6455.43 4938.78 6328.84C4390.75 6202.24 3901.78 5893.7 3551.63 5453.53C3201.49 5013.36 3010.82 4467.54 3010.74 3905.1C3010.74 3847.53 3012.7 3790.4 3016.63 3733.73C3018.49 3704.9 3020.9 3676.26 3023.85 3647.78C3089.82 3013.75 3396.68 2429.24 3881.09 2014.86C4365.5 1600.48 4990.51 1387.86 5627.13 1420.87C6263.76 1453.88 6863.42 1730.01 7302.37 2192.27C7741.32 2654.53 7986.06 3267.65 7986.1 3905.1H7986.1Z" fill="#F2F2F2"/>
<path opacity="0.1" d="M7771.59 4917.04C7759.75 4943.7 7747.41 4970.11 7734.58 4996.28C7661.88 5004.17 7585.36 5009.91 7505.02 5013.48C7438.51 5016.46 7370.06 5017.95 7300.12 5017.95C6689.23 5017.95 5954.02 4905.19 5202.95 4694.72C4365.93 4460.11 3608.68 4131.96 3070.63 3770.67C3052.3 3758.38 3034.3 3746.07 3016.63 3733.73C3018.49 3704.9 3020.9 3676.26 3023.85 3647.78C3052.38 3668.11 3081.8 3688.47 3112.11 3708.85C3643.83 4065.83 4393.49 4390.48 5223.06 4623C5967.58 4831.69 6695.86 4943.48 7299.75 4943.48C7368.8 4943.48 7436.1 4942.01 7501.67 4939.08C7597.16 4934.76 7687.13 4927.41 7771.59 4917.04Z" fill="black"/>
<path d="M7300.14 4958.38C6689.26 4958.4 5954.01 4845.63 5202.97 4635.13C4365.96 4400.54 3608.67 4072.38 3070.62 3711.09C2521.33 3342.27 2263.76 2978.85 2345.34 2687.77C2426.93 2396.7 2835.87 2220.08 3496.84 2190.46L3500.17 2264.87C3191.51 2278.69 2939.96 2324.57 2752.51 2401.22C2565.53 2477.67 2452.66 2580.85 2417.06 2707.88C2381.45 2834.9 2424.25 2981.7 2544.26 3144.2C2664.56 3307.1 2855.62 3477.02 3112.14 3649.26C3643.8 4006.25 4393.48 4330.91 5223.08 4563.42C5967.61 4772.09 6695.83 4883.91 7299.77 4883.92C7368.78 4883.92 7436.07 4882.46 7501.65 4879.52C7810.32 4865.69 8061.87 4819.82 8249.31 4743.17C8436.3 4666.71 8549.17 4563.54 8584.77 4436.52C8648.7 4208.43 8455.5 3912.06 8040.74 3602L8085.35 3542.35C8298.77 3701.9 8456.76 3859.18 8554.93 4009.79C8660.16 4171.27 8694.33 4321.6 8656.49 4456.62C8574.9 4747.69 8165.95 4924.3 7504.99 4953.93C7438.48 4956.91 7370.07 4958.38 7300.14 4958.38Z" fill="#3F3D56"/>
<path d="M5564.23 968.895C5579.98 968.895 5592.74 956.132 5592.74 940.389C5592.74 924.646 5579.98 911.884 5564.23 911.884C5548.49 911.884 5535.72 924.646 5535.72 940.389C5535.72 956.132 5548.49 968.895 5564.23 968.895Z" fill="#F2F2F2"/>
<path d="M1782.39 2205.83C1809.47 2205.83 1831.43 2183.87 1831.43 2156.79C1831.43 2129.7 1809.47 2107.75 1782.39 2107.75C1755.3 2107.75 1733.35 2129.7 1733.35 2156.79C1733.35 2183.87 1755.3 2205.83 1782.39 2205.83Z" fill="#CCCCCC"/>
<path d="M1677.87 4173.01C1731.37 4173.01 1774.74 4129.63 1774.74 4076.13C1774.74 4022.63 1731.37 3979.26 1677.87 3979.26C1624.36 3979.26 1580.99 4022.63 1580.99 4076.13C1580.99 4129.63 1624.36 4173.01 1677.87 4173.01Z" fill="#CCCCCC"/>
<path d="M7493.16 1175.98C7528.82 1175.98 7557.72 1147.08 7557.72 1111.42C7557.72 1075.76 7528.82 1046.86 7493.16 1046.86C7457.5 1046.86 7428.59 1075.76 7428.59 1111.42C7428.59 1147.08 7457.5 1175.98 7493.16 1175.98Z" fill="#CCCCCC"/>
<path d="M9783.17 3895.91C9841.06 3895.91 9888 3848.97 9888 3791.08C9888 3733.18 9841.06 3686.25 9783.17 3686.25C9725.27 3686.25 9678.33 3733.18 9678.33 3791.08C9678.33 3848.97 9725.27 3895.91 9783.17 3895.91Z" fill="#CCCCCC"/>
<path d="M8963.43 2161.78C8988.27 2161.78 9008.41 2141.64 9008.41 2116.81C9008.41 2091.97 8988.27 2071.83 8963.43 2071.83C8938.59 2071.83 8918.45 2091.97 8918.45 2116.81C8918.45 2141.64 8938.59 2161.78 8963.43 2161.78Z" fill="#CCCCCC"/>
<path d="M3502.27 1609.16C3541.02 1609.16 3572.44 1577.75 3572.44 1539C3572.44 1500.25 3541.02 1468.83 3502.27 1468.83C3463.52 1468.83 3432.1 1500.25 3432.1 1539C3432.1 1577.75 3463.52 1609.16 3502.27 1609.16Z" fill="#CCCCCC"/>
<path d="M8806 3623.5C8830.85 3623.5 8850.98 3603.36 8850.98 3578.52C8850.98 3553.68 8830.85 3533.54 8806 3533.54C8781.16 3533.54 8761.03 3553.68 8761.03 3578.52C8761.03 3603.36 8781.16 3623.5 8806 3623.5Z" fill="#CCCCCC"/>
<path d="M55.9809 3799.98C86.8983 3799.98 111.962 3774.92 111.962 3744.01C111.962 3713.09 86.8983 3688.03 55.9809 3688.03C25.0635 3688.03 0 3713.09 0 3744.01C0 3774.92 25.0635 3799.98 55.9809 3799.98Z" fill="#CCCCCC"/>
<path d="M906.439 2883.39C939.921 2883.39 967.063 2856.25 967.063 2822.77C967.063 2789.29 939.921 2762.15 906.439 2762.15C872.957 2762.15 845.815 2789.29 845.815 2822.77C845.815 2856.25 872.957 2883.39 906.439 2883.39Z" fill="#CCCCCC"/>
<path d="M4799.03 119.624H4679.4V0H4615.21V119.624H4495.53V183.864H4615.21V303.488H4679.4V183.864H4799.03V119.624Z" fill="#CCCCCC"/>
<path d="M7574.17 6592.75H7499.04V6517.66H7458.75V6592.75H7383.63V6633.06H7458.75V6708.17H7499.04V6633.06H7574.17V6592.75Z" fill="#CCCCCC"/>
<path d="M9308.03 6208.26H9251.88V6152.11H9221.72V6208.26H9165.57V6238.42H9221.72V6294.57H9251.88V6238.42H9308.03V6208.26Z" fill="#CCCCCC"/>
<path opacity="0.1" d="M3929.87 3696.06C4045.32 3696.06 4138.91 3602.47 4138.91 3487.03C4138.91 3371.58 4045.32 3277.99 3929.87 3277.99C3814.41 3277.99 3720.82 3371.58 3720.82 3487.03C3720.82 3602.47 3814.41 3696.06 3929.87 3696.06Z" fill="black"/>
<path opacity="0.1" d="M6238.88 5795.94C6354.33 5795.94 6447.93 5702.35 6447.93 5586.9C6447.93 5471.45 6354.33 5377.87 6238.88 5377.87C6123.43 5377.87 6029.83 5471.45 6029.83 5586.9C6029.83 5702.35 6123.43 5795.94 6238.88 5795.94Z" fill="black"/>
<path opacity="0.1" d="M5535.72 4019.12C5651.18 4019.12 5744.77 3925.53 5744.77 3810.08C5744.77 3694.64 5651.18 3601.05 5535.72 3601.05C5420.27 3601.05 5326.68 3694.64 5326.68 3810.08C5326.68 3925.53 5420.27 4019.12 5535.72 4019.12Z" fill="black"/>
<path opacity="0.1" d="M4034.39 5168.83C4149.84 5168.83 4243.44 5075.24 4243.44 4959.79C4243.44 4844.34 4149.84 4750.75 4034.39 4750.75C3918.94 4750.75 3825.34 4844.34 3825.34 4959.79C3825.34 5075.24 3918.94 5168.83 4034.39 5168.83Z" fill="black"/>
<path opacity="0.1" d="M6656.97 2897.92C6772.43 2897.92 6866.02 2804.33 6866.02 2688.88C6866.02 2573.43 6772.43 2479.84 6656.97 2479.84C6541.52 2479.84 6447.93 2573.43 6447.93 2688.88C6447.93 2804.33 6541.52 2897.92 6656.97 2897.92Z" fill="black"/>
<path opacity="0.1" d="M7350.63 4313.67C7466.08 4313.67 7559.67 4220.08 7559.67 4104.64C7559.67 3989.19 7466.08 3895.6 7350.63 3895.6C7235.17 3895.6 7141.58 3989.19 7141.58 4104.64C7141.58 4220.08 7235.17 4313.67 7350.63 4313.67Z" fill="black"/>
<path d="M6656.97 2090.27C6809.16 2090.27 6932.53 1966.91 6932.53 1814.73C6932.53 1662.54 6809.16 1539.18 6656.97 1539.18C6504.79 1539.18 6381.41 1662.54 6381.41 1814.73C6381.41 1966.91 6504.79 2090.27 6656.97 2090.27Z" fill="white"/>
<path d="M6656.97 1415.65C6553.65 1415.65 6454.55 1456.7 6381.49 1529.76C6308.43 1602.82 6267.38 1701.9 6267.38 1805.22C6267.38 2020.38 6656.97 2726.89 6656.97 2726.89C6656.97 2726.89 7046.56 2020.38 7046.56 1805.22C7046.56 1701.9 7005.51 1602.82 6932.45 1529.76C6859.39 1456.7 6760.3 1415.65 6656.97 1415.65ZM6656.97 1995.26C6621.26 1995.26 6586.36 1984.67 6556.67 1964.83C6526.98 1945 6503.84 1916.8 6490.17 1883.81C6476.51 1850.82 6472.93 1814.52 6479.9 1779.5C6486.87 1744.48 6504.06 1712.32 6529.31 1687.07C6554.56 1661.82 6586.73 1644.63 6621.75 1637.66C6656.77 1630.7 6693.07 1634.27 6726.06 1647.93C6759.05 1661.6 6787.25 1684.74 6807.08 1714.43C6826.92 1744.12 6837.51 1779.02 6837.51 1814.73C6837.51 1838.43 6832.84 1861.91 6823.77 1883.81C6814.7 1905.72 6801.4 1925.62 6784.63 1942.38C6767.87 1959.15 6747.96 1972.44 6726.06 1981.52C6704.16 1990.59 6680.68 1995.26 6656.97 1995.26Z" fill="#6C63FF"/>
<path d="M3928.79 2837.69C4080.98 2837.69 4204.35 2714.32 4204.35 2562.14C4204.35 2409.96 4080.98 2286.59 3928.79 2286.59C3776.6 2286.59 3653.23 2409.96 3653.23 2562.14C3653.23 2714.32 3776.6 2837.69 3928.79 2837.69Z" fill="white"/>
<path d="M3928.78 2163.07C3825.46 2163.07 3726.37 2204.11 3653.31 2277.17C3580.24 2350.23 3539.2 2449.32 3539.2 2552.64C3539.2 2767.79 3928.78 3474.3 3928.78 3474.3C3928.78 3474.3 4318.37 2767.79 4318.37 2552.64C4318.37 2449.32 4277.32 2350.23 4204.26 2277.17C4131.2 2204.11 4032.11 2163.07 3928.78 2163.07V2163.07ZM3928.78 2742.67C3893.08 2742.67 3858.17 2732.09 3828.48 2712.25C3798.79 2692.41 3775.65 2664.22 3761.99 2631.23C3748.32 2598.24 3744.75 2561.94 3751.71 2526.92C3758.68 2491.9 3775.87 2459.73 3801.12 2434.49C3826.37 2409.24 3858.54 2392.04 3893.56 2385.08C3928.58 2378.11 3964.89 2381.69 3997.87 2395.35C4030.86 2409.02 4059.06 2432.15 4078.9 2461.84C4098.74 2491.53 4109.32 2526.44 4109.32 2562.14C4109.32 2585.85 4104.66 2609.33 4095.58 2631.23C4086.51 2653.13 4073.21 2673.03 4056.45 2689.8C4039.68 2706.56 4019.78 2719.86 3997.87 2728.93C3975.97 2738.01 3952.49 2742.67 3928.78 2742.67V2742.67Z" fill="#3F3D56"/>
<path d="M7385.74 3472.99C7537.92 3472.99 7661.3 3349.63 7661.3 3197.45C7661.3 3045.26 7537.92 2921.9 7385.74 2921.9C7233.55 2921.9 7110.17 3045.26 7110.17 3197.45C7110.17 3349.63 7233.55 3472.99 7385.74 3472.99Z" fill="white"/>
<path d="M7385.73 2798.37C7282.41 2798.37 7183.32 2839.42 7110.25 2912.48C7037.19 2985.54 6996.15 3084.62 6996.15 3187.94C6996.15 3403.1 7385.73 4109.61 7385.73 4109.61C7385.73 4109.61 7775.32 3403.1 7775.32 3187.94C7775.32 3084.62 7734.27 2985.54 7661.21 2912.48C7588.15 2839.42 7489.06 2798.37 7385.73 2798.37V2798.37ZM7385.73 3377.98C7350.03 3377.98 7315.12 3367.39 7285.43 3347.55C7255.74 3327.72 7232.6 3299.52 7218.94 3266.53C7205.27 3233.54 7201.7 3197.24 7208.66 3162.23C7215.63 3127.21 7232.82 3095.04 7258.07 3069.79C7283.32 3044.54 7315.49 3027.35 7350.51 3020.38C7385.53 3013.42 7421.83 3016.99 7454.82 3030.66C7487.81 3044.32 7516.01 3067.46 7535.85 3097.15C7555.69 3126.84 7566.27 3161.74 7566.27 3197.45C7566.27 3221.15 7561.6 3244.63 7552.53 3266.53C7543.46 3288.44 7530.16 3308.34 7513.39 3325.1C7496.63 3341.87 7476.73 3355.16 7454.82 3364.24C7432.92 3373.31 7409.44 3377.98 7385.73 3377.98Z" fill="#CCCCCC"/>
<path d="M2714.18 4855.71C2866.37 4855.71 2989.75 4732.35 2989.75 4580.17C2989.75 4427.98 2866.37 4304.62 2714.18 4304.62C2562 4304.62 2438.62 4427.98 2438.62 4580.17C2438.62 4732.35 2562 4855.71 2714.18 4855.71Z" fill="white"/>
<path d="M2714.18 4181.09C2610.86 4181.09 2511.76 4222.14 2438.7 4295.2C2365.64 4368.26 2324.59 4467.34 2324.59 4570.66C2324.59 4785.82 2714.18 5492.33 2714.18 5492.33C2714.18 5492.33 3103.77 4785.82 3103.77 4570.66C3103.77 4467.34 3062.72 4368.26 2989.66 4295.2C2916.6 4222.14 2817.5 4181.09 2714.18 4181.09ZM2714.18 4760.7C2678.47 4760.7 2643.57 4750.11 2613.88 4730.27C2584.19 4710.44 2561.05 4682.24 2547.38 4649.25C2533.72 4616.26 2530.14 4579.96 2537.11 4544.94C2544.07 4509.92 2561.27 4477.76 2586.52 4452.51C2611.77 4427.26 2643.94 4410.07 2678.96 4403.1C2713.98 4396.14 2750.28 4399.71 2783.27 4413.37C2816.26 4427.04 2844.46 4450.18 2864.29 4479.87C2884.13 4509.56 2894.72 4544.46 2894.72 4580.17C2894.72 4603.87 2890.05 4627.35 2880.98 4649.25C2871.91 4671.16 2858.61 4691.06 2841.84 4707.82C2825.08 4724.59 2805.17 4737.88 2783.27 4746.96C2761.37 4756.03 2737.89 4760.7 2714.18 4760.7V4760.7Z" fill="#6C63FF"/>
<path d="M9057.02 6792.71C9110.51 6747.92 9038.22 6573.49 8895.56 6403.11C8752.9 6232.72 8593.88 6130.91 8540.39 6175.69C8486.9 6220.47 8559.19 6394.9 8701.85 6565.29C8844.52 6735.67 9003.53 6837.49 9057.02 6792.71Z" fill="#2F2E41"/>
<path d="M7942.75 7149.2C8387.2 7149.2 8747.51 6788.91 8747.51 6344.47C8747.51 5900.03 8387.2 5539.74 7942.75 5539.74C7498.29 5539.74 7137.98 5900.03 7137.98 6344.47C7137.98 6788.91 7498.29 7149.2 7942.75 7149.2Z" fill="#2F2E41"/>
<path d="M8283.37 6976.03H8038.88V7414.05H8283.37V6976.03Z" fill="#2F2E41"/>
<path d="M7794.4 6976.03H7549.91V7414.05H7794.4V6976.03Z" fill="#2F2E41"/>
<path d="M8079.63 7495.54C8192.15 7495.54 8283.37 7461.33 8283.37 7419.14C8283.37 7376.95 8192.15 7342.74 8079.63 7342.74C7967.11 7342.74 7875.89 7376.95 7875.89 7419.14C7875.89 7461.33 7967.11 7495.54 8079.63 7495.54Z" fill="#2F2E41"/>
<path d="M7590.66 7485.35C7703.18 7485.35 7794.4 7451.15 7794.4 7408.95C7794.4 7366.76 7703.18 7332.55 7590.66 7332.55C7478.14 7332.55 7386.92 7366.76 7386.92 7408.95C7386.92 7451.15 7478.14 7485.35 7590.66 7485.35Z" fill="#2F2E41"/>
<path d="M7690.05 5332.9C7761.91 5043.52 8079.11 4873.23 8398.53 4952.54C8717.96 5031.85 8918.65 5330.74 8846.79 5620.12C8774.93 5909.5 8536.53 5910.43 8217.1 5831.12C7897.68 5751.81 7618.19 5622.28 7690.05 5332.9Z" fill="#A58411"/>
<path d="M7399.87 6143.49C7429.77 6080.46 7291.23 5952.17 7090.44 5856.94C6889.65 5761.71 6702.64 5735.61 6672.75 5798.64C6642.85 5861.67 6781.39 5989.97 6982.18 6085.2C7182.97 6180.42 7369.98 6206.53 7399.87 6143.49Z" fill="#2F2E41"/>
<path d="M7822.43 6442.96C7970.61 6442.96 8090.74 6322.84 8090.74 6174.67C8090.74 6026.49 7970.61 5906.37 7822.43 5906.37C7674.25 5906.37 7554.12 6026.49 7554.12 6174.67C7554.12 6322.84 7674.25 6442.96 7822.43 6442.96Z" fill="white"/>
<path d="M7712.16 6167.93C7761.55 6167.93 7801.59 6127.89 7801.59 6078.5C7801.59 6029.1 7761.55 5989.06 7712.16 5989.06C7662.76 5989.06 7622.72 6029.1 7622.72 6078.5C7622.72 6127.89 7662.76 6167.93 7712.16 6167.93Z" fill="#3F3D56"/>
<path d="M7990.75 6733.65C7994.95 6756.76 7994.57 6780.47 7989.61 6803.43C7984.65 6826.39 7975.22 6848.15 7961.85 6867.46C7948.49 6886.78 7931.45 6903.27 7911.71 6916C7891.97 6928.73 7869.91 6937.45 7846.8 6941.65C7823.69 6945.86 7799.98 6945.48 7777.02 6940.52C7754.06 6935.56 7732.3 6926.13 7712.98 6912.76C7693.66 6899.4 7677.17 6882.36 7664.44 6862.62C7651.71 6842.88 7642.99 6820.83 7638.78 6797.72V6797.72L7638.72 6797.37C7621.12 6700.17 7696.28 6665.77 7793.49 6648.17C7890.7 6630.58 7973.15 6636.44 7990.75 6733.65Z" fill="white"/>
<path d="M6285.36 4634.89C6202.59 4565.05 6101.3 4520.77 5993.82 4507.44C5886.35 4494.11 5777.31 4512.31 5679.98 4559.82C5582.66 4607.33 5501.24 4682.1 5445.64 4775.04C5390.04 4867.97 5362.65 4975.06 5366.8 5083.28C5370.96 5191.5 5406.48 5296.18 5469.04 5384.58C5531.61 5472.98 5618.52 5541.29 5719.2 5581.19C5819.88 5621.1 5929.99 5630.89 6036.13 5609.36C6142.27 5587.83 6239.86 5535.92 6317.04 5459.94L7002.33 6038.16C7012.76 6046.96 7026.25 6051.26 7039.85 6050.11C7053.45 6048.97 7066.04 6042.47 7074.85 6032.05C7083.66 6021.63 7087.97 6008.14 7086.84 5994.54C7085.7 5980.94 7079.22 5968.35 7068.81 5959.53L7068.73 5959.47L6383.44 5381.25C6463.05 5267 6497.12 5127.13 6478.98 4989.07C6460.84 4851.01 6391.79 4724.7 6285.36 4634.89V4634.89ZM6241.18 5325.57C6187.8 5388.84 6116.85 5434.85 6037.31 5457.8C5957.77 5480.75 5873.21 5479.59 5794.32 5454.48C5715.44 5429.37 5645.77 5381.43 5594.13 5316.73C5542.49 5252.03 5511.2 5173.47 5504.21 5090.98C5497.22 5008.5 5514.85 4925.79 5554.87 4853.32C5594.89 4780.86 5655.5 4721.88 5729.03 4683.86C5802.57 4645.84 5885.73 4630.48 5968 4639.71C6050.26 4648.95 6127.94 4682.38 6191.21 4735.76V4735.76C6276.06 4807.35 6328.99 4909.71 6338.36 5020.32C6347.73 5130.93 6312.77 5240.73 6241.18 5325.57V5325.57Z" fill="#3F3D56"/>
<path opacity="0.3" d="M5651.35 5375.54C5571.05 5307.78 5519.18 5212.3 5506.02 5108.06C5492.86 5003.83 5519.39 4898.45 5580.33 4812.87C5572.32 4820.93 5564.59 4829.37 5557.12 4838.19C5521.67 4880.2 5494.84 4928.78 5478.17 4981.15C5461.5 5033.53 5455.3 5088.67 5459.94 5143.44C5464.58 5198.21 5479.96 5251.53 5505.21 5300.35C5530.46 5349.18 5565.08 5392.55 5607.09 5428C5649.1 5463.44 5697.68 5490.27 5750.05 5506.94C5802.43 5523.61 5857.58 5529.8 5912.35 5525.16C5967.12 5520.52 6020.44 5505.14 6069.27 5479.9C6118.09 5454.65 6161.47 5420.04 6196.92 5378.03C6204.37 5369.19 6211.39 5360.15 6217.97 5350.89C6143.86 5425.36 6044.44 5469.23 5939.47 5473.8C5834.51 5478.36 5731.66 5443.29 5651.35 5375.54V5375.54Z" fill="black"/>
<path d="M2765.25 5781.88C2844.6 5574.3 2856.09 5385.84 2790.92 5360.93C2725.75 5336.03 2608.61 5484.11 2529.26 5691.68C2449.92 5899.26 2438.43 6087.72 2503.6 6112.63C2568.76 6137.54 2685.91 5989.45 2765.25 5781.88Z" fill="#2F2E41"/>
<path d="M1903.41 7149.2C2347.87 7149.2 2708.18 6788.91 2708.18 6344.47C2708.18 5900.03 2347.87 5539.74 1903.41 5539.74C1458.95 5539.74 1098.65 5900.03 1098.65 6344.47C1098.65 6788.91 1458.95 7149.2 1903.41 7149.2Z" fill="#2F2E41"/>
<path d="M1781.17 6976.03H1536.69V7414.05H1781.17V6976.03Z" fill="#2F2E41"/>
<path d="M2270.14 6976.03H2025.66V7414.05H2270.14V6976.03Z" fill="#2F2E41"/>
<path d="M1740.42 7495.54C1852.94 7495.54 1944.16 7461.33 1944.16 7419.14C1944.16 7376.95 1852.94 7342.74 1740.42 7342.74C1627.9 7342.74 1536.69 7376.95 1536.69 7419.14C1536.69 7461.33 1627.9 7495.54 1740.42 7495.54Z" fill="#2F2E41"/>
<path d="M2229.39 7485.35C2341.92 7485.35 2433.13 7451.15 2433.13 7408.95C2433.13 7366.76 2341.92 7332.55 2229.39 7332.55C2116.87 7332.55 2025.66 7366.76 2025.66 7408.95C2025.66 7451.15 2116.87 7485.35 2229.39 7485.35Z" fill="#2F2E41"/>
<path d="M1923.79 6415.77C2075.69 6415.77 2198.83 6292.64 2198.83 6140.74C2198.83 5988.84 2075.69 5865.7 1923.79 5865.7C1771.88 5865.7 1648.74 5988.84 1648.74 6140.74C1648.74 6292.64 1771.88 6415.77 1923.79 6415.77Z" fill="white"/>
<path d="M1923.79 6232.42C1974.42 6232.42 2015.47 6191.37 2015.47 6140.74C2015.47 6090.11 1974.42 6049.06 1923.79 6049.06C1873.15 6049.06 1832.11 6090.11 1832.11 6140.74C1832.11 6191.37 1873.15 6232.42 1923.79 6232.42Z" fill="#3F3D56"/>
<path d="M1122.76 5596.09C1057.78 5305.09 1265.5 5011.04 1586.72 4939.32C1907.93 4867.6 2221.01 5045.36 2285.99 5336.36C2350.97 5627.37 2138.09 5734.69 1816.87 5806.41C1495.66 5878.14 1187.74 5887.09 1122.76 5596.09Z" fill="#6C63FF"/>
<path d="M1360.54 6143.5C1390.44 6080.46 1251.9 5952.17 1051.11 5856.94C850.319 5761.71 663.31 5735.61 633.414 5798.64C603.517 5861.68 742.055 5989.97 942.846 6085.2C1143.64 6180.43 1330.65 6206.53 1360.54 6143.5Z" fill="#2F2E41"/>
<path d="M1508.11 6634.78C1508.11 6713.54 1710.92 6869.07 1935.96 6869.07C2161.01 6869.07 2372.01 6647.33 2372.01 6568.57C2372.01 6489.81 2161.01 6583.85 1935.96 6583.85C1710.92 6583.85 1508.11 6556.02 1508.11 6634.78Z" fill="white"/>
<path d="M4514.24 8606.66C4958.7 8606.66 5319 8246.37 5319 7801.93C5319 7357.49 4958.7 6997.2 4514.24 6997.2C4069.78 6997.2 3709.47 7357.49 3709.47 7801.93C3709.47 8246.37 4069.78 8606.66 4514.24 8606.66Z" fill="#2F2E41"/>
<path d="M4391.99 8433.49H4147.51V8871.51H4391.99V8433.49Z" fill="#2F2E41"/>
<path d="M4880.96 8433.49H4636.48V8871.51H4880.96V8433.49Z" fill="#2F2E41"/>
<path d="M4351.25 8953C4463.77 8953 4554.98 8918.8 4554.98 8876.6C4554.98 8834.41 4463.77 8800.2 4351.25 8800.2C4238.72 8800.2 4147.51 8834.41 4147.51 8876.6C4147.51 8918.8 4238.72 8953 4351.25 8953Z" fill="#2F2E41"/>
<path d="M4840.22 8942.81C4952.74 8942.81 5043.96 8908.61 5043.96 8866.41C5043.96 8824.22 4952.74 8790.02 4840.22 8790.02C4727.7 8790.02 4636.48 8824.22 4636.48 8866.41C4636.48 8908.61 4727.7 8942.81 4840.22 8942.81Z" fill="#2F2E41"/>
<path d="M3733.59 7053.55C3668.61 6762.55 3876.32 6468.51 4197.54 6396.78C4518.76 6325.06 4831.83 6502.83 4896.81 6793.83C4961.79 7084.83 4748.91 7192.16 4427.7 7263.88C4106.48 7335.6 3798.57 7344.56 3733.59 7053.55Z" fill="#3F3D56"/>
<path d="M4517.47 7662.49C4517.47 7662.49 4575.84 7405.64 4464.93 7417.31C4354.01 7428.99 4202.23 7434.83 4161.36 7434.83C4120.5 7434.83 3886.99 7405.64 3851.96 7557.41C3816.93 7709.19 3770.23 7895.99 3869.47 8012.74C3869.47 8012.74 3904.5 8526.44 4038.77 8561.47C4173.04 8596.49 4529.14 8637.36 4657.57 8468.07C4695.17 8417.71 4721.43 8359.8 4734.53 8298.34C4747.63 8236.87 4747.27 8173.29 4733.46 8111.98H4675.09L4517.47 7662.49Z" fill="#6C63FF"/>
<path opacity="0.1" d="M3927.85 8053.6C3927.85 8053.6 4027.09 8100.3 4231.41 8071.12V8158.68L3927.85 8135.33V8053.6Z" fill="black"/>
<path d="M4669.52 8346.3L4603.44 8311.37L4897.37 7755.19C4908.4 7734.31 4913.93 7710.96 4913.42 7687.35C4912.92 7663.74 4906.4 7640.64 4894.48 7620.25C4882.57 7599.86 4865.65 7582.85 4845.32 7570.82C4825 7558.79 4801.94 7552.15 4778.33 7551.51L4469.87 7543.21L4471.88 7468.49L4780.34 7476.79C4816.66 7477.77 4852.13 7487.99 4883.39 7506.5C4914.66 7525 4940.68 7551.18 4959.02 7582.54C4977.35 7613.91 4987.37 7649.43 4988.15 7685.75C4988.93 7722.08 4980.43 7758 4963.45 7790.12L4669.52 8346.3Z" fill="#6C63FF"/>
<path d="M3959.12 8346.3L3665.19 7790.12C3648.22 7758 3639.72 7722.08 3640.49 7685.76C3641.27 7649.43 3651.29 7613.91 3669.62 7582.54C3687.96 7551.18 3713.98 7525 3745.25 7506.5C3776.51 7487.99 3811.98 7477.77 3848.3 7476.79L4156.77 7468.49L4158.77 7543.21L3850.31 7551.51C3826.7 7552.15 3803.64 7558.79 3783.32 7570.82C3762.99 7582.85 3746.07 7599.86 3734.16 7620.25C3722.24 7640.65 3715.72 7663.74 3715.22 7687.35C3714.71 7710.96 3720.24 7734.31 3731.28 7755.19L4025.2 8311.37L3959.12 8346.3Z" fill="#6C63FF"/>
<path d="M5546.15 8008.42C5582.34 7940 5435 7791.07 5217.04 7675.78C4999.09 7560.49 4793.05 7522.49 4756.86 7590.91C4720.67 7659.33 4868.01 7808.26 5085.97 7923.55C5303.92 8038.84 5509.95 8076.84 5546.15 8008.42Z" fill="#2F2E41"/>
</svg>
