<svg width="52" height="52" viewBox="0 0 52 52" fill="none" xmlns="http://www.w3.org/2000/svg">
<path d="M48 14C48 12.8954 48.8954 12 50 12C51.1046 12 52 12.8954 52 14C52 15.1046 51.1046 16 50 16C48.8954 16 48 15.1046 48 14Z" fill="#E4A30B"/>
<path d="M48 2C48 0.895432 48.8954 0 50 0C51.1046 0 52 0.895432 52 2C52 3.10457 51.1046 4 50 4C48.8954 4 48 3.10457 48 2Z" fill="#E4A30B"/>
<path d="M36 38C36 36.8954 36.8954 36 38 36C39.1046 36 40 36.8954 40 38C40 39.1046 39.1046 40 38 40C36.8954 40 36 39.1046 36 38Z" fill="#E4A30B"/>
<path d="M36 26C36 24.8954 36.8954 24 38 24C39.1046 24 40 24.8954 40 26C40 27.1046 39.1046 28 38 28C36.8954 28 36 27.1046 36 26Z" fill="#E4A30B"/>
<path d="M36 14C36 12.8954 36.8954 12 38 12C39.1046 12 40 12.8954 40 14C40 15.1046 39.1046 16 38 16C36.8954 16 36 15.1046 36 14Z" fill="#E4A30B"/>
<path d="M36 2C36 0.895432 36.8954 0 38 0C39.1046 0 40 0.895432 40 2C40 3.10457 39.1046 4 38 4C36.8954 4 36 3.10457 36 2Z" fill="#E4A30B"/>
<path d="M24 38C24 36.8954 24.8954 36 26 36C27.1046 36 28 36.8954 28 38C28 39.1046 27.1046 40 26 40C24.8954 40 24 39.1046 24 38Z" fill="#E4A30B"/>
<path d="M24 26C24 24.8954 24.8954 24 26 24C27.1046 24 28 24.8954 28 26C28 27.1046 27.1046 28 26 28C24.8954 28 24 27.1046 24 26Z" fill="#E4A30B"/>
<path d="M24 14C24 12.8954 24.8954 12 26 12C27.1046 12 28 12.8954 28 14C28 15.1046 27.1046 16 26 16C24.8954 16 24 15.1046 24 14Z" fill="#E4A30B"/>
<path d="M24 2C24 0.895432 24.8954 0 26 0C27.1046 0 28 0.895432 28 2C28 3.10457 27.1046 4 26 4C24.8954 4 24 3.10457 24 2Z" fill="#E4A30B"/>
<path d="M12 50C12 48.8954 12.8954 48 14 48C15.1046 48 16 48.8954 16 50C16 51.1046 15.1046 52 14 52C12.8954 52 12 51.1046 12 50Z" fill="#E4A30B"/>
<path d="M12 38C12 36.8954 12.8954 36 14 36C15.1046 36 16 36.8954 16 38C16 39.1046 15.1046 40 14 40C12.8954 40 12 39.1046 12 38Z" fill="#E4A30B"/>
<path d="M12 26C12 24.8954 12.8954 24 14 24C15.1046 24 16 24.8954 16 26C16 27.1046 15.1046 28 14 28C12.8954 28 12 27.1046 12 26Z" fill="#E4A30B"/>
<path d="M12 14C12 12.8954 12.8954 12 14 12C15.1046 12 16 12.8954 16 14C16 15.1046 15.1046 16 14 16C12.8954 16 12 15.1046 12 14Z" fill="#E4A30B"/>
<path d="M12 2C12 0.895432 12.8954 0 14 0C15.1046 0 16 0.895432 16 2C16 3.10457 15.1046 4 14 4C12.8954 4 12 3.10457 12 2Z" fill="#E4A30B"/>
<path d="M0 50C0 48.8954 0.895432 48 2 48C3.10457 48 4 48.8954 4 50C4 51.1046 3.10457 52 2 52C0.895432 52 0 51.1046 0 50Z" fill="#E4A30B"/>
<path d="M0 38C0 36.8954 0.895432 36 2 36C3.10457 36 4 36.8954 4 38C4 39.1046 3.10457 40 2 40C0.895432 40 0 39.1046 0 38Z" fill="#E4A30B"/>
<path d="M0 26C0 24.8954 0.895432 24 2 24C3.10457 24 4 24.8954 4 26C4 27.1046 3.10457 28 2 28C0.895432 28 0 27.1046 0 26Z" fill="#E4A30B"/>
<path d="M0 14C0 12.8954 0.895432 12 2 12C3.10457 12 4 12.8954 4 14C4 15.1046 3.10457 16 2 16C0.895432 16 0 15.1046 0 14Z" fill="#E4A30B"/>
<path d="M0 2C0 0.895432 0.895432 0 2 0C3.10457 0 4 0.895432 4 2C4 3.10457 3.10457 4 2 4C0.895432 4 0 3.10457 0 2Z" fill="#E4A30B"/>
</svg>
