<svg xmlns="http://www.w3.org/2000/svg" width="255" height="169" viewBox="0 0 255 169">
  <g fill="none" fill-rule="evenodd">
    <circle cx="12" cy="36" r="10.5" stroke="#84E" stroke-width="3"/>
    <circle cx="202" cy="12" r="10.5" stroke="#84E" stroke-width="3"/>
    <circle cx="153" cy="94" r="10.5" stroke="#84E" stroke-width="3"/>
    <path stroke="#84E" stroke-width="3" d="M103.447214,22.2485292 C103.398832,22.1517655 103.32037,22.0733042 103.223607,22.0249224 C102.976618,21.9014277 102.676281,22.0015399 102.552786,22.2485292 L93.7888544,39.7763932 C93.7541405,39.8458209 93.736068,39.9223775 93.736068,40 C93.736068,40.2761424 93.9599256,40.5 94.236068,40.5 L111.763932,40.5 C111.841555,40.5 111.918111,40.4819275 111.987539,40.4472136 C112.234528,40.323719 112.33464,40.0233825 112.211146,39.7763932 L103.447214,22.2485292 Z" transform="rotate(-165 103 30)"/>
    <path stroke="#84E" stroke-width="3" d="M129.447214,136.248529 C129.398832,136.151765 129.32037,136.073304 129.223607,136.024922 C128.976618,135.901428 128.676281,136.00154 128.552786,136.248529 L119.788854,153.776393 C119.754141,153.845821 119.736068,153.922377 119.736068,154 C119.736068,154.276142 119.959926,154.5 120.236068,154.5 L137.763932,154.5 C137.841555,154.5 137.918111,154.481927 137.987539,154.447214 C138.234528,154.323719 138.33464,154.023382 138.211146,153.776393 L129.447214,136.248529 Z" transform="rotate(-75 129 144)"/>
    <path stroke="#84E" stroke-width="3" d="M24.8395184,116.640834 C24.7911366,116.54407 24.7126753,116.465609 24.6159116,116.417227 C24.3689224,116.293733 24.0685859,116.393845 23.9450912,116.640834 L15.1811592,134.168698 C15.1464454,134.238126 15.1283728,134.314682 15.1283728,134.392305 C15.1283728,134.668447 15.3522304,134.892305 15.6283728,134.892305 L33.1562369,134.892305 C33.2338594,134.892305 33.3104159,134.874232 33.3798437,134.839518 C33.6268329,134.716024 33.7269451,134.415687 33.6034505,134.168698 L24.8395184,116.640834 Z" transform="rotate(-60 24.392 124.392)"/>
    <path stroke="#84E" stroke-width="3" d="M223.839518,40.640834 C223.791137,40.5440703 223.712675,40.4656091 223.615912,40.4172272 C223.368922,40.2937326 223.068586,40.3938448 222.945091,40.640834 L214.181159,58.168698 C214.146445,58.2381258 214.128373,58.3146823 214.128373,58.3923048 C214.128373,58.6684472 214.35223,58.8923048 214.628373,58.8923048 L232.156237,58.8923048 C232.233859,58.8923048 232.310416,58.8742323 232.379844,58.8395184 C232.626833,58.7160238 232.726945,58.4156873 232.60345,58.168698 L223.839518,40.640834 Z" transform="rotate(45 223.392 48.392)"/>
    <rect width="31" height="15" x="42.794" y="51.722" stroke="#84E" stroke-width="3" rx="2" transform="rotate(-60 58.294 59.222)"/>
    <rect width="31" height="15" x="223.794" y="117.722" stroke="#84E" stroke-width="3" rx="2" transform="rotate(-60 239.294 125.222)"/>
    <rect width="31" height="15" x="146.794" y="35.722" stroke="#84E" stroke-width="3" rx="2" transform="rotate(-120 162.294 43.222)"/>
    <rect width="31" height="15" x="76.794" y="93.722" stroke="#84E" stroke-width="3" rx="2" transform="rotate(-135 92.294 101.222)"/>
    <circle cx="123" cy="61" r="6" fill="#84E"/>
    <circle cx="25" cy="89" r="6" fill="#84E"/>
    <path stroke="#84E" stroke-linecap="round" stroke-linejoin="round" stroke-width="5" d="M67 166.286145L78.2900085 141M179 149.286145L190.290009 124"/>
    <rect width="12" height="12" x="55" y="16" fill="#84E" rx="3"/>
    <rect width="12" height="12" x="203" y="89" fill="#84E" rx="3"/>
  </g>
</svg>
